%TF.GenerationSoftware,KiCad,Pcbnew,9.0.4-1.fc42*%
%TF.CreationDate,2025-09-21T19:32:59-04:00*%
%TF.ProjectId,TacosDevBoard,5461636f-7344-4657-9642-6f6172642e6b,1.0*%
%TF.SameCoordinates,Original*%
%TF.FileFunction,Legend,Top*%
%TF.FilePolarity,Positive*%
%FSLAX46Y46*%
G04 Gerber Fmt 4.6, Leading zero omitted, Abs format (unit mm)*
G04 Created by KiCad (PCBNEW 9.0.4-1.fc42) date 2025-09-21 19:32:59*
%MOMM*%
%LPD*%
G01*
G04 APERTURE LIST*
%ADD10C,0.100000*%
%ADD11C,0.150000*%
%ADD12C,0.120000*%
G04 APERTURE END LIST*
D10*
X157844227Y-141137819D02*
X158415655Y-141137819D01*
X158129941Y-142137819D02*
X158129941Y-141137819D01*
X158748989Y-142042580D02*
X158796608Y-142090200D01*
X158796608Y-142090200D02*
X158748989Y-142137819D01*
X158748989Y-142137819D02*
X158701370Y-142090200D01*
X158701370Y-142090200D02*
X158748989Y-142042580D01*
X158748989Y-142042580D02*
X158748989Y-142137819D01*
X159177560Y-141852104D02*
X159653750Y-141852104D01*
X159082322Y-142137819D02*
X159415655Y-141137819D01*
X159415655Y-141137819D02*
X159748988Y-142137819D01*
X160082322Y-142042580D02*
X160129941Y-142090200D01*
X160129941Y-142090200D02*
X160082322Y-142137819D01*
X160082322Y-142137819D02*
X160034703Y-142090200D01*
X160034703Y-142090200D02*
X160082322Y-142042580D01*
X160082322Y-142042580D02*
X160082322Y-142137819D01*
X161129940Y-142042580D02*
X161082321Y-142090200D01*
X161082321Y-142090200D02*
X160939464Y-142137819D01*
X160939464Y-142137819D02*
X160844226Y-142137819D01*
X160844226Y-142137819D02*
X160701369Y-142090200D01*
X160701369Y-142090200D02*
X160606131Y-141994961D01*
X160606131Y-141994961D02*
X160558512Y-141899723D01*
X160558512Y-141899723D02*
X160510893Y-141709247D01*
X160510893Y-141709247D02*
X160510893Y-141566390D01*
X160510893Y-141566390D02*
X160558512Y-141375914D01*
X160558512Y-141375914D02*
X160606131Y-141280676D01*
X160606131Y-141280676D02*
X160701369Y-141185438D01*
X160701369Y-141185438D02*
X160844226Y-141137819D01*
X160844226Y-141137819D02*
X160939464Y-141137819D01*
X160939464Y-141137819D02*
X161082321Y-141185438D01*
X161082321Y-141185438D02*
X161129940Y-141233057D01*
X161558512Y-142042580D02*
X161606131Y-142090200D01*
X161606131Y-142090200D02*
X161558512Y-142137819D01*
X161558512Y-142137819D02*
X161510893Y-142090200D01*
X161510893Y-142090200D02*
X161558512Y-142042580D01*
X161558512Y-142042580D02*
X161558512Y-142137819D01*
X162225178Y-141137819D02*
X162415654Y-141137819D01*
X162415654Y-141137819D02*
X162510892Y-141185438D01*
X162510892Y-141185438D02*
X162606130Y-141280676D01*
X162606130Y-141280676D02*
X162653749Y-141471152D01*
X162653749Y-141471152D02*
X162653749Y-141804485D01*
X162653749Y-141804485D02*
X162606130Y-141994961D01*
X162606130Y-141994961D02*
X162510892Y-142090200D01*
X162510892Y-142090200D02*
X162415654Y-142137819D01*
X162415654Y-142137819D02*
X162225178Y-142137819D01*
X162225178Y-142137819D02*
X162129940Y-142090200D01*
X162129940Y-142090200D02*
X162034702Y-141994961D01*
X162034702Y-141994961D02*
X161987083Y-141804485D01*
X161987083Y-141804485D02*
X161987083Y-141471152D01*
X161987083Y-141471152D02*
X162034702Y-141280676D01*
X162034702Y-141280676D02*
X162129940Y-141185438D01*
X162129940Y-141185438D02*
X162225178Y-141137819D01*
X163082321Y-142042580D02*
X163129940Y-142090200D01*
X163129940Y-142090200D02*
X163082321Y-142137819D01*
X163082321Y-142137819D02*
X163034702Y-142090200D01*
X163034702Y-142090200D02*
X163082321Y-142042580D01*
X163082321Y-142042580D02*
X163082321Y-142137819D01*
X163510892Y-142090200D02*
X163653749Y-142137819D01*
X163653749Y-142137819D02*
X163891844Y-142137819D01*
X163891844Y-142137819D02*
X163987082Y-142090200D01*
X163987082Y-142090200D02*
X164034701Y-142042580D01*
X164034701Y-142042580D02*
X164082320Y-141947342D01*
X164082320Y-141947342D02*
X164082320Y-141852104D01*
X164082320Y-141852104D02*
X164034701Y-141756866D01*
X164034701Y-141756866D02*
X163987082Y-141709247D01*
X163987082Y-141709247D02*
X163891844Y-141661628D01*
X163891844Y-141661628D02*
X163701368Y-141614009D01*
X163701368Y-141614009D02*
X163606130Y-141566390D01*
X163606130Y-141566390D02*
X163558511Y-141518771D01*
X163558511Y-141518771D02*
X163510892Y-141423533D01*
X163510892Y-141423533D02*
X163510892Y-141328295D01*
X163510892Y-141328295D02*
X163558511Y-141233057D01*
X163558511Y-141233057D02*
X163606130Y-141185438D01*
X163606130Y-141185438D02*
X163701368Y-141137819D01*
X163701368Y-141137819D02*
X163939463Y-141137819D01*
X163939463Y-141137819D02*
X164082320Y-141185438D01*
X165272797Y-142137819D02*
X165272797Y-141137819D01*
X165272797Y-141137819D02*
X165510892Y-141137819D01*
X165510892Y-141137819D02*
X165653749Y-141185438D01*
X165653749Y-141185438D02*
X165748987Y-141280676D01*
X165748987Y-141280676D02*
X165796606Y-141375914D01*
X165796606Y-141375914D02*
X165844225Y-141566390D01*
X165844225Y-141566390D02*
X165844225Y-141709247D01*
X165844225Y-141709247D02*
X165796606Y-141899723D01*
X165796606Y-141899723D02*
X165748987Y-141994961D01*
X165748987Y-141994961D02*
X165653749Y-142090200D01*
X165653749Y-142090200D02*
X165510892Y-142137819D01*
X165510892Y-142137819D02*
X165272797Y-142137819D01*
X166653749Y-142090200D02*
X166558511Y-142137819D01*
X166558511Y-142137819D02*
X166368035Y-142137819D01*
X166368035Y-142137819D02*
X166272797Y-142090200D01*
X166272797Y-142090200D02*
X166225178Y-141994961D01*
X166225178Y-141994961D02*
X166225178Y-141614009D01*
X166225178Y-141614009D02*
X166272797Y-141518771D01*
X166272797Y-141518771D02*
X166368035Y-141471152D01*
X166368035Y-141471152D02*
X166558511Y-141471152D01*
X166558511Y-141471152D02*
X166653749Y-141518771D01*
X166653749Y-141518771D02*
X166701368Y-141614009D01*
X166701368Y-141614009D02*
X166701368Y-141709247D01*
X166701368Y-141709247D02*
X166225178Y-141804485D01*
X167034702Y-141471152D02*
X167272797Y-142137819D01*
X167272797Y-142137819D02*
X167510892Y-141471152D01*
X168987083Y-141614009D02*
X169129940Y-141661628D01*
X169129940Y-141661628D02*
X169177559Y-141709247D01*
X169177559Y-141709247D02*
X169225178Y-141804485D01*
X169225178Y-141804485D02*
X169225178Y-141947342D01*
X169225178Y-141947342D02*
X169177559Y-142042580D01*
X169177559Y-142042580D02*
X169129940Y-142090200D01*
X169129940Y-142090200D02*
X169034702Y-142137819D01*
X169034702Y-142137819D02*
X168653750Y-142137819D01*
X168653750Y-142137819D02*
X168653750Y-141137819D01*
X168653750Y-141137819D02*
X168987083Y-141137819D01*
X168987083Y-141137819D02*
X169082321Y-141185438D01*
X169082321Y-141185438D02*
X169129940Y-141233057D01*
X169129940Y-141233057D02*
X169177559Y-141328295D01*
X169177559Y-141328295D02*
X169177559Y-141423533D01*
X169177559Y-141423533D02*
X169129940Y-141518771D01*
X169129940Y-141518771D02*
X169082321Y-141566390D01*
X169082321Y-141566390D02*
X168987083Y-141614009D01*
X168987083Y-141614009D02*
X168653750Y-141614009D01*
X169796607Y-142137819D02*
X169701369Y-142090200D01*
X169701369Y-142090200D02*
X169653750Y-142042580D01*
X169653750Y-142042580D02*
X169606131Y-141947342D01*
X169606131Y-141947342D02*
X169606131Y-141661628D01*
X169606131Y-141661628D02*
X169653750Y-141566390D01*
X169653750Y-141566390D02*
X169701369Y-141518771D01*
X169701369Y-141518771D02*
X169796607Y-141471152D01*
X169796607Y-141471152D02*
X169939464Y-141471152D01*
X169939464Y-141471152D02*
X170034702Y-141518771D01*
X170034702Y-141518771D02*
X170082321Y-141566390D01*
X170082321Y-141566390D02*
X170129940Y-141661628D01*
X170129940Y-141661628D02*
X170129940Y-141947342D01*
X170129940Y-141947342D02*
X170082321Y-142042580D01*
X170082321Y-142042580D02*
X170034702Y-142090200D01*
X170034702Y-142090200D02*
X169939464Y-142137819D01*
X169939464Y-142137819D02*
X169796607Y-142137819D01*
X170987083Y-142137819D02*
X170987083Y-141614009D01*
X170987083Y-141614009D02*
X170939464Y-141518771D01*
X170939464Y-141518771D02*
X170844226Y-141471152D01*
X170844226Y-141471152D02*
X170653750Y-141471152D01*
X170653750Y-141471152D02*
X170558512Y-141518771D01*
X170987083Y-142090200D02*
X170891845Y-142137819D01*
X170891845Y-142137819D02*
X170653750Y-142137819D01*
X170653750Y-142137819D02*
X170558512Y-142090200D01*
X170558512Y-142090200D02*
X170510893Y-141994961D01*
X170510893Y-141994961D02*
X170510893Y-141899723D01*
X170510893Y-141899723D02*
X170558512Y-141804485D01*
X170558512Y-141804485D02*
X170653750Y-141756866D01*
X170653750Y-141756866D02*
X170891845Y-141756866D01*
X170891845Y-141756866D02*
X170987083Y-141709247D01*
X171463274Y-142137819D02*
X171463274Y-141471152D01*
X171463274Y-141661628D02*
X171510893Y-141566390D01*
X171510893Y-141566390D02*
X171558512Y-141518771D01*
X171558512Y-141518771D02*
X171653750Y-141471152D01*
X171653750Y-141471152D02*
X171748988Y-141471152D01*
X172510893Y-142137819D02*
X172510893Y-141137819D01*
X172510893Y-142090200D02*
X172415655Y-142137819D01*
X172415655Y-142137819D02*
X172225179Y-142137819D01*
X172225179Y-142137819D02*
X172129941Y-142090200D01*
X172129941Y-142090200D02*
X172082322Y-142042580D01*
X172082322Y-142042580D02*
X172034703Y-141947342D01*
X172034703Y-141947342D02*
X172034703Y-141661628D01*
X172034703Y-141661628D02*
X172082322Y-141566390D01*
X172082322Y-141566390D02*
X172129941Y-141518771D01*
X172129941Y-141518771D02*
X172225179Y-141471152D01*
X172225179Y-141471152D02*
X172415655Y-141471152D01*
X172415655Y-141471152D02*
X172510893Y-141518771D01*
D11*
X164795238Y-53231009D02*
X164938095Y-53278628D01*
X164938095Y-53278628D02*
X164985714Y-53326247D01*
X164985714Y-53326247D02*
X165033333Y-53421485D01*
X165033333Y-53421485D02*
X165033333Y-53564342D01*
X165033333Y-53564342D02*
X164985714Y-53659580D01*
X164985714Y-53659580D02*
X164938095Y-53707200D01*
X164938095Y-53707200D02*
X164842857Y-53754819D01*
X164842857Y-53754819D02*
X164461905Y-53754819D01*
X164461905Y-53754819D02*
X164461905Y-52754819D01*
X164461905Y-52754819D02*
X164795238Y-52754819D01*
X164795238Y-52754819D02*
X164890476Y-52802438D01*
X164890476Y-52802438D02*
X164938095Y-52850057D01*
X164938095Y-52850057D02*
X164985714Y-52945295D01*
X164985714Y-52945295D02*
X164985714Y-53040533D01*
X164985714Y-53040533D02*
X164938095Y-53135771D01*
X164938095Y-53135771D02*
X164890476Y-53183390D01*
X164890476Y-53183390D02*
X164795238Y-53231009D01*
X164795238Y-53231009D02*
X164461905Y-53231009D01*
X165366667Y-52754819D02*
X166033333Y-52754819D01*
X166033333Y-52754819D02*
X165366667Y-53754819D01*
X165366667Y-53754819D02*
X166033333Y-53754819D01*
X161009048Y-58033866D02*
X161770953Y-58033866D01*
X161390000Y-58414819D02*
X161390000Y-57652914D01*
D12*
%TO.C,J4*%
X111650000Y-110049800D02*
X113030000Y-110049800D01*
X111650000Y-111429800D02*
X111650000Y-110049800D01*
X111650000Y-112699800D02*
X111650000Y-130589800D01*
X111650000Y-112699800D02*
X114410000Y-112699800D01*
X111650000Y-130589800D02*
X114410000Y-130589800D01*
X114410000Y-112699800D02*
X114410000Y-130589800D01*
%TO.C,J1*%
X159757600Y-115053600D02*
X161137600Y-115053600D01*
X159757600Y-116433600D02*
X159757600Y-115053600D01*
X159757600Y-117703600D02*
X159757600Y-135593600D01*
X159757600Y-117703600D02*
X162517600Y-117703600D01*
X159757600Y-135593600D02*
X162517600Y-135593600D01*
X162517600Y-117703600D02*
X162517600Y-135593600D01*
%TO.C,BZ*%
X171300000Y-60500000D02*
G75*
G02*
X159100000Y-60500000I-6100000J0D01*
G01*
X159100000Y-60500000D02*
G75*
G02*
X171300000Y-60500000I6100000J0D01*
G01*
%TO.C,J3*%
X159732200Y-69536800D02*
X161112200Y-69536800D01*
X159732200Y-70916800D02*
X159732200Y-69536800D01*
X159732200Y-72186800D02*
X159732200Y-90076800D01*
X159732200Y-72186800D02*
X162492200Y-72186800D01*
X159732200Y-90076800D02*
X162492200Y-90076800D01*
X162492200Y-72186800D02*
X162492200Y-90076800D01*
%TO.C,J5*%
X111650000Y-87088200D02*
X113030000Y-87088200D01*
X111650000Y-88468200D02*
X111650000Y-87088200D01*
X111650000Y-89738200D02*
X111650000Y-107628200D01*
X111650000Y-89738200D02*
X114410000Y-89738200D01*
X111650000Y-107628200D02*
X114410000Y-107628200D01*
X114410000Y-89738200D02*
X114410000Y-107628200D01*
%TO.C,J2*%
X159732200Y-92219000D02*
X161112200Y-92219000D01*
X159732200Y-93599000D02*
X159732200Y-92219000D01*
X159732200Y-94869000D02*
X159732200Y-112759000D01*
X159732200Y-94869000D02*
X162492200Y-94869000D01*
X159732200Y-112759000D02*
X162492200Y-112759000D01*
X162492200Y-94869000D02*
X162492200Y-112759000D01*
%TO.C,J8*%
X111650000Y-135526000D02*
X111650000Y-140826000D01*
X152400000Y-135526000D02*
X111650000Y-135526000D01*
X152400000Y-135526000D02*
X152400000Y-138176000D01*
X152400000Y-138176000D02*
X155050000Y-138176000D01*
X153670000Y-135526000D02*
X155050000Y-135526000D01*
X155050000Y-135526000D02*
X155050000Y-136906000D01*
X155050000Y-138176000D02*
X155050000Y-140826000D01*
X155050000Y-140826000D02*
X111650000Y-140826000D01*
%TO.C,J9*%
X111624600Y-83032600D02*
X111624600Y-60062600D01*
X114384600Y-60062600D02*
X111624600Y-60062600D01*
X114384600Y-83032600D02*
X111624600Y-83032600D01*
X114384600Y-83032600D02*
X114384600Y-60062600D01*
X114384600Y-84302600D02*
X114384600Y-85682600D01*
X114384600Y-85682600D02*
X113004600Y-85682600D01*
%TD*%
M02*
