%TF.GenerationSoftware,KiCad,Pcbnew,9.0.4-1.fc42*%
%TF.CreationDate,2025-09-21T19:32:59-04:00*%
%TF.ProjectId,TacosDevBoard,5461636f-7344-4657-9642-6f6172642e6b,1.0*%
%TF.SameCoordinates,Original*%
%TF.FileFunction,Legend,Bot*%
%TF.FilePolarity,Positive*%
%FSLAX46Y46*%
G04 Gerber Fmt 4.6, Leading zero omitted, Abs format (unit mm)*
G04 Created by KiCad (PCBNEW 9.0.4-1.fc42) date 2025-09-21 19:32:59*
%MOMM*%
%LPD*%
G01*
G04 APERTURE LIST*
%ADD10C,0.150000*%
%ADD11C,0.120000*%
G04 APERTURE END LIST*
D10*
X171634819Y-43666666D02*
X172349104Y-43666666D01*
X172349104Y-43666666D02*
X172491961Y-43619047D01*
X172491961Y-43619047D02*
X172587200Y-43523809D01*
X172587200Y-43523809D02*
X172634819Y-43380952D01*
X172634819Y-43380952D02*
X172634819Y-43285714D01*
X171634819Y-44571428D02*
X171634819Y-44380952D01*
X171634819Y-44380952D02*
X171682438Y-44285714D01*
X171682438Y-44285714D02*
X171730057Y-44238095D01*
X171730057Y-44238095D02*
X171872914Y-44142857D01*
X171872914Y-44142857D02*
X172063390Y-44095238D01*
X172063390Y-44095238D02*
X172444342Y-44095238D01*
X172444342Y-44095238D02*
X172539580Y-44142857D01*
X172539580Y-44142857D02*
X172587200Y-44190476D01*
X172587200Y-44190476D02*
X172634819Y-44285714D01*
X172634819Y-44285714D02*
X172634819Y-44476190D01*
X172634819Y-44476190D02*
X172587200Y-44571428D01*
X172587200Y-44571428D02*
X172539580Y-44619047D01*
X172539580Y-44619047D02*
X172444342Y-44666666D01*
X172444342Y-44666666D02*
X172206247Y-44666666D01*
X172206247Y-44666666D02*
X172111009Y-44619047D01*
X172111009Y-44619047D02*
X172063390Y-44571428D01*
X172063390Y-44571428D02*
X172015771Y-44476190D01*
X172015771Y-44476190D02*
X172015771Y-44285714D01*
X172015771Y-44285714D02*
X172063390Y-44190476D01*
X172063390Y-44190476D02*
X172111009Y-44142857D01*
X172111009Y-44142857D02*
X172206247Y-44095238D01*
X121597561Y-35989419D02*
X121597561Y-34989419D01*
X121597561Y-34989419D02*
X121216609Y-34989419D01*
X121216609Y-34989419D02*
X121121371Y-35037038D01*
X121121371Y-35037038D02*
X121073752Y-35084657D01*
X121073752Y-35084657D02*
X121026133Y-35179895D01*
X121026133Y-35179895D02*
X121026133Y-35322752D01*
X121026133Y-35322752D02*
X121073752Y-35417990D01*
X121073752Y-35417990D02*
X121121371Y-35465609D01*
X121121371Y-35465609D02*
X121216609Y-35513228D01*
X121216609Y-35513228D02*
X121597561Y-35513228D01*
X120692799Y-34989419D02*
X120454704Y-35989419D01*
X120454704Y-35989419D02*
X120264228Y-35275133D01*
X120264228Y-35275133D02*
X120073752Y-35989419D01*
X120073752Y-35989419D02*
X119835657Y-34989419D01*
X119454704Y-35989419D02*
X119454704Y-34989419D01*
X119454704Y-34989419D02*
X119121371Y-35703704D01*
X119121371Y-35703704D02*
X118788038Y-34989419D01*
X118788038Y-34989419D02*
X118788038Y-35989419D01*
X154265142Y-35689580D02*
X154312761Y-35737200D01*
X154312761Y-35737200D02*
X154455618Y-35784819D01*
X154455618Y-35784819D02*
X154550856Y-35784819D01*
X154550856Y-35784819D02*
X154693713Y-35737200D01*
X154693713Y-35737200D02*
X154788951Y-35641961D01*
X154788951Y-35641961D02*
X154836570Y-35546723D01*
X154836570Y-35546723D02*
X154884189Y-35356247D01*
X154884189Y-35356247D02*
X154884189Y-35213390D01*
X154884189Y-35213390D02*
X154836570Y-35022914D01*
X154836570Y-35022914D02*
X154788951Y-34927676D01*
X154788951Y-34927676D02*
X154693713Y-34832438D01*
X154693713Y-34832438D02*
X154550856Y-34784819D01*
X154550856Y-34784819D02*
X154455618Y-34784819D01*
X154455618Y-34784819D02*
X154312761Y-34832438D01*
X154312761Y-34832438D02*
X154265142Y-34880057D01*
X153646094Y-34784819D02*
X153455618Y-34784819D01*
X153455618Y-34784819D02*
X153360380Y-34832438D01*
X153360380Y-34832438D02*
X153265142Y-34927676D01*
X153265142Y-34927676D02*
X153217523Y-35118152D01*
X153217523Y-35118152D02*
X153217523Y-35451485D01*
X153217523Y-35451485D02*
X153265142Y-35641961D01*
X153265142Y-35641961D02*
X153360380Y-35737200D01*
X153360380Y-35737200D02*
X153455618Y-35784819D01*
X153455618Y-35784819D02*
X153646094Y-35784819D01*
X153646094Y-35784819D02*
X153741332Y-35737200D01*
X153741332Y-35737200D02*
X153836570Y-35641961D01*
X153836570Y-35641961D02*
X153884189Y-35451485D01*
X153884189Y-35451485D02*
X153884189Y-35118152D01*
X153884189Y-35118152D02*
X153836570Y-34927676D01*
X153836570Y-34927676D02*
X153741332Y-34832438D01*
X153741332Y-34832438D02*
X153646094Y-34784819D01*
X152788951Y-35784819D02*
X152788951Y-34784819D01*
X152788951Y-34784819D02*
X152455618Y-35499104D01*
X152455618Y-35499104D02*
X152122285Y-34784819D01*
X152122285Y-34784819D02*
X152122285Y-35784819D01*
X151646094Y-35784819D02*
X151646094Y-34784819D01*
X151646094Y-34784819D02*
X151312761Y-35499104D01*
X151312761Y-35499104D02*
X150979428Y-34784819D01*
X150979428Y-34784819D02*
X150979428Y-35784819D01*
X131418790Y-134879000D02*
X131275933Y-134926619D01*
X131275933Y-134926619D02*
X131037838Y-134926619D01*
X131037838Y-134926619D02*
X130942600Y-134879000D01*
X130942600Y-134879000D02*
X130894981Y-134831380D01*
X130894981Y-134831380D02*
X130847362Y-134736142D01*
X130847362Y-134736142D02*
X130847362Y-134640904D01*
X130847362Y-134640904D02*
X130894981Y-134545666D01*
X130894981Y-134545666D02*
X130942600Y-134498047D01*
X130942600Y-134498047D02*
X131037838Y-134450428D01*
X131037838Y-134450428D02*
X131228314Y-134402809D01*
X131228314Y-134402809D02*
X131323552Y-134355190D01*
X131323552Y-134355190D02*
X131371171Y-134307571D01*
X131371171Y-134307571D02*
X131418790Y-134212333D01*
X131418790Y-134212333D02*
X131418790Y-134117095D01*
X131418790Y-134117095D02*
X131371171Y-134021857D01*
X131371171Y-134021857D02*
X131323552Y-133974238D01*
X131323552Y-133974238D02*
X131228314Y-133926619D01*
X131228314Y-133926619D02*
X130990219Y-133926619D01*
X130990219Y-133926619D02*
X130847362Y-133974238D01*
X130418790Y-134402809D02*
X130085457Y-134402809D01*
X129942600Y-134926619D02*
X130418790Y-134926619D01*
X130418790Y-134926619D02*
X130418790Y-133926619D01*
X130418790Y-133926619D02*
X129942600Y-133926619D01*
X129037838Y-134926619D02*
X129514028Y-134926619D01*
X129514028Y-134926619D02*
X129514028Y-133926619D01*
X128704504Y-134402809D02*
X128371171Y-134402809D01*
X128228314Y-134926619D02*
X128704504Y-134926619D01*
X128704504Y-134926619D02*
X128704504Y-133926619D01*
X128704504Y-133926619D02*
X128228314Y-133926619D01*
X127228314Y-134831380D02*
X127275933Y-134879000D01*
X127275933Y-134879000D02*
X127418790Y-134926619D01*
X127418790Y-134926619D02*
X127514028Y-134926619D01*
X127514028Y-134926619D02*
X127656885Y-134879000D01*
X127656885Y-134879000D02*
X127752123Y-134783761D01*
X127752123Y-134783761D02*
X127799742Y-134688523D01*
X127799742Y-134688523D02*
X127847361Y-134498047D01*
X127847361Y-134498047D02*
X127847361Y-134355190D01*
X127847361Y-134355190D02*
X127799742Y-134164714D01*
X127799742Y-134164714D02*
X127752123Y-134069476D01*
X127752123Y-134069476D02*
X127656885Y-133974238D01*
X127656885Y-133974238D02*
X127514028Y-133926619D01*
X127514028Y-133926619D02*
X127418790Y-133926619D01*
X127418790Y-133926619D02*
X127275933Y-133974238D01*
X127275933Y-133974238D02*
X127228314Y-134021857D01*
X126942599Y-133926619D02*
X126371171Y-133926619D01*
X126656885Y-134926619D02*
X126656885Y-133926619D01*
D11*
%TO.C,J6*%
X159180000Y-37890000D02*
X169000000Y-37890000D01*
X159180000Y-39120000D02*
X159180000Y-37890000D01*
X159180000Y-45090000D02*
X159180000Y-41420000D01*
X159180000Y-50070000D02*
X159180000Y-47390000D01*
X159900000Y-50070000D02*
X159180000Y-50070000D01*
X163600000Y-50070000D02*
X161300000Y-50070000D01*
X169450000Y-50070000D02*
X165000000Y-50070000D01*
X170820000Y-48590000D02*
X170820000Y-47730000D01*
%TO.C,PWM*%
X118812000Y-36770000D02*
X121472000Y-36770000D01*
X118812000Y-54610000D02*
X118812000Y-36770000D01*
X118812000Y-54610000D02*
X121472000Y-54610000D01*
X120142000Y-57210000D02*
X121472000Y-57210000D01*
X121472000Y-54610000D02*
X121472000Y-36770000D01*
X121472000Y-57210000D02*
X121472000Y-55880000D01*
%TO.C,COMM*%
X151578000Y-36770000D02*
X151578000Y-38100000D01*
X151578000Y-39370000D02*
X151578000Y-57210000D01*
X152908000Y-36770000D02*
X151578000Y-36770000D01*
X154238000Y-39370000D02*
X151578000Y-39370000D01*
X154238000Y-39370000D02*
X154238000Y-57210000D01*
X154238000Y-57210000D02*
X151578000Y-57210000D01*
%TO.C,SELECT*%
X126152600Y-132825800D02*
X126152600Y-130165800D01*
X143992600Y-130165800D02*
X126152600Y-130165800D01*
X143992600Y-132825800D02*
X126152600Y-132825800D01*
X143992600Y-132825800D02*
X143992600Y-130165800D01*
X146592600Y-130165800D02*
X145262600Y-130165800D01*
X146592600Y-131495800D02*
X146592600Y-130165800D01*
%TD*%
M02*
