%TF.GenerationSoftware,KiCad,Pcbnew,9.0.4-1.fc42*%
%TF.CreationDate,2025-09-21T19:32:59-04:00*%
%TF.ProjectId,TacosDevBoard,5461636f-7344-4657-9642-6f6172642e6b,1.0*%
%TF.SameCoordinates,Original*%
%TF.FileFunction,Copper,L1,Top*%
%TF.FilePolarity,Positive*%
%FSLAX46Y46*%
G04 Gerber Fmt 4.6, Leading zero omitted, Abs format (unit mm)*
G04 Created by KiCad (PCBNEW 9.0.4-1.fc42) date 2025-09-21 19:32:59*
%MOMM*%
%LPD*%
G01*
G04 APERTURE LIST*
%TA.AperFunction,ComponentPad*%
%ADD10R,1.700000X1.700000*%
%TD*%
%TA.AperFunction,ComponentPad*%
%ADD11C,1.700000*%
%TD*%
%TA.AperFunction,ComponentPad*%
%ADD12R,2.000000X2.000000*%
%TD*%
%TA.AperFunction,ComponentPad*%
%ADD13C,2.000000*%
%TD*%
%TA.AperFunction,Conductor*%
%ADD14C,0.200000*%
%TD*%
G04 APERTURE END LIST*
D10*
%TO.P,J4,1,Pin_1*%
%TO.N,unconnected-(J4-Pin_1-Pad1)*%
X113030000Y-111429800D03*
D11*
%TO.P,J4,2,Pin_2*%
%TO.N,unconnected-(J4-Pin_2-Pad2)*%
X113030000Y-113969800D03*
%TO.P,J4,3,Pin_3*%
%TO.N,RX1*%
X113030000Y-116509800D03*
%TO.P,J4,4,Pin_4*%
%TO.N,TX1*%
X113030000Y-119049800D03*
%TO.P,J4,5,Pin_5*%
%TO.N,RX2*%
X113030000Y-121589800D03*
%TO.P,J4,6,Pin_6*%
%TO.N,TX2*%
X113030000Y-124129800D03*
%TO.P,J4,7,Pin_7*%
%TO.N,RX3*%
X113030000Y-126669800D03*
%TO.P,J4,8,Pin_8*%
%TO.N,TX3*%
X113030000Y-129209800D03*
%TD*%
D10*
%TO.P,J1,1,Pin_1*%
%TO.N,unconnected-(J1-Pin_1-Pad1)*%
X161137600Y-116433600D03*
D11*
%TO.P,J1,2,Pin_2*%
%TO.N,unconnected-(J1-Pin_2-Pad2)*%
X161137600Y-118973600D03*
%TO.P,J1,3,Pin_3*%
%TO.N,unconnected-(J1-Pin_3-Pad3)*%
X161137600Y-121513600D03*
%TO.P,J1,4,Pin_4*%
%TO.N,unconnected-(J1-Pin_4-Pad4)*%
X161137600Y-124053600D03*
%TO.P,J1,5,Pin_5*%
%TO.N,unconnected-(J1-Pin_5-Pad5)*%
X161137600Y-126593600D03*
%TO.P,J1,6,Pin_6*%
%TO.N,unconnected-(J1-Pin_6-Pad6)*%
X161137600Y-129133600D03*
%TO.P,J1,7,Pin_7*%
%TO.N,unconnected-(J1-Pin_7-Pad7)*%
X161137600Y-131673600D03*
%TO.P,J1,8,Pin_8*%
%TO.N,unconnected-(J1-Pin_8-Pad8)*%
X161137600Y-134213600D03*
%TD*%
D12*
%TO.P,BZ,1,+*%
%TO.N,D52*%
X161400000Y-60500000D03*
D13*
%TO.P,BZ,2,-*%
%TO.N,GND*%
X169000000Y-60500000D03*
%TD*%
D10*
%TO.P,J3,1,Pin_1*%
%TO.N,unconnected-(J3-Pin_1-Pad1)*%
X161112200Y-70916800D03*
D11*
%TO.P,J3,2,Pin_2*%
%TO.N,unconnected-(J3-Pin_2-Pad2)*%
X161112200Y-73456800D03*
%TO.P,J3,3,Pin_3*%
%TO.N,unconnected-(J3-Pin_3-Pad3)*%
X161112200Y-75996800D03*
%TO.P,J3,4,Pin_4*%
%TO.N,VDD*%
X161112200Y-78536800D03*
%TO.P,J3,5,Pin_5*%
%TO.N,+5V*%
X161112200Y-81076800D03*
%TO.P,J3,6,Pin_6*%
%TO.N,GND*%
X161112200Y-83616800D03*
%TO.P,J3,7,Pin_7*%
%TO.N,VSS*%
X161112200Y-86156800D03*
%TO.P,J3,8,Pin_8*%
%TO.N,VIN*%
X161112200Y-88696800D03*
%TD*%
D10*
%TO.P,J5,1,Pin_1*%
%TO.N,RX0*%
X113030000Y-88468200D03*
D11*
%TO.P,J5,2,Pin_2*%
%TO.N,TX0*%
X113030000Y-91008200D03*
%TO.P,J5,3,Pin_3*%
%TO.N,~D2*%
X113030000Y-93548200D03*
%TO.P,J5,4,Pin_4*%
%TO.N,~D3*%
X113030000Y-96088200D03*
%TO.P,J5,5,Pin_5*%
%TO.N,~D4*%
X113030000Y-98628200D03*
%TO.P,J5,6,Pin_6*%
%TO.N,~D5*%
X113030000Y-101168200D03*
%TO.P,J5,7,Pin_7*%
%TO.N,~D6*%
X113030000Y-103708200D03*
%TO.P,J5,8,Pin_8*%
%TO.N,~D7*%
X113030000Y-106248200D03*
%TD*%
D10*
%TO.P,J2,1,Pin_1*%
%TO.N,unconnected-(J2-Pin_1-Pad1)*%
X161112200Y-93599000D03*
D11*
%TO.P,J2,2,Pin_2*%
%TO.N,unconnected-(J2-Pin_2-Pad2)*%
X161112200Y-96139000D03*
%TO.P,J2,3,Pin_3*%
%TO.N,unconnected-(J2-Pin_3-Pad3)*%
X161112200Y-98679000D03*
%TO.P,J2,4,Pin_4*%
%TO.N,unconnected-(J2-Pin_4-Pad4)*%
X161112200Y-101219000D03*
%TO.P,J2,5,Pin_5*%
%TO.N,unconnected-(J2-Pin_5-Pad5)*%
X161112200Y-103759000D03*
%TO.P,J2,6,Pin_6*%
%TO.N,unconnected-(J2-Pin_6-Pad6)*%
X161112200Y-106299000D03*
%TO.P,J2,7,Pin_7*%
%TO.N,unconnected-(J2-Pin_7-Pad7)*%
X161112200Y-108839000D03*
%TO.P,J2,8,Pin_8*%
%TO.N,unconnected-(J2-Pin_8-Pad8)*%
X161112200Y-111379000D03*
%TD*%
D10*
%TO.P,J8,1,Pin_1*%
%TO.N,+5V*%
X153670000Y-136906000D03*
D11*
%TO.P,J8,2,Pin_2*%
X153670000Y-139446000D03*
%TO.P,J8,3,Pin_3*%
%TO.N,SD_DET_B*%
X151130000Y-136906000D03*
%TO.P,J8,4,Pin_4*%
%TO.N,unconnected-(J8-Pin_4-Pad4)*%
X151130000Y-139446000D03*
%TO.P,J8,5,Pin_5*%
%TO.N,SD_DET_A*%
X148590000Y-136906000D03*
%TO.P,J8,6,Pin_6*%
%TO.N,unconnected-(J8-Pin_6-Pad6)*%
X148590000Y-139446000D03*
%TO.P,J8,7,Pin_7*%
%TO.N,SD_DAT1*%
X146050000Y-136906000D03*
%TO.P,J8,8,Pin_8*%
%TO.N,unconnected-(J8-Pin_8-Pad8)*%
X146050000Y-139446000D03*
%TO.P,J8,9,Pin_9*%
%TO.N,SD_DAT0*%
X143510000Y-136906000D03*
%TO.P,J8,10,Pin_10*%
%TO.N,unconnected-(J8-Pin_10-Pad10)*%
X143510000Y-139446000D03*
%TO.P,J8,11,Pin_11*%
%TO.N,SD_CLK*%
X140970000Y-136906000D03*
%TO.P,J8,12,Pin_12*%
%TO.N,unconnected-(J8-Pin_12-Pad12)*%
X140970000Y-139446000D03*
%TO.P,J8,13,Pin_13*%
%TO.N,unconnected-(J8-Pin_13-Pad13)*%
X138430000Y-136906000D03*
%TO.P,J8,14,Pin_14*%
%TO.N,unconnected-(J8-Pin_14-Pad14)*%
X138430000Y-139446000D03*
%TO.P,J8,15,Pin_15*%
%TO.N,SD_CMD*%
X135890000Y-136906000D03*
%TO.P,J8,16,Pin_16*%
%TO.N,unconnected-(J8-Pin_16-Pad16)*%
X135890000Y-139446000D03*
%TO.P,J8,17,Pin_17*%
%TO.N,SD_DAT3{slash}CD*%
X133350000Y-136906000D03*
%TO.P,J8,18,Pin_18*%
%TO.N,unconnected-(J8-Pin_18-Pad18)*%
X133350000Y-139446000D03*
%TO.P,J8,19,Pin_19*%
%TO.N,SD_DAT2*%
X130810000Y-136906000D03*
%TO.P,J8,20,Pin_20*%
%TO.N,unconnected-(J8-Pin_20-Pad20)*%
X130810000Y-139446000D03*
%TO.P,J8,21,Pin_21*%
%TO.N,D32*%
X128270000Y-136906000D03*
%TO.P,J8,22,Pin_22*%
%TO.N,unconnected-(J8-Pin_22-Pad22)*%
X128270000Y-139446000D03*
%TO.P,J8,23,Pin_23*%
%TO.N,D30*%
X125730000Y-136906000D03*
%TO.P,J8,24,Pin_24*%
%TO.N,unconnected-(J8-Pin_24-Pad24)*%
X125730000Y-139446000D03*
%TO.P,J8,25,Pin_25*%
%TO.N,D28*%
X123190000Y-136906000D03*
%TO.P,J8,26,Pin_26*%
%TO.N,unconnected-(J8-Pin_26-Pad26)*%
X123190000Y-139446000D03*
%TO.P,J8,27,Pin_27*%
%TO.N,D26*%
X120650000Y-136906000D03*
%TO.P,J8,28,Pin_28*%
%TO.N,unconnected-(J8-Pin_28-Pad28)*%
X120650000Y-139446000D03*
%TO.P,J8,29,Pin_29*%
%TO.N,D24*%
X118110000Y-136906000D03*
%TO.P,J8,30,Pin_30*%
%TO.N,unconnected-(J8-Pin_30-Pad30)*%
X118110000Y-139446000D03*
%TO.P,J8,31,Pin_31*%
%TO.N,D22*%
X115570000Y-136906000D03*
%TO.P,J8,32,Pin_32*%
%TO.N,unconnected-(J8-Pin_32-Pad32)*%
X115570000Y-139446000D03*
%TO.P,J8,33,Pin_33*%
%TO.N,GND*%
X113030000Y-136906000D03*
%TO.P,J8,34,Pin_34*%
X113030000Y-139446000D03*
%TD*%
D10*
%TO.P,J9,1,Pin_1*%
%TO.N,~D8*%
X113004600Y-84302600D03*
D11*
%TO.P,J9,2,Pin_2*%
%TO.N,~D9*%
X113004600Y-81762600D03*
%TO.P,J9,3,Pin_3*%
%TO.N,unconnected-(J9-Pin_3-Pad3)*%
X113004600Y-79222600D03*
%TO.P,J9,4,Pin_4*%
%TO.N,unconnected-(J9-Pin_4-Pad4)*%
X113004600Y-76682600D03*
%TO.P,J9,5,Pin_5*%
%TO.N,unconnected-(J9-Pin_5-Pad5)*%
X113004600Y-74142600D03*
%TO.P,J9,6,Pin_6*%
%TO.N,unconnected-(J9-Pin_6-Pad6)*%
X113004600Y-71602600D03*
%TO.P,J9,7,Pin_7*%
%TO.N,unconnected-(J9-Pin_7-Pad7)*%
X113004600Y-69062600D03*
%TO.P,J9,8,Pin_8*%
%TO.N,unconnected-(J9-Pin_8-Pad8)*%
X113004600Y-66522600D03*
%TO.P,J9,9,Pin_9*%
%TO.N,D52*%
X113004600Y-63982600D03*
%TO.P,J9,10,Pin_10*%
%TO.N,unconnected-(J9-Pin_10-Pad10)*%
X113004600Y-61442600D03*
%TD*%
D10*
%TO.P,PWM,1,Pin_1*%
%TO.N,~D2*%
X120142000Y-55880000D03*
D11*
%TO.P,PWM,2,Pin_2*%
%TO.N,~D3*%
X120142000Y-53340000D03*
%TO.P,PWM,3,Pin_3*%
%TO.N,~D4*%
X120142000Y-50800000D03*
%TO.P,PWM,4,Pin_4*%
%TO.N,~D5*%
X120142000Y-48260000D03*
%TO.P,PWM,5,Pin_5*%
%TO.N,~D6*%
X120142000Y-45720000D03*
%TO.P,PWM,6,Pin_6*%
%TO.N,~D7*%
X120142000Y-43180000D03*
%TO.P,PWM,7,Pin_7*%
%TO.N,~D8*%
X120142000Y-40640000D03*
%TO.P,PWM,8,Pin_8*%
%TO.N,~D9*%
X120142000Y-38100000D03*
%TD*%
D10*
%TO.P,COMM,1,Pin_1*%
%TO.N,TX0*%
X152908000Y-38100000D03*
D11*
%TO.P,COMM,2,Pin_2*%
%TO.N,RX0*%
X152908000Y-40640000D03*
%TO.P,COMM,3,Pin_3*%
%TO.N,TX1*%
X152908000Y-43180000D03*
%TO.P,COMM,4,Pin_4*%
%TO.N,RX1*%
X152908000Y-45720000D03*
%TO.P,COMM,5,Pin_5*%
%TO.N,TX2*%
X152908000Y-48260000D03*
%TO.P,COMM,6,Pin_6*%
%TO.N,RX2*%
X152908000Y-50800000D03*
%TO.P,COMM,7,Pin_7*%
%TO.N,TX3*%
X152908000Y-53340000D03*
%TO.P,COMM,8,Pin_8*%
%TO.N,RX3*%
X152908000Y-55880000D03*
%TD*%
D10*
%TO.P,SELECT,1,Pin_1*%
%TO.N,GND*%
X145262600Y-131495800D03*
D11*
%TO.P,SELECT,2,Pin_2*%
%TO.N,D32*%
X142722600Y-131495800D03*
%TO.P,SELECT,3,Pin_3*%
%TO.N,D30*%
X140182600Y-131495800D03*
%TO.P,SELECT,4,Pin_4*%
%TO.N,D28*%
X137642600Y-131495800D03*
%TO.P,SELECT,5,Pin_5*%
%TO.N,D26*%
X135102600Y-131495800D03*
%TO.P,SELECT,6,Pin_6*%
%TO.N,D24*%
X132562600Y-131495800D03*
%TO.P,SELECT,7,Pin_7*%
%TO.N,D22*%
X130022600Y-131495800D03*
%TO.P,SELECT,8,Pin_8*%
%TO.N,+5V*%
X127482600Y-131495800D03*
%TD*%
D14*
%TO.N,GND*%
X145262600Y-131495800D02*
X145262600Y-100177600D01*
X145262600Y-100177600D02*
X161112200Y-84328000D01*
X161112200Y-84328000D02*
X161112200Y-83616800D01*
%TO.N,RX0*%
X111607600Y-35661600D02*
X147929600Y-35661600D01*
X113030000Y-88468200D02*
X110617000Y-86055200D01*
X110617000Y-86055200D02*
X110617000Y-36652200D01*
X110617000Y-36652200D02*
X111607600Y-35661600D01*
X147929600Y-35661600D02*
X152908000Y-40640000D01*
%TO.N,TX1*%
X150571200Y-81508600D02*
X150571200Y-45440600D01*
X150647400Y-45440600D02*
X152908000Y-43180000D01*
X150571200Y-45440600D02*
X150647400Y-45440600D01*
X113030000Y-119049800D02*
X150571200Y-81508600D01*
%TO.N,GND*%
X169000000Y-75729000D02*
X161112200Y-83616800D01*
X169000000Y-60500000D02*
X169000000Y-75729000D01*
%TO.N,+5V*%
X127482600Y-117373400D02*
X156210000Y-88646000D01*
X127482600Y-131495800D02*
X127482600Y-117373400D01*
X156210000Y-85979000D02*
X161112200Y-81076800D01*
X156210000Y-88646000D02*
X156210000Y-85979000D01*
%TO.N,~D9*%
X118364000Y-76403200D02*
X118364000Y-39878000D01*
X113004600Y-81762600D02*
X118364000Y-76403200D01*
X118364000Y-39878000D02*
X120142000Y-38100000D01*
%TO.N,~D7*%
X113030000Y-106248200D02*
X122897000Y-96381200D01*
X122897000Y-96381200D02*
X122897000Y-45935000D01*
X122897000Y-45935000D02*
X120142000Y-43180000D01*
%TO.N,~D2*%
X120142000Y-86436200D02*
X120142000Y-55880000D01*
X113030000Y-93548200D02*
X120142000Y-86436200D01*
%TO.N,~D6*%
X113030000Y-103708200D02*
X122496000Y-94242200D01*
X122496000Y-48074000D02*
X120142000Y-45720000D01*
X122496000Y-94242200D02*
X122496000Y-48074000D01*
%TO.N,~D4*%
X113030000Y-98628200D02*
X121694000Y-89964200D01*
X121694000Y-52352000D02*
X120142000Y-50800000D01*
X121694000Y-89964200D02*
X121694000Y-52352000D01*
%TO.N,~D8*%
X118991000Y-78316200D02*
X113004600Y-84302600D01*
X118991000Y-41791000D02*
X118991000Y-78316200D01*
X120142000Y-40640000D02*
X118991000Y-41791000D01*
%TO.N,~D3*%
X121293000Y-87825200D02*
X121293000Y-54491000D01*
X121293000Y-54491000D02*
X120142000Y-53340000D01*
X113030000Y-96088200D02*
X121293000Y-87825200D01*
%TO.N,~D5*%
X122095000Y-92103200D02*
X122095000Y-50213000D01*
X122095000Y-50213000D02*
X120142000Y-48260000D01*
X113030000Y-101168200D02*
X122095000Y-92103200D01*
%TO.N,D26*%
X132573400Y-134025000D02*
X135102600Y-131495800D01*
X123531000Y-134025000D02*
X132573400Y-134025000D01*
X120650000Y-136906000D02*
X123531000Y-134025000D01*
%TO.N,D24*%
X130434400Y-133624000D02*
X132562600Y-131495800D01*
X118110000Y-136906000D02*
X121392000Y-133624000D01*
X121392000Y-133624000D02*
X130434400Y-133624000D01*
%TO.N,D30*%
X127809000Y-134827000D02*
X136851400Y-134827000D01*
X136851400Y-134827000D02*
X140182600Y-131495800D01*
X125730000Y-136906000D02*
X127809000Y-134827000D01*
%TO.N,D32*%
X138463400Y-135755000D02*
X142722600Y-131495800D01*
X128270000Y-136906000D02*
X129421000Y-135755000D01*
X129421000Y-135755000D02*
X138463400Y-135755000D01*
%TO.N,D28*%
X134712400Y-134426000D02*
X137642600Y-131495800D01*
X123190000Y-136906000D02*
X125670000Y-134426000D01*
X125670000Y-134426000D02*
X134712400Y-134426000D01*
%TO.N,D22*%
X128295400Y-133223000D02*
X130022600Y-131495800D01*
X119253000Y-133223000D02*
X128295400Y-133223000D01*
X115570000Y-136906000D02*
X119253000Y-133223000D01*
%TO.N,RX2*%
X113030000Y-121589800D02*
X111879000Y-122740800D01*
X111879000Y-124606560D02*
X112553240Y-125280800D01*
X151638000Y-87149560D02*
X151638000Y-52070000D01*
X112553240Y-125280800D02*
X113506760Y-125280800D01*
X151638000Y-52070000D02*
X152908000Y-50800000D01*
X113506760Y-125280800D02*
X151638000Y-87149560D01*
X111879000Y-122740800D02*
X111879000Y-124606560D01*
%TO.N,TX3*%
X113030000Y-129209800D02*
X154059000Y-88180800D01*
X154059000Y-54491000D02*
X152908000Y-53340000D01*
X154059000Y-88180800D02*
X154059000Y-54491000D01*
%TO.N,TX0*%
X110879600Y-35068800D02*
X149876800Y-35068800D01*
X113030000Y-91008200D02*
X109821000Y-87799200D01*
X109821000Y-36127400D02*
X110879600Y-35068800D01*
X109821000Y-87799200D02*
X109821000Y-36127400D01*
X149876800Y-35068800D02*
X152908000Y-38100000D01*
%TO.N,RX3*%
X152908000Y-86791800D02*
X152908000Y-55880000D01*
X113030000Y-126669800D02*
X152908000Y-86791800D01*
%TO.N,RX1*%
X111478000Y-129285560D02*
X112553240Y-130360800D01*
X112553240Y-130360800D02*
X113506760Y-130360800D01*
X111478000Y-118061800D02*
X111478000Y-129285560D01*
X113030000Y-116509800D02*
X111478000Y-118061800D01*
X154838400Y-47650400D02*
X152908000Y-45720000D01*
X154838400Y-89029160D02*
X154838400Y-47650400D01*
X113506760Y-130360800D02*
X154838400Y-89029160D01*
%TO.N,TX2*%
X113030000Y-124129800D02*
X151104600Y-86055200D01*
X151104600Y-50063400D02*
X152908000Y-48260000D01*
X151104600Y-86055200D02*
X151104600Y-50063400D01*
%TD*%
M02*
