%TF.GenerationSoftware,KiCad,Pcbnew,9.0.6-1.fc42*%
%TF.CreationDate,2025-11-23T12:28:42-08:00*%
%TF.ProjectId,MainBoard,4d61696e-426f-4617-9264-2e6b69636164,rev?*%
%TF.SameCoordinates,Original*%
%TF.FileFunction,Copper,L4,Bot*%
%TF.FilePolarity,Positive*%
%FSLAX46Y46*%
G04 Gerber Fmt 4.6, Leading zero omitted, Abs format (unit mm)*
G04 Created by KiCad (PCBNEW 9.0.6-1.fc42) date 2025-11-23 12:28:42*
%MOMM*%
%LPD*%
G01*
G04 APERTURE LIST*
G04 Aperture macros list*
%AMRoundRect*
0 Rectangle with rounded corners*
0 $1 Rounding radius*
0 $2 $3 $4 $5 $6 $7 $8 $9 X,Y pos of 4 corners*
0 Add a 4 corners polygon primitive as box body*
4,1,4,$2,$3,$4,$5,$6,$7,$8,$9,$2,$3,0*
0 Add four circle primitives for the rounded corners*
1,1,$1+$1,$2,$3*
1,1,$1+$1,$4,$5*
1,1,$1+$1,$6,$7*
1,1,$1+$1,$8,$9*
0 Add four rect primitives between the rounded corners*
20,1,$1+$1,$2,$3,$4,$5,0*
20,1,$1+$1,$4,$5,$6,$7,0*
20,1,$1+$1,$6,$7,$8,$9,0*
20,1,$1+$1,$8,$9,$2,$3,0*%
G04 Aperture macros list end*
%TA.AperFunction,SMDPad,CuDef*%
%ADD10RoundRect,0.150000X-0.150000X0.587500X-0.150000X-0.587500X0.150000X-0.587500X0.150000X0.587500X0*%
%TD*%
%TA.AperFunction,SMDPad,CuDef*%
%ADD11RoundRect,0.112500X0.187500X0.112500X-0.187500X0.112500X-0.187500X-0.112500X0.187500X-0.112500X0*%
%TD*%
%TA.AperFunction,SMDPad,CuDef*%
%ADD12R,2.000000X2.000000*%
%TD*%
%TA.AperFunction,SMDPad,CuDef*%
%ADD13R,1.000000X1.000000*%
%TD*%
%TA.AperFunction,SMDPad,CuDef*%
%ADD14R,1.500000X0.900000*%
%TD*%
%TA.AperFunction,SMDPad,CuDef*%
%ADD15R,0.900000X1.500000*%
%TD*%
%TA.AperFunction,HeatsinkPad*%
%ADD16C,0.600000*%
%TD*%
%TA.AperFunction,HeatsinkPad*%
%ADD17R,3.900000X3.900000*%
%TD*%
%TA.AperFunction,SMDPad,CuDef*%
%ADD18RoundRect,0.200000X-0.275000X0.200000X-0.275000X-0.200000X0.275000X-0.200000X0.275000X0.200000X0*%
%TD*%
%TA.AperFunction,SMDPad,CuDef*%
%ADD19RoundRect,0.218750X0.256250X-0.218750X0.256250X0.218750X-0.256250X0.218750X-0.256250X-0.218750X0*%
%TD*%
%TA.AperFunction,ComponentPad*%
%ADD20C,0.700000*%
%TD*%
%TA.AperFunction,ComponentPad*%
%ADD21O,1.700000X0.900000*%
%TD*%
%TA.AperFunction,ComponentPad*%
%ADD22O,2.400000X0.900000*%
%TD*%
%TA.AperFunction,SMDPad,CuDef*%
%ADD23RoundRect,0.150000X0.150000X-0.587500X0.150000X0.587500X-0.150000X0.587500X-0.150000X-0.587500X0*%
%TD*%
%TA.AperFunction,SMDPad,CuDef*%
%ADD24RoundRect,0.225000X0.225000X0.250000X-0.225000X0.250000X-0.225000X-0.250000X0.225000X-0.250000X0*%
%TD*%
%TA.AperFunction,SMDPad,CuDef*%
%ADD25R,1.300000X3.400000*%
%TD*%
%TA.AperFunction,SMDPad,CuDef*%
%ADD26RoundRect,0.030000X0.419999X-0.070000X0.419999X0.070000X-0.419999X0.070000X-0.419999X-0.070000X0*%
%TD*%
%TA.AperFunction,SMDPad,CuDef*%
%ADD27RoundRect,0.030000X1.029999X-0.070000X1.029999X0.070000X-1.029999X0.070000X-1.029999X-0.070000X0*%
%TD*%
%TA.AperFunction,ViaPad*%
%ADD28C,0.600000*%
%TD*%
%TA.AperFunction,ViaPad*%
%ADD29C,0.300000*%
%TD*%
%TA.AperFunction,ViaPad*%
%ADD30C,0.500000*%
%TD*%
%TA.AperFunction,ViaPad*%
%ADD31C,0.900000*%
%TD*%
%TA.AperFunction,ViaPad*%
%ADD32C,0.700000*%
%TD*%
%TA.AperFunction,Conductor*%
%ADD33C,0.100000*%
%TD*%
%TA.AperFunction,Conductor*%
%ADD34C,0.200000*%
%TD*%
%TA.AperFunction,Conductor*%
%ADD35C,0.400000*%
%TD*%
%TA.AperFunction,Conductor*%
%ADD36C,0.300000*%
%TD*%
G04 APERTURE END LIST*
D10*
%TO.P,Q3,1,G*%
%TO.N,+5V*%
X82754047Y-98549400D03*
%TO.P,Q3,2,S*%
%TO.N,CONN_21*%
X84654047Y-98549400D03*
%TO.P,Q3,3,D*%
%TO.N,LIPO PWR*%
X83704047Y-100424401D03*
%TD*%
D11*
%TO.P,D4,1,K*%
%TO.N,VBUS*%
X83375000Y-90175000D03*
%TO.P,D4,2,A*%
%TO.N,Net-(D3-A1)*%
X81275000Y-90175000D03*
%TD*%
D12*
%TO.P,+1,1,Pin_1*%
%TO.N,LIPO PWR*%
X87345600Y-104036000D03*
%TD*%
D13*
%TO.P,I2C_DAT1,1,Pin_1*%
%TO.N,CONN_16*%
X87909400Y-91211400D03*
%TD*%
D12*
%TO.P,-1,1,Pin_1*%
%TO.N,LIPO GND*%
X87356431Y-107829532D03*
%TD*%
D13*
%TO.P,I2C_CLK1,1,Pin_1*%
%TO.N,CONN_15*%
X87909400Y-88161400D03*
%TD*%
D14*
%TO.P,U1,1,GND*%
%TO.N,LIPO GND*%
X87480000Y-56640000D03*
%TO.P,U1,2,3V3*%
%TO.N,CONN_18*%
X87480000Y-57910000D03*
%TO.P,U1,3,EN*%
%TO.N,CHIP_PU*%
X87480000Y-59180000D03*
%TO.P,U1,4,IO4*%
%TO.N,DATA0*%
X87480000Y-60450000D03*
%TO.P,U1,5,IO5*%
%TO.N,DATA1*%
X87480000Y-61720000D03*
%TO.P,U1,6,IO6*%
%TO.N,DATA2*%
X87480000Y-62990000D03*
%TO.P,U1,7,IO7*%
%TO.N,DATA8*%
X87480000Y-64260000D03*
%TO.P,U1,8,IO15*%
%TO.N,DATA9*%
X87480000Y-65530000D03*
%TO.P,U1,9,IO16*%
%TO.N,DATA10*%
X87480000Y-66800000D03*
%TO.P,U1,10,IO17*%
%TO.N,DATA11*%
X87480000Y-68070000D03*
%TO.P,U1,11,IO18*%
%TO.N,DATA12*%
X87480000Y-69340000D03*
%TO.P,U1,12,IO8*%
%TO.N,DATA13*%
X87480000Y-70610000D03*
%TO.P,U1,13,USB_D-*%
%TO.N,CONN_2*%
X87480000Y-71880000D03*
%TO.P,U1,14,USB_D+*%
%TO.N,CONN_0*%
X87480000Y-73150000D03*
D15*
%TO.P,U1,15,IO3*%
%TO.N,DATA14*%
X85715000Y-74400000D03*
%TO.P,U1,16,IO46*%
%TO.N,DATA15*%
X84445000Y-74400000D03*
%TO.P,U1,17,IO9*%
%TO.N,CONN_15*%
X83175000Y-74400000D03*
%TO.P,U1,18,IO10*%
%TO.N,BZR*%
X81905000Y-74400000D03*
%TO.P,U1,19,IO11*%
%TO.N,CONN_16*%
X80635000Y-74400000D03*
%TO.P,U1,20,IO12*%
%TO.N,HATS_ENABLE*%
X79365000Y-74400000D03*
%TO.P,U1,21,IO13*%
%TO.N,RET*%
X78095000Y-74400000D03*
%TO.P,U1,22,IO14*%
%TO.N,INDEX4*%
X76825000Y-74400000D03*
%TO.P,U1,23,IO21*%
%TO.N,INDEX3*%
X75555000Y-74400000D03*
%TO.P,U1,24,IO47*%
%TO.N,INDEX2*%
X74285000Y-74400000D03*
%TO.P,U1,25,IO48*%
%TO.N,INDEX1*%
X73015000Y-74400000D03*
%TO.P,U1,26,IO45*%
%TO.N,INDEX0*%
X71745000Y-74400000D03*
D14*
%TO.P,U1,27,IO0*%
%TO.N,GPIO0*%
X69980000Y-73150000D03*
%TO.P,U1,28,IO35*%
%TO.N,CONN_6*%
X69980000Y-71880000D03*
%TO.P,U1,29,IO36*%
%TO.N,CONN_7*%
X69980000Y-70610000D03*
%TO.P,U1,30,IO37*%
%TO.N,CONN_10*%
X69980000Y-69340000D03*
%TO.P,U1,31,IO38*%
%TO.N,CONN_11*%
X69980000Y-68070000D03*
%TO.P,U1,32,IO39*%
%TO.N,CONN_14*%
X69980000Y-66800000D03*
%TO.P,U1,33,IO40*%
%TO.N,CONN_28*%
X69980000Y-65530000D03*
%TO.P,U1,34,IO41*%
%TO.N,CONN_29*%
X69980000Y-64260000D03*
%TO.P,U1,35,IO42*%
%TO.N,DATA7*%
X69980000Y-62990000D03*
%TO.P,U1,36,RXD0*%
%TO.N,DATA6*%
X69980000Y-61720000D03*
%TO.P,U1,37,TXD0*%
%TO.N,DATA5*%
X69980000Y-60450000D03*
%TO.P,U1,38,IO2*%
%TO.N,DATA4*%
X69980000Y-59180000D03*
%TO.P,U1,39,IO1*%
%TO.N,DATA3*%
X69980000Y-57910000D03*
%TO.P,U1,40,GND*%
%TO.N,LIPO GND*%
X69980000Y-56640000D03*
D16*
%TO.P,U1,41,GND*%
X81630000Y-65060000D03*
X81630000Y-63660000D03*
X80930000Y-65760000D03*
X80930000Y-64360000D03*
X80930000Y-62960000D03*
X80230000Y-65060000D03*
D17*
X80230000Y-64360000D03*
D16*
X80230000Y-63660000D03*
X79530000Y-65760000D03*
X79530000Y-64360000D03*
X79530000Y-62960000D03*
X78830000Y-65060000D03*
X78830000Y-63660000D03*
%TD*%
D18*
%TO.P,R13,1*%
%TO.N,LIPO PWR*%
X88050000Y-99025000D03*
%TO.P,R13,2*%
%TO.N,LIPO GND*%
X88050000Y-100675000D03*
%TD*%
D19*
%TO.P,D3,1,A1*%
%TO.N,Net-(D3-A1)*%
X79850000Y-90150000D03*
%TO.P,D3,2,A2*%
%TO.N,LIPO GND*%
X79850000Y-88574998D03*
%TD*%
D20*
%TO.P,J3,A1,GND*%
%TO.N,LIPO GND*%
X72752964Y-94700000D03*
%TO.P,J3,A4,VBUS*%
%TO.N,Net-(D3-A1)*%
X72752964Y-93850000D03*
%TO.P,J3,A5,CC1*%
%TO.N,Net-(J3-CC1)*%
X72752964Y-93000000D03*
%TO.P,J3,A6,D+*%
%TO.N,CONN_0*%
X72752964Y-92150000D03*
%TO.P,J3,A7,D-*%
%TO.N,CONN_2*%
X72752964Y-91300000D03*
%TO.P,J3,A8,SBU1*%
%TO.N,unconnected-(J3-SBU1-PadA8)*%
X72752964Y-90450000D03*
%TO.P,J3,A9,VBUS*%
%TO.N,Net-(D3-A1)*%
X72752964Y-89600000D03*
%TO.P,J3,A12,GND*%
%TO.N,LIPO GND*%
X72752964Y-88750000D03*
%TO.P,J3,B1,GND*%
X71402964Y-88750000D03*
%TO.P,J3,B4,VBUS*%
%TO.N,Net-(D3-A1)*%
X71402964Y-89600000D03*
%TO.P,J3,B5,CC2*%
%TO.N,Net-(J3-CC2)*%
X71402964Y-90450000D03*
%TO.P,J3,B6,D+*%
%TO.N,CONN_0*%
X71402964Y-91300000D03*
%TO.P,J3,B7,D-*%
%TO.N,CONN_2*%
X71402964Y-92150000D03*
%TO.P,J3,B8,SBU2*%
%TO.N,unconnected-(J3-SBU2-PadB8)*%
X71402964Y-93000000D03*
%TO.P,J3,B9,VBUS*%
%TO.N,Net-(D3-A1)*%
X71402964Y-93850000D03*
%TO.P,J3,B12,GND*%
%TO.N,LIPO GND*%
X71402964Y-94700000D03*
D21*
%TO.P,J3,S1,SHIELD*%
X68392964Y-96050000D03*
D22*
X71772964Y-96050000D03*
D21*
X68392964Y-87400000D03*
D22*
X71772964Y-87400000D03*
%TD*%
D23*
%TO.P,Q2,1,G*%
%TO.N,LIPO PWR*%
X86900000Y-96375001D03*
%TO.P,Q2,2,S*%
%TO.N,+5V*%
X85000000Y-96375001D03*
%TO.P,Q2,3,D*%
%TO.N,VBUS*%
X85950000Y-94500000D03*
%TD*%
D24*
%TO.P,C12,1*%
%TO.N,VBUS*%
X82975000Y-88400000D03*
%TO.P,C12,2*%
%TO.N,LIPO GND*%
X81425000Y-88400000D03*
%TD*%
D25*
%TO.P,BZ1,1,+*%
%TO.N,BZR*%
X67975001Y-104050000D03*
%TO.P,BZ1,2,-*%
%TO.N,LIPO GND*%
X76674999Y-104050000D03*
%TD*%
D26*
%TO.P,J2,1,Pin_1*%
%TO.N,CONN_15*%
X65050000Y-72500000D03*
%TO.P,J2,2,Pin_2*%
%TO.N,CONN_16*%
X65050000Y-72100000D03*
%TO.P,J2,3,Pin_3*%
%TO.N,CONN_17*%
X65050000Y-71700000D03*
%TO.P,J2,4,Pin_4*%
%TO.N,CONN_18*%
X65050000Y-71300000D03*
%TO.P,J2,5,Pin_5*%
X65050000Y-70900000D03*
%TO.P,J2,6,Pin_6*%
X65050000Y-70500000D03*
%TO.P,J2,7,Pin_7*%
%TO.N,CONN_21*%
X65050000Y-70100000D03*
%TO.P,J2,8,Pin_8*%
X65050000Y-69700000D03*
%TO.P,J2,9,Pin_9*%
X65050000Y-69300000D03*
%TO.P,J2,10,Pin_10*%
X65050000Y-68900000D03*
%TO.P,J2,11,Pin_11*%
X65050000Y-68500000D03*
%TO.P,J2,12,Pin_12*%
X65050000Y-68100000D03*
%TO.P,J2,13,Pin_13*%
%TO.N,CONN_27*%
X65050000Y-67700000D03*
%TO.P,J2,14,Pin_14*%
%TO.N,CONN_28*%
X65050000Y-67300000D03*
%TO.P,J2,15,Pin_15*%
%TO.N,CONN_29*%
X65050000Y-66900000D03*
%TO.P,J2,16,Pin_16*%
%TO.N,CONN_0*%
X67950000Y-72300000D03*
%TO.P,J2,17,Pin_17*%
%TO.N,CONN_1*%
X67950000Y-71900000D03*
%TO.P,J2,18,Pin_18*%
%TO.N,CONN_2*%
X67950000Y-71500000D03*
%TO.P,J2,19,Pin_19*%
%TO.N,CONN_3*%
X67950000Y-71100000D03*
%TO.P,J2,20,Pin_20*%
%TO.N,BZR*%
X67950000Y-70700000D03*
%TO.P,J2,21,Pin_21*%
%TO.N,CONN_5*%
X67950000Y-70300000D03*
%TO.P,J2,22,Pin_22*%
%TO.N,CONN_6*%
X67950000Y-69900000D03*
%TO.P,J2,23,Pin_23*%
%TO.N,CONN_7*%
X67950000Y-69500000D03*
%TO.P,J2,24,Pin_24*%
%TO.N,CONN_8*%
X67950000Y-69100000D03*
%TO.P,J2,25,Pin_25*%
%TO.N,CONN_9*%
X67950000Y-68700000D03*
%TO.P,J2,26,Pin_26*%
%TO.N,CONN_10*%
X67950000Y-68300000D03*
%TO.P,J2,27,Pin_27*%
%TO.N,CONN_11*%
X67950000Y-67900000D03*
%TO.P,J2,28,Pin_28*%
%TO.N,CONN_12*%
X67950000Y-67500000D03*
%TO.P,J2,29,Pin_29*%
%TO.N,CONN_13*%
X67950000Y-67100000D03*
%TO.P,J2,30,Pin_30*%
%TO.N,CONN_14*%
X67950000Y-66700000D03*
D27*
%TO.P,J2,31,Pin_31*%
%TO.N,LIPO GND*%
X66500000Y-74850000D03*
%TO.P,J2,32,Pin_32*%
X66500000Y-64350000D03*
%TD*%
D28*
%TO.N,CONN_29*%
X64512800Y-100050000D03*
X76454047Y-95665953D03*
%TO.N,CONN_7*%
X69220000Y-103040000D03*
X83054047Y-95484047D03*
D29*
%TO.N,CONN_2*%
X71825000Y-68700000D03*
X68610834Y-71464482D03*
D28*
X72803964Y-96960000D03*
%TO.N,CONN_10*%
X69190000Y-102100000D03*
X81954047Y-95494047D03*
%TO.N,CONN_14*%
X68710000Y-99120000D03*
X79754047Y-95575953D03*
D30*
%TO.N,BZR*%
X68250000Y-104850000D03*
D28*
%TO.N,CONN_15*%
X69050000Y-108000000D03*
X87100000Y-93560000D03*
X77000000Y-108000000D03*
%TO.N,CONN_11*%
X72130000Y-97490000D03*
X75504047Y-95250000D03*
%TO.N,CONN_18*%
X84234000Y-87296000D03*
D31*
X77139800Y-60807600D03*
D28*
X82710000Y-87240000D03*
X82625000Y-58075000D03*
D31*
X77139800Y-59105800D03*
D28*
X77680000Y-87160000D03*
X64740000Y-105480000D03*
X68760916Y-66172535D03*
X76150000Y-87050000D03*
X80854047Y-94994047D03*
X85759000Y-87371000D03*
X67703700Y-61810900D03*
X66720000Y-69690000D03*
D29*
%TO.N,GPIO0*%
X71325000Y-64725000D03*
X68700000Y-63400000D03*
X66550000Y-61325000D03*
D28*
%TO.N,CHIP_PU*%
X72615531Y-61601015D03*
X84963000Y-58420000D03*
%TO.N,CONN_6*%
X84154047Y-95405953D03*
X69125003Y-104670000D03*
D29*
%TO.N,CONN_0*%
X71750000Y-69620000D03*
X68775000Y-72100000D03*
%TO.N,DATA9*%
X83125000Y-68381250D03*
%TO.N,DATA13*%
X83125000Y-70850000D03*
%TO.N,DATA10*%
X83125000Y-68998438D03*
%TO.N,DATA7*%
X74178727Y-70291272D03*
%TO.N,DATA5*%
X74312500Y-69125000D03*
%TO.N,DATA6*%
X73725000Y-69125000D03*
%TO.N,DATA12*%
X83125000Y-70232813D03*
%TO.N,DATA2*%
X83125000Y-67146875D03*
%TO.N,DATA15*%
X82872800Y-73025000D03*
%TO.N,DATA14*%
X82500000Y-72600000D03*
%TO.N,DATA0*%
X83125000Y-65912500D03*
%TO.N,DATA4*%
X74900000Y-69125000D03*
%TO.N,DATA3*%
X75487500Y-69125000D03*
%TO.N,DATA1*%
X83125000Y-66529688D03*
%TO.N,DATA11*%
X83125000Y-69615625D03*
%TO.N,DATA8*%
X83125000Y-67764063D03*
%TO.N,RET*%
X80668914Y-73302001D03*
D28*
%TO.N,HATS_ENABLE*%
X85610000Y-72470000D03*
X68650000Y-72950000D03*
X79362600Y-74402000D03*
D29*
%TO.N,INDEX1*%
X72824994Y-72500000D03*
%TO.N,INDEX4*%
X74325003Y-72500000D03*
%TO.N,INDEX0*%
X72324991Y-72500000D03*
%TO.N,INDEX2*%
X73324997Y-72500000D03*
%TO.N,INDEX3*%
X73825000Y-72500000D03*
D28*
%TO.N,CONN_28*%
X64530000Y-101430000D03*
X77554047Y-95655953D03*
%TO.N,CONN_16*%
X87910000Y-93560000D03*
X77205000Y-108795000D03*
X68860000Y-108790000D03*
D29*
%TO.N,LIPO GND*%
X86300000Y-70250000D03*
D31*
X77241400Y-57353200D03*
D28*
X78654047Y-91675953D03*
X68470000Y-55890000D03*
X76000000Y-57500000D03*
X79600000Y-87220000D03*
X74550000Y-106920000D03*
X80890000Y-87160000D03*
X88057419Y-101680000D03*
X72350000Y-71125000D03*
X66760000Y-68700000D03*
X74489100Y-65739100D03*
X65380000Y-97420000D03*
X67919600Y-63677800D03*
D29*
X80000000Y-71010000D03*
D28*
X81685000Y-87265000D03*
X64670000Y-63990000D03*
D32*
X68503800Y-62128400D03*
D31*
X64700000Y-98339999D03*
D28*
X67730000Y-88750000D03*
X84505800Y-60223400D03*
X84175600Y-55803800D03*
X74142600Y-64922400D03*
X65989200Y-58801000D03*
D30*
X68420000Y-107100000D03*
D28*
X78675000Y-102925000D03*
D29*
X85070000Y-69090000D03*
D28*
X78650000Y-89050000D03*
X84475000Y-63225000D03*
D29*
X67290000Y-97550000D03*
D28*
X74380000Y-87180000D03*
X67360000Y-89680000D03*
D31*
X84150000Y-106850000D03*
D30*
X66940000Y-75210000D03*
D28*
X74880000Y-91470000D03*
X80220000Y-55970000D03*
X81864200Y-60553600D03*
X66660000Y-92420000D03*
X86156000Y-57734200D03*
X84937600Y-55905400D03*
X85090000Y-93390000D03*
X76510000Y-62730000D03*
%TO.N,CONN_21*%
X66740000Y-67770000D03*
X64520000Y-102250000D03*
%TD*%
D33*
%TO.N,CONN_29*%
X69538600Y-64701000D02*
X67249000Y-64701000D01*
D34*
X76454047Y-95665953D02*
X74002000Y-98118000D01*
X74002000Y-98118000D02*
X66444800Y-98118000D01*
D33*
X67249000Y-64701000D02*
X65050000Y-66900000D01*
X69977600Y-64262000D02*
X69538600Y-64701000D01*
D34*
X66444800Y-98118000D02*
X64512800Y-100050000D01*
%TO.N,CONN_7*%
X70040000Y-103040000D02*
X71461000Y-101619000D01*
D33*
X69977600Y-70612000D02*
X69677600Y-70612000D01*
X69677600Y-70612000D02*
X68565600Y-69500000D01*
D34*
X76919094Y-101619000D02*
X83054047Y-95484047D01*
D33*
X68565600Y-69500000D02*
X67950000Y-69500000D01*
D34*
X71461000Y-101619000D02*
X76919094Y-101619000D01*
X69220000Y-103040000D02*
X70040000Y-103040000D01*
%TO.N,CONN_2*%
X73403964Y-96360000D02*
X72803964Y-96960000D01*
X71832310Y-92150000D02*
X72682310Y-91300000D01*
X72682310Y-91300000D02*
X72752964Y-91300000D01*
X71402964Y-92150000D02*
X71832310Y-92150000D01*
D33*
X68585518Y-71464482D02*
X68550000Y-71500000D01*
X87477600Y-71882000D02*
X87020600Y-71425000D01*
D34*
X73403964Y-91456026D02*
X73403964Y-96360000D01*
D33*
X74550000Y-71425000D02*
X71825000Y-68700000D01*
X87020600Y-71425000D02*
X74550000Y-71425000D01*
X68550000Y-71500000D02*
X67950000Y-71500000D01*
X68610834Y-71464482D02*
X68585518Y-71464482D01*
D34*
X73403964Y-91456026D02*
X73247938Y-91300000D01*
X73247938Y-91300000D02*
X72752964Y-91300000D01*
D33*
%TO.N,CONN_10*%
X69977600Y-69342000D02*
X69677600Y-69342000D01*
X68635600Y-68300000D02*
X67950000Y-68300000D01*
D34*
X81954047Y-96016947D02*
X76790497Y-101180497D01*
X69190000Y-102100000D02*
X70109503Y-101180497D01*
X81954047Y-95494047D02*
X81954047Y-96016947D01*
D33*
X69677600Y-69342000D02*
X68635600Y-68300000D01*
D34*
X70109503Y-101180497D02*
X76790497Y-101180497D01*
%TO.N,CONN_14*%
X79754047Y-95575953D02*
X76210000Y-99120000D01*
D33*
X69977600Y-66802000D02*
X69924600Y-66749000D01*
X67999000Y-66749000D02*
X67950000Y-66700000D01*
X69924600Y-66749000D02*
X67999000Y-66749000D01*
D34*
X76210000Y-99120000D02*
X68710000Y-99120000D01*
D33*
%TO.N,BZR*%
X68614775Y-73853000D02*
X67249001Y-72487226D01*
X67249001Y-72487226D02*
X67249001Y-70912774D01*
X67249001Y-70912774D02*
X67461775Y-70700000D01*
X67461775Y-70700000D02*
X67950000Y-70700000D01*
X80449600Y-72099000D02*
X72131000Y-72099000D01*
X81902600Y-74402000D02*
X81902600Y-73552000D01*
X70978600Y-73251400D02*
X70978600Y-73753400D01*
X81902600Y-73552000D02*
X80449600Y-72099000D01*
X72131000Y-72099000D02*
X70978600Y-73251400D01*
X70879000Y-73853000D02*
X68614775Y-73853000D01*
X70978600Y-73753400D02*
X70879000Y-73853000D01*
D34*
%TO.N,CONN_15*%
X87909400Y-88161400D02*
X87100000Y-88970800D01*
D33*
X65050000Y-75300000D02*
X65050000Y-72500000D01*
X83172600Y-75452400D02*
X82901000Y-75724000D01*
X65474000Y-75724000D02*
X65050000Y-75300000D01*
D34*
X87100000Y-88970800D02*
X87100000Y-93560000D01*
D33*
X82901000Y-75724000D02*
X65474000Y-75724000D01*
X83172600Y-74402000D02*
X83172600Y-75452400D01*
D34*
X69050000Y-108000000D02*
X77000000Y-108000000D01*
%TO.N,CONN_11*%
X72201000Y-97561000D02*
X72130000Y-97490000D01*
D33*
X69977600Y-68072000D02*
X69805600Y-67900000D01*
X69805600Y-67900000D02*
X67950000Y-67900000D01*
D34*
X73193047Y-97561000D02*
X72201000Y-97561000D01*
X75504047Y-95250000D02*
X73193047Y-97561000D01*
%TO.N,CONN_18*%
X66000000Y-70500000D02*
X66000000Y-71290000D01*
X66000000Y-71290000D02*
X66010000Y-71300000D01*
X65050000Y-70500000D02*
X66000000Y-70500000D01*
X66720000Y-70590000D02*
X66010000Y-71300000D01*
X85728142Y-58335200D02*
X85211943Y-57819000D01*
X87054400Y-58335200D02*
X85728142Y-58335200D01*
X65050000Y-71300000D02*
X66010000Y-71300000D01*
X85211943Y-57819000D02*
X82881000Y-57819000D01*
X87477600Y-57912000D02*
X87054400Y-58335200D01*
X65050000Y-70900000D02*
X66000000Y-70900000D01*
X82881000Y-57819000D02*
X82625000Y-58075000D01*
X66720000Y-69690000D02*
X66720000Y-70590000D01*
D33*
%TO.N,GPIO0*%
X68700000Y-63400000D02*
X68513568Y-63400000D01*
X68513568Y-63400000D02*
X66550000Y-61436432D01*
X70548000Y-73152000D02*
X71325000Y-72375000D01*
X69977600Y-73152000D02*
X70548000Y-73152000D01*
X71325000Y-72375000D02*
X71325000Y-64725000D01*
X66550000Y-61436432D02*
X66550000Y-61325000D01*
D34*
%TO.N,CHIP_PU*%
X83598600Y-62111000D02*
X86527600Y-59182000D01*
X87477600Y-59182000D02*
X85725000Y-59182000D01*
X72615531Y-61601015D02*
X73125516Y-62111000D01*
X73125516Y-62111000D02*
X83598600Y-62111000D01*
X85725000Y-59182000D02*
X84963000Y-58420000D01*
X86527600Y-59182000D02*
X87477600Y-59182000D01*
%TO.N,CONN_6*%
X77540000Y-102020000D02*
X84154047Y-95405953D01*
X71760000Y-102020000D02*
X77540000Y-102020000D01*
X69125003Y-104670000D02*
X69125003Y-104654997D01*
D33*
X68438225Y-69900000D02*
X67950000Y-69900000D01*
X68650999Y-70112774D02*
X68438225Y-69900000D01*
X68650999Y-70875999D02*
X68650999Y-70112774D01*
X69657000Y-71882000D02*
X68650999Y-70875999D01*
D34*
X69125003Y-104654997D02*
X71760000Y-102020000D01*
D33*
X69977600Y-71882000D02*
X69657000Y-71882000D01*
%TO.N,CONN_0*%
X72195000Y-69620000D02*
X74300000Y-71725000D01*
X74300000Y-71725000D02*
X85750600Y-71725000D01*
X85750600Y-71725000D02*
X87177600Y-73152000D01*
X87177600Y-73152000D02*
X87477600Y-73152000D01*
X68575000Y-72300000D02*
X67950000Y-72300000D01*
X71750000Y-69620000D02*
X72195000Y-69620000D01*
X68775000Y-72100000D02*
X68575000Y-72300000D01*
D34*
%TO.N,DATA9*%
X83125000Y-68381250D02*
X83678350Y-68381250D01*
X86527600Y-65532000D02*
X87477600Y-65532000D01*
X83678350Y-68381250D02*
X86527600Y-65532000D01*
%TO.N,DATA13*%
X87239600Y-70850000D02*
X87477600Y-70612000D01*
X83125000Y-70850000D02*
X87239600Y-70850000D01*
%TO.N,DATA10*%
X83125000Y-68998438D02*
X84331162Y-68998438D01*
X86527600Y-66802000D02*
X87477600Y-66802000D01*
X84331162Y-68998438D02*
X86527600Y-66802000D01*
D33*
%TO.N,DATA7*%
X70409600Y-62992000D02*
X71900000Y-64482400D01*
X69977600Y-62992000D02*
X70409600Y-62992000D01*
X71900000Y-68012545D02*
X74178727Y-70291272D01*
X71900000Y-64482400D02*
X71900000Y-68012545D01*
%TO.N,DATA5*%
X70277600Y-60452000D02*
X69977600Y-60452000D01*
X72502000Y-63388722D02*
X70978600Y-61865322D01*
X74312500Y-69125000D02*
X74292100Y-69125000D01*
X70978600Y-61153000D02*
X70277600Y-60452000D01*
X70978600Y-61865322D02*
X70978600Y-61153000D01*
X74292100Y-69125000D02*
X72502000Y-67334900D01*
X72502000Y-67334900D02*
X72502000Y-63388722D01*
%TO.N,DATA6*%
X72201000Y-63513400D02*
X70409600Y-61722000D01*
X73725000Y-69125000D02*
X72201000Y-67601000D01*
X70409600Y-61722000D02*
X69977600Y-61722000D01*
X72201000Y-67601000D02*
X72201000Y-63513400D01*
D34*
%TO.N,DATA12*%
X86527600Y-69342000D02*
X87477600Y-69342000D01*
X85636787Y-70232813D02*
X86527600Y-69342000D01*
X83125000Y-70232813D02*
X85636787Y-70232813D01*
%TO.N,DATA2*%
X83125000Y-67146875D02*
X83145624Y-67146875D01*
X87034600Y-62992000D02*
X87477600Y-62992000D01*
X83145624Y-67146875D02*
X86426600Y-63865899D01*
X86426600Y-63600000D02*
X87034600Y-62992000D01*
X86426600Y-63865899D02*
X86426600Y-63600000D01*
%TO.N,DATA15*%
X84442600Y-73452000D02*
X84041600Y-73051000D01*
X84041600Y-73051000D02*
X82872800Y-73051000D01*
X84442600Y-74402000D02*
X84442600Y-73452000D01*
%TO.N,DATA14*%
X82526000Y-72574000D02*
X82500000Y-72600000D01*
X84834600Y-72574000D02*
X82526000Y-72574000D01*
X85712600Y-74402000D02*
X85712600Y-73452000D01*
X85712600Y-73452000D02*
X84834600Y-72574000D01*
%TO.N,DATA0*%
X86527600Y-60452000D02*
X87477600Y-60452000D01*
X83125000Y-65912500D02*
X85624600Y-63412900D01*
X85624600Y-61355000D02*
X86527600Y-60452000D01*
X85624600Y-63412900D02*
X85624600Y-61355000D01*
D33*
%TO.N,DATA4*%
X74900000Y-69125000D02*
X72803000Y-67028000D01*
X72803000Y-67028000D02*
X72803000Y-63264044D01*
X70409600Y-59182000D02*
X69977600Y-59182000D01*
X71279600Y-60052000D02*
X70409600Y-59182000D01*
X71279600Y-61740644D02*
X71279600Y-60052000D01*
X72803000Y-63264044D02*
X71279600Y-61740644D01*
%TO.N,DATA3*%
X73104000Y-66754000D02*
X73104000Y-63139366D01*
X71580600Y-59215000D02*
X70277600Y-57912000D01*
X73104000Y-63139366D02*
X71580600Y-61615966D01*
X75475000Y-69125000D02*
X73104000Y-66754000D01*
X71580600Y-61615966D02*
X71580600Y-59215000D01*
X75487500Y-69125000D02*
X75475000Y-69125000D01*
X70277600Y-57912000D02*
X69977600Y-57912000D01*
D34*
%TO.N,DATA1*%
X86945600Y-61722000D02*
X87477600Y-61722000D01*
X86025600Y-62642000D02*
X86945600Y-61722000D01*
X83125000Y-66529688D02*
X83145623Y-66529688D01*
X83145623Y-66529688D02*
X86025600Y-63649711D01*
X86025600Y-63649711D02*
X86025600Y-62642000D01*
%TO.N,DATA11*%
X86945600Y-68072000D02*
X87477600Y-68072000D01*
X83125000Y-69615625D02*
X85401975Y-69615625D01*
X85401975Y-69615625D02*
X86945600Y-68072000D01*
%TO.N,DATA8*%
X86945600Y-64262000D02*
X87477600Y-64262000D01*
X83443537Y-67764063D02*
X86945600Y-64262000D01*
X83125000Y-67764063D02*
X83443537Y-67764063D01*
D33*
%TO.N,RET*%
X80668914Y-73302001D02*
X78234999Y-73302001D01*
X78092600Y-73444400D02*
X78092600Y-74402000D01*
X78234999Y-73302001D02*
X78092600Y-73444400D01*
%TO.N,INDEX1*%
X72824994Y-74214394D02*
X73012600Y-74402000D01*
X72824994Y-72500000D02*
X72824994Y-74214394D01*
%TO.N,INDEX4*%
X74325003Y-72500000D02*
X75352600Y-72500000D01*
X76822600Y-73970000D02*
X76822600Y-74402000D01*
X75352600Y-72500000D02*
X76822600Y-73970000D01*
D34*
%TO.N,Net-(D3-A1)*%
X77300000Y-89600000D02*
X73625000Y-89600000D01*
X73625000Y-89600000D02*
X72050000Y-89600000D01*
X71332310Y-89600000D02*
X70751964Y-90180346D01*
X72050000Y-89600000D02*
X71332310Y-89600000D01*
X72050000Y-89600000D02*
X71402964Y-89600000D01*
X71332310Y-93850000D02*
X71402964Y-93850000D01*
X70751964Y-93269654D02*
X70953655Y-93471345D01*
X70953655Y-93471345D02*
X71332310Y-93850000D01*
X79850000Y-90150000D02*
X77850000Y-90150000D01*
X79850000Y-90150000D02*
X81250000Y-90150000D01*
X77850000Y-90150000D02*
X77300000Y-89600000D01*
X73625000Y-89600000D02*
X72752964Y-89600000D01*
X70751964Y-90180346D02*
X70751964Y-93269654D01*
X81250000Y-90150000D02*
X81275000Y-90175000D01*
X71332310Y-93850000D02*
X72752964Y-93850000D01*
D33*
%TO.N,INDEX0*%
X71742600Y-73082391D02*
X71742600Y-74402000D01*
X72324991Y-72500000D02*
X71742600Y-73082391D01*
%TO.N,INDEX2*%
X74282600Y-73927000D02*
X74282600Y-74402000D01*
X74282600Y-74102000D02*
X74282600Y-74402000D01*
X73324997Y-73144397D02*
X74282600Y-74102000D01*
X73324997Y-72500000D02*
X73324997Y-73144397D01*
%TO.N,INDEX3*%
X73825000Y-72575000D02*
X74651000Y-73401000D01*
X75552600Y-73970000D02*
X75552600Y-74402000D01*
X73825000Y-72500000D02*
X73825000Y-72575000D01*
X74983600Y-73401000D02*
X75552600Y-73970000D01*
X74651000Y-73401000D02*
X74983600Y-73401000D01*
D34*
%TO.N,CONN_28*%
X77554047Y-95655953D02*
X74691000Y-98519000D01*
D33*
X67306225Y-65532000D02*
X65538225Y-67300000D01*
D34*
X74691000Y-98519000D02*
X67441000Y-98519000D01*
D33*
X69977600Y-65532000D02*
X67306225Y-65532000D01*
X65538225Y-67300000D02*
X65050000Y-67300000D01*
D34*
X67441000Y-98519000D02*
X64530000Y-101430000D01*
%TO.N,CONN_16*%
X68860000Y-108790000D02*
X77200000Y-108790000D01*
D33*
X65538225Y-72100000D02*
X65050000Y-72100000D01*
D34*
X77200000Y-108790000D02*
X77205000Y-108795000D01*
X87909400Y-91211400D02*
X87910000Y-91212000D01*
D33*
X80632600Y-74402000D02*
X80632600Y-74834000D01*
D34*
X87910000Y-91212000D02*
X87910000Y-93560000D01*
D33*
X80632600Y-74834000D02*
X80043600Y-75423000D01*
X68861225Y-75423000D02*
X65538225Y-72100000D01*
X80043600Y-75423000D02*
X68861225Y-75423000D01*
D35*
%TO.N,LIPO PWR*%
X86900000Y-103590400D02*
X87345600Y-104036000D01*
X86900000Y-97900000D02*
X86900000Y-103590400D01*
D34*
X88050000Y-99025000D02*
X88025000Y-99025000D01*
D35*
X87315646Y-104036000D02*
X83704047Y-100424401D01*
X87345600Y-104036000D02*
X87315646Y-104036000D01*
D34*
X88025000Y-99025000D02*
X86900000Y-97900000D01*
D35*
X86900000Y-96375001D02*
X86900000Y-97900000D01*
D33*
%TO.N,LIPO GND*%
X71517000Y-56642000D02*
X72375000Y-57500000D01*
D35*
X87356431Y-107829532D02*
X85129532Y-107829532D01*
D34*
X88050000Y-100675000D02*
X88050000Y-101672581D01*
X71402964Y-94700000D02*
X71402964Y-95680000D01*
X71402964Y-95680000D02*
X71772964Y-96050000D01*
X66500000Y-74850000D02*
X66580000Y-74850000D01*
X80220000Y-55970000D02*
X80892000Y-56642000D01*
D33*
X72375000Y-57500000D02*
X76000000Y-57500000D01*
D34*
X81425000Y-87525000D02*
X81425000Y-88400000D01*
X71772964Y-87400000D02*
X74160000Y-87400000D01*
X79850000Y-88574998D02*
X79125002Y-88574998D01*
X76674999Y-104050000D02*
X77550000Y-104050000D01*
D33*
X69977600Y-56642000D02*
X71517000Y-56642000D01*
D34*
X71772964Y-96050000D02*
X68392964Y-96050000D01*
X66580000Y-74850000D02*
X66940000Y-75210000D01*
X71402964Y-94700000D02*
X72752964Y-94700000D01*
X68392964Y-96050000D02*
X66750000Y-96050000D01*
X64776000Y-64350000D02*
X64776000Y-64096000D01*
X66750000Y-96050000D02*
X65380000Y-97420000D01*
X68392964Y-87400000D02*
X71772964Y-87400000D01*
D35*
X85129532Y-107829532D02*
X84150000Y-106850000D01*
D34*
X79125002Y-88574998D02*
X78650000Y-89050000D01*
X71772964Y-87400000D02*
X71772964Y-88380000D01*
X71772964Y-88380000D02*
X71402964Y-88750000D01*
X64776000Y-64096000D02*
X64670000Y-63990000D01*
X74160000Y-87400000D02*
X74380000Y-87180000D01*
X72752964Y-88750000D02*
X71402964Y-88750000D01*
X77550000Y-104050000D02*
X78675000Y-102925000D01*
X64776000Y-64350000D02*
X66500000Y-64350000D01*
X80892000Y-56642000D02*
X87477600Y-56642000D01*
X88050000Y-101672581D02*
X88057419Y-101680000D01*
X81685000Y-87265000D02*
X81425000Y-87525000D01*
%TO.N,VBUS*%
X85950000Y-94500000D02*
X85950000Y-92750000D01*
X82975000Y-89775000D02*
X83375000Y-90175000D01*
X82975000Y-88400000D02*
X82975000Y-89775000D01*
X85950000Y-92750000D02*
X83375000Y-90175000D01*
%TO.N,+5V*%
X82754047Y-98549400D02*
X84928446Y-96375001D01*
X84928446Y-96375001D02*
X85000000Y-96375001D01*
%TO.N,CONN_21*%
X64520000Y-103546999D02*
X67024001Y-106051000D01*
X67024001Y-106051000D02*
X77469000Y-106051000D01*
X65050000Y-68500000D02*
X66010000Y-68500000D01*
X65050000Y-69700000D02*
X66000000Y-69700000D01*
X80280000Y-102468980D02*
X84199580Y-98549400D01*
X65050000Y-68100000D02*
X66000000Y-68100000D01*
X84199580Y-98549400D02*
X84654047Y-98549400D01*
D36*
X66460000Y-68050000D02*
X66740000Y-67770000D01*
X65990000Y-70050000D02*
X65990000Y-68050000D01*
D34*
X66010000Y-68500000D02*
X66740000Y-67770000D01*
X65050000Y-69300000D02*
X66000000Y-69300000D01*
X66000000Y-68100000D02*
X66010000Y-68090000D01*
X65050000Y-70100000D02*
X66000000Y-70100000D01*
D36*
X65990000Y-68050000D02*
X66460000Y-68050000D01*
D34*
X77469000Y-106051000D02*
X80280000Y-103240000D01*
X80280000Y-103240000D02*
X80280000Y-102468980D01*
X64520000Y-102250000D02*
X64520000Y-103546999D01*
X65050000Y-68900000D02*
X66000000Y-68900000D01*
%TD*%
M02*
