%TF.GenerationSoftware,KiCad,Pcbnew,9.0.6-1.fc42*%
%TF.CreationDate,2025-11-24T11:52:54-08:00*%
%TF.ProjectId,MainBoard,4d61696e-426f-4617-9264-2e6b69636164,rev?*%
%TF.SameCoordinates,Original*%
%TF.FileFunction,Copper,L2,Inr*%
%TF.FilePolarity,Positive*%
%FSLAX46Y46*%
G04 Gerber Fmt 4.6, Leading zero omitted, Abs format (unit mm)*
G04 Created by KiCad (PCBNEW 9.0.6-1.fc42) date 2025-11-24 11:52:54*
%MOMM*%
%LPD*%
G01*
G04 APERTURE LIST*
%TA.AperFunction,HeatsinkPad*%
%ADD10C,0.600000*%
%TD*%
%TA.AperFunction,ComponentPad*%
%ADD11C,0.700000*%
%TD*%
%TA.AperFunction,ComponentPad*%
%ADD12O,1.700000X0.900000*%
%TD*%
%TA.AperFunction,ComponentPad*%
%ADD13O,2.400000X0.900000*%
%TD*%
%TA.AperFunction,ViaPad*%
%ADD14C,0.600000*%
%TD*%
%TA.AperFunction,ViaPad*%
%ADD15C,0.300000*%
%TD*%
%TA.AperFunction,ViaPad*%
%ADD16C,0.500000*%
%TD*%
%TA.AperFunction,ViaPad*%
%ADD17C,0.900000*%
%TD*%
%TA.AperFunction,ViaPad*%
%ADD18C,0.700000*%
%TD*%
%TA.AperFunction,Conductor*%
%ADD19C,0.200000*%
%TD*%
G04 APERTURE END LIST*
D10*
%TO.N,LIPO GND*%
%TO.C,U1*%
X81630000Y-65060000D03*
X81630000Y-63660000D03*
X80930000Y-65760000D03*
X80930000Y-64360000D03*
X80930000Y-62960000D03*
X80230000Y-65060000D03*
X80230000Y-63660000D03*
X79530000Y-65760000D03*
X79530000Y-64360000D03*
X79530000Y-62960000D03*
X78830000Y-65060000D03*
X78830000Y-63660000D03*
%TD*%
D11*
%TO.N,LIPO GND*%
%TO.C,J3*%
X72752964Y-94700000D03*
%TO.N,Net-(D3-A1)*%
X72752964Y-93850000D03*
%TO.N,Net-(J3-CC1)*%
X72752964Y-93000000D03*
%TO.N,CONN_0*%
X72752964Y-92150000D03*
%TO.N,CONN_2*%
X72752964Y-91300000D03*
%TO.N,unconnected-(J3-SBU1-PadA8)*%
X72752964Y-90450000D03*
%TO.N,Net-(D3-A1)*%
X72752964Y-89600000D03*
%TO.N,LIPO GND*%
X72752964Y-88750000D03*
X71402964Y-88750000D03*
%TO.N,Net-(D3-A1)*%
X71402964Y-89600000D03*
%TO.N,Net-(J3-CC2)*%
X71402964Y-90450000D03*
%TO.N,CONN_0*%
X71402964Y-91300000D03*
%TO.N,CONN_2*%
X71402964Y-92150000D03*
%TO.N,unconnected-(J3-SBU2-PadB8)*%
X71402964Y-93000000D03*
%TO.N,Net-(D3-A1)*%
X71402964Y-93850000D03*
%TO.N,LIPO GND*%
X71402964Y-94700000D03*
D12*
X68392964Y-96050000D03*
D13*
X71772964Y-96050000D03*
D12*
X68392964Y-87400000D03*
D13*
X71772964Y-87400000D03*
%TD*%
D14*
%TO.N,CONN_29*%
X64512800Y-100050000D03*
X76454047Y-95665953D03*
%TO.N,CONN_7*%
X69220000Y-103040000D03*
X83054047Y-95484047D03*
D15*
%TO.N,CONN_2*%
X71825000Y-68700000D03*
X68610834Y-71464482D03*
D14*
X72803964Y-96960000D03*
%TO.N,CONN_10*%
X69190000Y-102100000D03*
X81954047Y-95494047D03*
%TO.N,CONN_14*%
X68710000Y-99120000D03*
X79754047Y-95575953D03*
D16*
%TO.N,BZR*%
X68250000Y-104850000D03*
D14*
%TO.N,CONN_15*%
X69050000Y-108000000D03*
X87100000Y-93560000D03*
X77000000Y-108000000D03*
%TO.N,CONN_11*%
X72130000Y-97490000D03*
X75504047Y-95250000D03*
%TO.N,CONN_18*%
X84234000Y-87296000D03*
D17*
X77139800Y-60807600D03*
D14*
X82710000Y-87240000D03*
X82625000Y-58075000D03*
D17*
X77139800Y-59105800D03*
D14*
X77680000Y-87160000D03*
X64740000Y-105480000D03*
X68760916Y-66172535D03*
X76150000Y-87050000D03*
X80854047Y-94994047D03*
X85759000Y-87371000D03*
X67703700Y-61810900D03*
X66720000Y-69690000D03*
D15*
%TO.N,GPIO0*%
X71325000Y-64725000D03*
X68700000Y-63400000D03*
X66550000Y-61325000D03*
D14*
%TO.N,CHIP_PU*%
X72615531Y-61601015D03*
X84963000Y-58420000D03*
%TO.N,CONN_6*%
X84154047Y-95405953D03*
X69125003Y-104670000D03*
D15*
%TO.N,CONN_0*%
X71750000Y-69620000D03*
X68775000Y-72100000D03*
%TO.N,DATA9*%
X83125000Y-68381250D03*
%TO.N,DATA13*%
X83125000Y-70850000D03*
%TO.N,DATA10*%
X83125000Y-68998438D03*
%TO.N,DATA7*%
X74178727Y-70291272D03*
%TO.N,DATA5*%
X74312500Y-69125000D03*
%TO.N,DATA6*%
X73725000Y-69125000D03*
%TO.N,DATA12*%
X83125000Y-70232813D03*
%TO.N,DATA2*%
X83125000Y-67146875D03*
%TO.N,DATA15*%
X82872800Y-73025000D03*
%TO.N,DATA14*%
X82500000Y-72600000D03*
%TO.N,DATA0*%
X83125000Y-65912500D03*
%TO.N,DATA4*%
X74900000Y-69125000D03*
%TO.N,DATA3*%
X75487500Y-69125000D03*
%TO.N,DATA1*%
X83125000Y-66529688D03*
%TO.N,DATA11*%
X83125000Y-69615625D03*
%TO.N,DATA8*%
X83125000Y-67764063D03*
%TO.N,RET*%
X80668914Y-73302001D03*
D14*
%TO.N,HATS_ENABLE*%
X85610000Y-72470000D03*
X68650000Y-72950000D03*
X79362600Y-74402000D03*
D15*
%TO.N,INDEX1*%
X72824994Y-72500000D03*
%TO.N,INDEX4*%
X74325003Y-72500000D03*
%TO.N,INDEX0*%
X72324991Y-72500000D03*
%TO.N,INDEX2*%
X73324997Y-72500000D03*
%TO.N,INDEX3*%
X73825000Y-72500000D03*
D14*
%TO.N,CONN_28*%
X64530000Y-101430000D03*
X77554047Y-95655953D03*
%TO.N,CONN_16*%
X87910000Y-93560000D03*
X77205000Y-108795000D03*
X68860000Y-108790000D03*
D15*
%TO.N,LIPO GND*%
X86300000Y-70250000D03*
D17*
X77241400Y-57353200D03*
D14*
X78654047Y-91675953D03*
X68470000Y-55890000D03*
X76000000Y-57500000D03*
X79600000Y-87220000D03*
X74550000Y-106920000D03*
X80890000Y-87160000D03*
X88057419Y-101680000D03*
X72350000Y-71125000D03*
X66760000Y-68700000D03*
X74489100Y-65739100D03*
X65380000Y-97420000D03*
X67919600Y-63677800D03*
D15*
X80000000Y-71010000D03*
D14*
X81685000Y-87265000D03*
X64670000Y-63990000D03*
D18*
X68503800Y-62128400D03*
D17*
X64700000Y-98339999D03*
D14*
X67730000Y-88750000D03*
X84505800Y-60223400D03*
X84175600Y-55803800D03*
X74142600Y-64922400D03*
X65989200Y-58801000D03*
D16*
X68420000Y-107100000D03*
D14*
X78675000Y-102925000D03*
D15*
X85070000Y-69090000D03*
D14*
X78650000Y-89050000D03*
X84475000Y-63225000D03*
D15*
X67290000Y-97550000D03*
D14*
X74380000Y-87180000D03*
X67360000Y-89680000D03*
D17*
X84150000Y-106850000D03*
D16*
X66940000Y-75210000D03*
D14*
X74880000Y-91470000D03*
X80220000Y-55970000D03*
X81864200Y-60553600D03*
X66660000Y-92420000D03*
X86156000Y-57734200D03*
X84937600Y-55905400D03*
X85090000Y-93390000D03*
X76510000Y-62730000D03*
%TO.N,CONN_21*%
X66740000Y-67770000D03*
X64520000Y-102250000D03*
%TD*%
D19*
%TO.N,HATS_ENABLE*%
X85610000Y-72470000D02*
X83678000Y-74402000D01*
X83678000Y-74402000D02*
X79362600Y-74402000D01*
X70102000Y-74402000D02*
X79362600Y-74402000D01*
X68650000Y-72950000D02*
X70102000Y-74402000D01*
%TD*%
%TA.AperFunction,Conductor*%
%TO.N,LIPO GND*%
G36*
X69000263Y-55169685D02*
G01*
X69020905Y-55186319D01*
X69039950Y-55205364D01*
X69040914Y-55206008D01*
X69040913Y-55206008D01*
X69041171Y-55206181D01*
X69086420Y-55224614D01*
X69086419Y-55224614D01*
X69086676Y-55224718D01*
X69132019Y-55243500D01*
X69132780Y-55243500D01*
X69133485Y-55243787D01*
X69182200Y-55243501D01*
X69182925Y-55243500D01*
X88845500Y-55243500D01*
X88912539Y-55263185D01*
X88958294Y-55315989D01*
X88969500Y-55367500D01*
X88969500Y-75900500D01*
X88949815Y-75967539D01*
X88897011Y-76013294D01*
X88845500Y-76024500D01*
X64234500Y-76024500D01*
X64167461Y-76004815D01*
X64121706Y-75952011D01*
X64110500Y-75900500D01*
X64110500Y-72871153D01*
X67849500Y-72871153D01*
X67849500Y-73028846D01*
X67880261Y-73183489D01*
X67880264Y-73183501D01*
X67940602Y-73329172D01*
X67940609Y-73329185D01*
X68028210Y-73460288D01*
X68028213Y-73460292D01*
X68139707Y-73571786D01*
X68139711Y-73571789D01*
X68270814Y-73659390D01*
X68270827Y-73659397D01*
X68412836Y-73718218D01*
X68416503Y-73719737D01*
X68481147Y-73732595D01*
X68571849Y-73750638D01*
X68633760Y-73783023D01*
X68635339Y-73784574D01*
X69617139Y-74766374D01*
X69617149Y-74766385D01*
X69621479Y-74770715D01*
X69621480Y-74770716D01*
X69733284Y-74882520D01*
X69820095Y-74932639D01*
X69820097Y-74932641D01*
X69858151Y-74954611D01*
X69870215Y-74961577D01*
X70022943Y-75002500D01*
X70181057Y-75002500D01*
X78782834Y-75002500D01*
X78849873Y-75022185D01*
X78851725Y-75023398D01*
X78983414Y-75111390D01*
X78983427Y-75111397D01*
X79129098Y-75171735D01*
X79129103Y-75171737D01*
X79283753Y-75202499D01*
X79283756Y-75202500D01*
X79283758Y-75202500D01*
X79441444Y-75202500D01*
X79441445Y-75202499D01*
X79596097Y-75171737D01*
X79741779Y-75111394D01*
X79741785Y-75111390D01*
X79873475Y-75023398D01*
X79940153Y-75002520D01*
X79942366Y-75002500D01*
X83591331Y-75002500D01*
X83591347Y-75002501D01*
X83598943Y-75002501D01*
X83757054Y-75002501D01*
X83757057Y-75002501D01*
X83909785Y-74961577D01*
X83959904Y-74932639D01*
X84046716Y-74882520D01*
X84158520Y-74770716D01*
X84158520Y-74770714D01*
X84168728Y-74760507D01*
X84168729Y-74760504D01*
X85624664Y-73304571D01*
X85685985Y-73271088D01*
X85688152Y-73270637D01*
X85688841Y-73270500D01*
X85688842Y-73270500D01*
X85843497Y-73239737D01*
X85979264Y-73183501D01*
X85989172Y-73179397D01*
X85989172Y-73179396D01*
X85989179Y-73179394D01*
X86120289Y-73091789D01*
X86231789Y-72980289D01*
X86319394Y-72849179D01*
X86325162Y-72835255D01*
X86370609Y-72725534D01*
X86379737Y-72703497D01*
X86410500Y-72548842D01*
X86410500Y-72391158D01*
X86410500Y-72391155D01*
X86410499Y-72391153D01*
X86379738Y-72236510D01*
X86379738Y-72236508D01*
X86379737Y-72236503D01*
X86358541Y-72185331D01*
X86319397Y-72090827D01*
X86319390Y-72090814D01*
X86231789Y-71959711D01*
X86231786Y-71959707D01*
X86120292Y-71848213D01*
X86120288Y-71848210D01*
X85989185Y-71760609D01*
X85989172Y-71760602D01*
X85843501Y-71700264D01*
X85843489Y-71700261D01*
X85688845Y-71669500D01*
X85688842Y-71669500D01*
X85531158Y-71669500D01*
X85531155Y-71669500D01*
X85376510Y-71700261D01*
X85376498Y-71700264D01*
X85230827Y-71760602D01*
X85230814Y-71760609D01*
X85099711Y-71848210D01*
X85099707Y-71848213D01*
X84988213Y-71959707D01*
X84988210Y-71959711D01*
X84900609Y-72090814D01*
X84900602Y-72090827D01*
X84840264Y-72236498D01*
X84840261Y-72236508D01*
X84809362Y-72391848D01*
X84776977Y-72453759D01*
X84775426Y-72455337D01*
X83465584Y-73765181D01*
X83404261Y-73798666D01*
X83377903Y-73801500D01*
X83290327Y-73801500D01*
X83223288Y-73781815D01*
X83177533Y-73729011D01*
X83167589Y-73659853D01*
X83196614Y-73596297D01*
X83221436Y-73574398D01*
X83287469Y-73530276D01*
X83378073Y-73439672D01*
X83378076Y-73439669D01*
X83449265Y-73333127D01*
X83498301Y-73214744D01*
X83516053Y-73125500D01*
X83523300Y-73089071D01*
X83523300Y-72960928D01*
X83498302Y-72835261D01*
X83498301Y-72835260D01*
X83498301Y-72835256D01*
X83449265Y-72716873D01*
X83449264Y-72716872D01*
X83449261Y-72716866D01*
X83378076Y-72610331D01*
X83378073Y-72610327D01*
X83287472Y-72519726D01*
X83287468Y-72519723D01*
X83180933Y-72448538D01*
X83180917Y-72448530D01*
X83180601Y-72448399D01*
X83180460Y-72448285D01*
X83175557Y-72445665D01*
X83176054Y-72444734D01*
X83126202Y-72404552D01*
X83113505Y-72381295D01*
X83076468Y-72291879D01*
X83076461Y-72291866D01*
X83005276Y-72185331D01*
X83005273Y-72185327D01*
X82914672Y-72094726D01*
X82914668Y-72094723D01*
X82808133Y-72023538D01*
X82808124Y-72023533D01*
X82689744Y-71974499D01*
X82689738Y-71974497D01*
X82564071Y-71949500D01*
X82564069Y-71949500D01*
X82435931Y-71949500D01*
X82435929Y-71949500D01*
X82310261Y-71974497D01*
X82310255Y-71974499D01*
X82191875Y-72023533D01*
X82191866Y-72023538D01*
X82085331Y-72094723D01*
X82085327Y-72094726D01*
X81994726Y-72185327D01*
X81994723Y-72185331D01*
X81923538Y-72291866D01*
X81923533Y-72291875D01*
X81874499Y-72410255D01*
X81874497Y-72410261D01*
X81849500Y-72535928D01*
X81849500Y-72535931D01*
X81849500Y-72664069D01*
X81849500Y-72664071D01*
X81849499Y-72664071D01*
X81874497Y-72789738D01*
X81874499Y-72789744D01*
X81923533Y-72908124D01*
X81923538Y-72908133D01*
X81994723Y-73014668D01*
X81994726Y-73014672D01*
X82085327Y-73105273D01*
X82085335Y-73105279D01*
X82191869Y-73176463D01*
X82191871Y-73176464D01*
X82191873Y-73176465D01*
X82192178Y-73176591D01*
X82192316Y-73176702D01*
X82197247Y-73179338D01*
X82196747Y-73180272D01*
X82246584Y-73220429D01*
X82259293Y-73243701D01*
X82296335Y-73333127D01*
X82296338Y-73333133D01*
X82367523Y-73439668D01*
X82367526Y-73439672D01*
X82458130Y-73530276D01*
X82524164Y-73574398D01*
X82568969Y-73628010D01*
X82577676Y-73697335D01*
X82547522Y-73760362D01*
X82488079Y-73797082D01*
X82455273Y-73801500D01*
X81349497Y-73801500D01*
X81282458Y-73781815D01*
X81236703Y-73729011D01*
X81226759Y-73659853D01*
X81243539Y-73616055D01*
X81242506Y-73615503D01*
X81245375Y-73610132D01*
X81245379Y-73610128D01*
X81294415Y-73491745D01*
X81319414Y-73366070D01*
X81319414Y-73237932D01*
X81319414Y-73237929D01*
X81294416Y-73112262D01*
X81294415Y-73112261D01*
X81294415Y-73112257D01*
X81245379Y-72993874D01*
X81245378Y-72993873D01*
X81245375Y-72993867D01*
X81174190Y-72887332D01*
X81174187Y-72887328D01*
X81083586Y-72796727D01*
X81083582Y-72796724D01*
X80977047Y-72725539D01*
X80977038Y-72725534D01*
X80858658Y-72676500D01*
X80858652Y-72676498D01*
X80732985Y-72651501D01*
X80732983Y-72651501D01*
X80604845Y-72651501D01*
X80604843Y-72651501D01*
X80479175Y-72676498D01*
X80479169Y-72676500D01*
X80360789Y-72725534D01*
X80360780Y-72725539D01*
X80254245Y-72796724D01*
X80254241Y-72796727D01*
X80163640Y-72887328D01*
X80163637Y-72887332D01*
X80092452Y-72993867D01*
X80092447Y-72993876D01*
X80043413Y-73112256D01*
X80043411Y-73112262D01*
X80018414Y-73237929D01*
X80018414Y-73237932D01*
X80018414Y-73366070D01*
X80018414Y-73366072D01*
X80018413Y-73366072D01*
X80043411Y-73491739D01*
X80043413Y-73491745D01*
X80092447Y-73610125D01*
X80095322Y-73615503D01*
X80093841Y-73616294D01*
X80094473Y-73618312D01*
X80101125Y-73625989D01*
X80104734Y-73651092D01*
X80112311Y-73675295D01*
X80109623Y-73685090D01*
X80111069Y-73695147D01*
X80100532Y-73718218D01*
X80093822Y-73742674D01*
X80086264Y-73749461D01*
X80082044Y-73758703D01*
X80060708Y-73772414D01*
X80041840Y-73789361D01*
X80030246Y-73791991D01*
X80023266Y-73796477D01*
X79988331Y-73801500D01*
X79942366Y-73801500D01*
X79875327Y-73781815D01*
X79873475Y-73780602D01*
X79741785Y-73692609D01*
X79741772Y-73692602D01*
X79596101Y-73632264D01*
X79596089Y-73632261D01*
X79441445Y-73601500D01*
X79441442Y-73601500D01*
X79283758Y-73601500D01*
X79283755Y-73601500D01*
X79129110Y-73632261D01*
X79129098Y-73632264D01*
X78983427Y-73692602D01*
X78983414Y-73692609D01*
X78851725Y-73780602D01*
X78785047Y-73801480D01*
X78782834Y-73801500D01*
X70402097Y-73801500D01*
X70335058Y-73781815D01*
X70314416Y-73765181D01*
X69484574Y-72935339D01*
X69451089Y-72874016D01*
X69450638Y-72871849D01*
X69421534Y-72725539D01*
X69419737Y-72716503D01*
X69419735Y-72716498D01*
X69359397Y-72570828D01*
X69359396Y-72570827D01*
X69359394Y-72570821D01*
X69354884Y-72564071D01*
X71674490Y-72564071D01*
X71699488Y-72689738D01*
X71699490Y-72689744D01*
X71748524Y-72808124D01*
X71748529Y-72808133D01*
X71819714Y-72914668D01*
X71819717Y-72914672D01*
X71910318Y-73005273D01*
X71910322Y-73005276D01*
X72016857Y-73076461D01*
X72016863Y-73076464D01*
X72016864Y-73076465D01*
X72135247Y-73125501D01*
X72135251Y-73125501D01*
X72135252Y-73125502D01*
X72260919Y-73150500D01*
X72260922Y-73150500D01*
X72389062Y-73150500D01*
X72514730Y-73125502D01*
X72514730Y-73125501D01*
X72514735Y-73125501D01*
X72527537Y-73120197D01*
X72597005Y-73112728D01*
X72622444Y-73120197D01*
X72635245Y-73125499D01*
X72635250Y-73125501D01*
X72635254Y-73125501D01*
X72635255Y-73125502D01*
X72760922Y-73150500D01*
X72760925Y-73150500D01*
X72889065Y-73150500D01*
X73014733Y-73125502D01*
X73014733Y-73125501D01*
X73014738Y-73125501D01*
X73027540Y-73120197D01*
X73097008Y-73112728D01*
X73122447Y-73120197D01*
X73135248Y-73125499D01*
X73135253Y-73125501D01*
X73135257Y-73125501D01*
X73135258Y-73125502D01*
X73260925Y-73150500D01*
X73260928Y-73150500D01*
X73389068Y-73150500D01*
X73514736Y-73125502D01*
X73514736Y-73125501D01*
X73514741Y-73125501D01*
X73527543Y-73120197D01*
X73597011Y-73112728D01*
X73622450Y-73120197D01*
X73635251Y-73125499D01*
X73635256Y-73125501D01*
X73635260Y-73125501D01*
X73635261Y-73125502D01*
X73760928Y-73150500D01*
X73760931Y-73150500D01*
X73889071Y-73150500D01*
X74014739Y-73125502D01*
X74014739Y-73125501D01*
X74014744Y-73125501D01*
X74027546Y-73120197D01*
X74097014Y-73112728D01*
X74122453Y-73120197D01*
X74135254Y-73125499D01*
X74135259Y-73125501D01*
X74135263Y-73125501D01*
X74135264Y-73125502D01*
X74260931Y-73150500D01*
X74260934Y-73150500D01*
X74389074Y-73150500D01*
X74473618Y-73133682D01*
X74514747Y-73125501D01*
X74633130Y-73076465D01*
X74739672Y-73005276D01*
X74830279Y-72914669D01*
X74901468Y-72808127D01*
X74950504Y-72689744D01*
X74966301Y-72610331D01*
X74975503Y-72564071D01*
X74975503Y-72435928D01*
X74950505Y-72310261D01*
X74950504Y-72310260D01*
X74950504Y-72310256D01*
X74901468Y-72191873D01*
X74901467Y-72191872D01*
X74901464Y-72191866D01*
X74830279Y-72085331D01*
X74830276Y-72085327D01*
X74739675Y-71994726D01*
X74739671Y-71994723D01*
X74633136Y-71923538D01*
X74633127Y-71923533D01*
X74514747Y-71874499D01*
X74514741Y-71874497D01*
X74389074Y-71849500D01*
X74389072Y-71849500D01*
X74260934Y-71849500D01*
X74260932Y-71849500D01*
X74135265Y-71874497D01*
X74135259Y-71874499D01*
X74122445Y-71879806D01*
X74052975Y-71887269D01*
X74027552Y-71879804D01*
X74023514Y-71878131D01*
X74014744Y-71874499D01*
X74014742Y-71874498D01*
X74014738Y-71874497D01*
X73889071Y-71849500D01*
X73889069Y-71849500D01*
X73760931Y-71849500D01*
X73760929Y-71849500D01*
X73635262Y-71874497D01*
X73635256Y-71874499D01*
X73622442Y-71879806D01*
X73552972Y-71887269D01*
X73527549Y-71879804D01*
X73523511Y-71878131D01*
X73514741Y-71874499D01*
X73514739Y-71874498D01*
X73514735Y-71874497D01*
X73389068Y-71849500D01*
X73389066Y-71849500D01*
X73260928Y-71849500D01*
X73260926Y-71849500D01*
X73135259Y-71874497D01*
X73135253Y-71874499D01*
X73122439Y-71879806D01*
X73052969Y-71887269D01*
X73027546Y-71879804D01*
X73023508Y-71878131D01*
X73014738Y-71874499D01*
X73014736Y-71874498D01*
X73014732Y-71874497D01*
X72889065Y-71849500D01*
X72889063Y-71849500D01*
X72760925Y-71849500D01*
X72760923Y-71849500D01*
X72635256Y-71874497D01*
X72635250Y-71874499D01*
X72622436Y-71879806D01*
X72552966Y-71887269D01*
X72527543Y-71879804D01*
X72523505Y-71878131D01*
X72514735Y-71874499D01*
X72514733Y-71874498D01*
X72514729Y-71874497D01*
X72389062Y-71849500D01*
X72389060Y-71849500D01*
X72260922Y-71849500D01*
X72260920Y-71849500D01*
X72135252Y-71874497D01*
X72135246Y-71874499D01*
X72016866Y-71923533D01*
X72016857Y-71923538D01*
X71910322Y-71994723D01*
X71910318Y-71994726D01*
X71819717Y-72085327D01*
X71819714Y-72085331D01*
X71748529Y-72191866D01*
X71748524Y-72191875D01*
X71699490Y-72310255D01*
X71699488Y-72310261D01*
X71674491Y-72435928D01*
X71674491Y-72435931D01*
X71674491Y-72564069D01*
X71674491Y-72564071D01*
X71674490Y-72564071D01*
X69354884Y-72564071D01*
X69347105Y-72552430D01*
X69343519Y-72540978D01*
X69335933Y-72531678D01*
X69333272Y-72508252D01*
X69326228Y-72485754D01*
X69329206Y-72472443D01*
X69328049Y-72462254D01*
X69335841Y-72442788D01*
X69338994Y-72428700D01*
X69342585Y-72421415D01*
X69351465Y-72408127D01*
X69400501Y-72289744D01*
X69419969Y-72191875D01*
X69425500Y-72164071D01*
X69425500Y-72035928D01*
X69400502Y-71910261D01*
X69400501Y-71910260D01*
X69400501Y-71910256D01*
X69351465Y-71791873D01*
X69351464Y-71791872D01*
X69351461Y-71791866D01*
X69280275Y-71685330D01*
X69277134Y-71681502D01*
X69249820Y-71617193D01*
X69251368Y-71578646D01*
X69261334Y-71528551D01*
X69261334Y-71400413D01*
X69261334Y-71400410D01*
X69236336Y-71274743D01*
X69236335Y-71274742D01*
X69236335Y-71274738D01*
X69198408Y-71183174D01*
X69187300Y-71156357D01*
X69187295Y-71156348D01*
X69116110Y-71049813D01*
X69116107Y-71049809D01*
X69025506Y-70959208D01*
X69025502Y-70959205D01*
X68918967Y-70888020D01*
X68918958Y-70888015D01*
X68800578Y-70838981D01*
X68800572Y-70838979D01*
X68674905Y-70813982D01*
X68674903Y-70813982D01*
X68546765Y-70813982D01*
X68546763Y-70813982D01*
X68421095Y-70838979D01*
X68421089Y-70838981D01*
X68302709Y-70888015D01*
X68302700Y-70888020D01*
X68196165Y-70959205D01*
X68196161Y-70959208D01*
X68105560Y-71049809D01*
X68105557Y-71049813D01*
X68034372Y-71156348D01*
X68034367Y-71156357D01*
X67985333Y-71274737D01*
X67985331Y-71274743D01*
X67960334Y-71400410D01*
X67960334Y-71400413D01*
X67960334Y-71528551D01*
X67960334Y-71528553D01*
X67960333Y-71528553D01*
X67985331Y-71654220D01*
X67985333Y-71654226D01*
X68034367Y-71772606D01*
X68034372Y-71772615D01*
X68105557Y-71879151D01*
X68108700Y-71882980D01*
X68136013Y-71947290D01*
X68134464Y-71985837D01*
X68124500Y-72035928D01*
X68124500Y-72164073D01*
X68141325Y-72248659D01*
X68135098Y-72318251D01*
X68107390Y-72360531D01*
X68028210Y-72439711D01*
X67940609Y-72570814D01*
X67940602Y-72570827D01*
X67880264Y-72716498D01*
X67880261Y-72716510D01*
X67849500Y-72871153D01*
X64110500Y-72871153D01*
X64110500Y-69611153D01*
X65919500Y-69611153D01*
X65919500Y-69768846D01*
X65950261Y-69923489D01*
X65950264Y-69923501D01*
X66010602Y-70069172D01*
X66010609Y-70069185D01*
X66098210Y-70200288D01*
X66098213Y-70200292D01*
X66209707Y-70311786D01*
X66209711Y-70311789D01*
X66340814Y-70399390D01*
X66340827Y-70399397D01*
X66486498Y-70459735D01*
X66486503Y-70459737D01*
X66641153Y-70490499D01*
X66641156Y-70490500D01*
X66641158Y-70490500D01*
X66798844Y-70490500D01*
X66798845Y-70490499D01*
X66953497Y-70459737D01*
X67099179Y-70399394D01*
X67230289Y-70311789D01*
X67341789Y-70200289D01*
X67429394Y-70069179D01*
X67489737Y-69923497D01*
X67520500Y-69768842D01*
X67520500Y-69684071D01*
X71099499Y-69684071D01*
X71124497Y-69809738D01*
X71124499Y-69809744D01*
X71173533Y-69928124D01*
X71173538Y-69928133D01*
X71244723Y-70034668D01*
X71244726Y-70034672D01*
X71335327Y-70125273D01*
X71335331Y-70125276D01*
X71441866Y-70196461D01*
X71441875Y-70196466D01*
X71451105Y-70200289D01*
X71560256Y-70245501D01*
X71560260Y-70245501D01*
X71560261Y-70245502D01*
X71685928Y-70270500D01*
X71685931Y-70270500D01*
X71814071Y-70270500D01*
X71898615Y-70253682D01*
X71939744Y-70245501D01*
X72058127Y-70196465D01*
X72164669Y-70125276D01*
X72255276Y-70034669D01*
X72326465Y-69928127D01*
X72375501Y-69809744D01*
X72387285Y-69750502D01*
X72400500Y-69684071D01*
X72400500Y-69555928D01*
X72375502Y-69430261D01*
X72375501Y-69430260D01*
X72375501Y-69430256D01*
X72326465Y-69311873D01*
X72305540Y-69280556D01*
X72284662Y-69213879D01*
X72291467Y-69189071D01*
X73074499Y-69189071D01*
X73099497Y-69314738D01*
X73099499Y-69314744D01*
X73148533Y-69433124D01*
X73148538Y-69433133D01*
X73219723Y-69539668D01*
X73219726Y-69539672D01*
X73310327Y-69630273D01*
X73310331Y-69630276D01*
X73416866Y-69701461D01*
X73416875Y-69701466D01*
X73443692Y-69712574D01*
X73535256Y-69750501D01*
X73549597Y-69753353D01*
X73611508Y-69785737D01*
X73646083Y-69846453D01*
X73642344Y-69916222D01*
X73628510Y-69943861D01*
X73602264Y-69983140D01*
X73602260Y-69983147D01*
X73553226Y-70101527D01*
X73553224Y-70101533D01*
X73528227Y-70227200D01*
X73528227Y-70227203D01*
X73528227Y-70355341D01*
X73528227Y-70355343D01*
X73528226Y-70355343D01*
X73553224Y-70481010D01*
X73553226Y-70481016D01*
X73602260Y-70599396D01*
X73602265Y-70599405D01*
X73673450Y-70705940D01*
X73673453Y-70705944D01*
X73764054Y-70796545D01*
X73764058Y-70796548D01*
X73870593Y-70867733D01*
X73870599Y-70867736D01*
X73870600Y-70867737D01*
X73988983Y-70916773D01*
X73988987Y-70916773D01*
X73988988Y-70916774D01*
X74114655Y-70941772D01*
X74114658Y-70941772D01*
X74242798Y-70941772D01*
X74327342Y-70924954D01*
X74368471Y-70916773D01*
X74486854Y-70867737D01*
X74593396Y-70796548D01*
X74684003Y-70705941D01*
X74755192Y-70599399D01*
X74804228Y-70481016D01*
X74815858Y-70422551D01*
X74829227Y-70355343D01*
X74829227Y-70227200D01*
X74804229Y-70101533D01*
X74804228Y-70101532D01*
X74804228Y-70101528D01*
X74755192Y-69983145D01*
X74755189Y-69983140D01*
X74755187Y-69983136D01*
X74745335Y-69968392D01*
X74724456Y-69901715D01*
X74742940Y-69834334D01*
X74794918Y-69787644D01*
X74848436Y-69775500D01*
X74964071Y-69775500D01*
X75075406Y-69753353D01*
X75089744Y-69750501D01*
X75146300Y-69727074D01*
X75215765Y-69719606D01*
X75241193Y-69727072D01*
X75297756Y-69750501D01*
X75297760Y-69750501D01*
X75297761Y-69750502D01*
X75423428Y-69775500D01*
X75423431Y-69775500D01*
X75551571Y-69775500D01*
X75662906Y-69753353D01*
X75677244Y-69750501D01*
X75795627Y-69701465D01*
X75902169Y-69630276D01*
X75992776Y-69539669D01*
X76063965Y-69433127D01*
X76113001Y-69314744D01*
X76133065Y-69213879D01*
X76138000Y-69189071D01*
X76138000Y-69060928D01*
X76113002Y-68935261D01*
X76113001Y-68935260D01*
X76113001Y-68935256D01*
X76063965Y-68816873D01*
X76063964Y-68816872D01*
X76063961Y-68816866D01*
X75992776Y-68710331D01*
X75992773Y-68710327D01*
X75902172Y-68619726D01*
X75902168Y-68619723D01*
X75795633Y-68548538D01*
X75795624Y-68548533D01*
X75677244Y-68499499D01*
X75677238Y-68499497D01*
X75551571Y-68474500D01*
X75551569Y-68474500D01*
X75423431Y-68474500D01*
X75423429Y-68474500D01*
X75297762Y-68499497D01*
X75297754Y-68499499D01*
X75241202Y-68522924D01*
X75171732Y-68530393D01*
X75146298Y-68522924D01*
X75089745Y-68499499D01*
X75089737Y-68499497D01*
X74964071Y-68474500D01*
X74964069Y-68474500D01*
X74835931Y-68474500D01*
X74835929Y-68474500D01*
X74710262Y-68499497D01*
X74710254Y-68499499D01*
X74653702Y-68522924D01*
X74584232Y-68530393D01*
X74558798Y-68522924D01*
X74502245Y-68499499D01*
X74502237Y-68499497D01*
X74376571Y-68474500D01*
X74376569Y-68474500D01*
X74248431Y-68474500D01*
X74248429Y-68474500D01*
X74122762Y-68499497D01*
X74122754Y-68499499D01*
X74066202Y-68522924D01*
X73996732Y-68530393D01*
X73971298Y-68522924D01*
X73914745Y-68499499D01*
X73914737Y-68499497D01*
X73789071Y-68474500D01*
X73789069Y-68474500D01*
X73660931Y-68474500D01*
X73660929Y-68474500D01*
X73535261Y-68499497D01*
X73535255Y-68499499D01*
X73416875Y-68548533D01*
X73416866Y-68548538D01*
X73310331Y-68619723D01*
X73310327Y-68619726D01*
X73219726Y-68710327D01*
X73219723Y-68710331D01*
X73148538Y-68816866D01*
X73148533Y-68816875D01*
X73099499Y-68935255D01*
X73099497Y-68935261D01*
X73074500Y-69060928D01*
X73074500Y-69060931D01*
X73074500Y-69189069D01*
X73074500Y-69189071D01*
X73074499Y-69189071D01*
X72291467Y-69189071D01*
X72303146Y-69146499D01*
X72306422Y-69141472D01*
X72312885Y-69132059D01*
X72330276Y-69114669D01*
X72401465Y-69008127D01*
X72450501Y-68889744D01*
X72466623Y-68808694D01*
X72475500Y-68764071D01*
X72475500Y-68635928D01*
X72450502Y-68510261D01*
X72450501Y-68510260D01*
X72450501Y-68510256D01*
X72401465Y-68391873D01*
X72401464Y-68391872D01*
X72401461Y-68391866D01*
X72330276Y-68285331D01*
X72330273Y-68285327D01*
X72239672Y-68194726D01*
X72239668Y-68194723D01*
X72133133Y-68123538D01*
X72133124Y-68123533D01*
X72014744Y-68074499D01*
X72014738Y-68074497D01*
X71889071Y-68049500D01*
X71889069Y-68049500D01*
X71760931Y-68049500D01*
X71760929Y-68049500D01*
X71635261Y-68074497D01*
X71635255Y-68074499D01*
X71516875Y-68123533D01*
X71516866Y-68123538D01*
X71410331Y-68194723D01*
X71410327Y-68194726D01*
X71319726Y-68285327D01*
X71319723Y-68285331D01*
X71248538Y-68391866D01*
X71248533Y-68391875D01*
X71199499Y-68510255D01*
X71199497Y-68510261D01*
X71174500Y-68635928D01*
X71174500Y-68635931D01*
X71174500Y-68764069D01*
X71174500Y-68764071D01*
X71174499Y-68764071D01*
X71199497Y-68889738D01*
X71199499Y-68889744D01*
X71248533Y-69008124D01*
X71248538Y-69008133D01*
X71269459Y-69039443D01*
X71290337Y-69106121D01*
X71271852Y-69173501D01*
X71254041Y-69196012D01*
X71244728Y-69205325D01*
X71244723Y-69205331D01*
X71173538Y-69311866D01*
X71173533Y-69311875D01*
X71124499Y-69430255D01*
X71124497Y-69430261D01*
X71099500Y-69555928D01*
X71099500Y-69555931D01*
X71099500Y-69684069D01*
X71099500Y-69684071D01*
X71099499Y-69684071D01*
X67520500Y-69684071D01*
X67520500Y-69611158D01*
X67506280Y-69539672D01*
X67489738Y-69456510D01*
X67489737Y-69456503D01*
X67480057Y-69433133D01*
X67429397Y-69310827D01*
X67429390Y-69310814D01*
X67341789Y-69179711D01*
X67341786Y-69179707D01*
X67230292Y-69068213D01*
X67230288Y-69068210D01*
X67099185Y-68980609D01*
X67099172Y-68980602D01*
X66953501Y-68920264D01*
X66953489Y-68920261D01*
X66798845Y-68889500D01*
X66798842Y-68889500D01*
X66641158Y-68889500D01*
X66641155Y-68889500D01*
X66486510Y-68920261D01*
X66486498Y-68920264D01*
X66340827Y-68980602D01*
X66340814Y-68980609D01*
X66209711Y-69068210D01*
X66209707Y-69068213D01*
X66098213Y-69179707D01*
X66098210Y-69179711D01*
X66010609Y-69310814D01*
X66010602Y-69310827D01*
X65950264Y-69456498D01*
X65950261Y-69456510D01*
X65919500Y-69611153D01*
X64110500Y-69611153D01*
X64110500Y-67691153D01*
X65939500Y-67691153D01*
X65939500Y-67848846D01*
X65970261Y-68003489D01*
X65970264Y-68003501D01*
X66030602Y-68149172D01*
X66030609Y-68149185D01*
X66118210Y-68280288D01*
X66118213Y-68280292D01*
X66229707Y-68391786D01*
X66229711Y-68391789D01*
X66360814Y-68479390D01*
X66360827Y-68479397D01*
X66483944Y-68530393D01*
X66506503Y-68539737D01*
X66661153Y-68570499D01*
X66661156Y-68570500D01*
X66661158Y-68570500D01*
X66818844Y-68570500D01*
X66818845Y-68570499D01*
X66973497Y-68539737D01*
X67119179Y-68479394D01*
X67250289Y-68391789D01*
X67361789Y-68280289D01*
X67449394Y-68149179D01*
X67509737Y-68003497D01*
X67540500Y-67848842D01*
X67540500Y-67691158D01*
X67540500Y-67691155D01*
X67540499Y-67691153D01*
X67509738Y-67536510D01*
X67509737Y-67536503D01*
X67509735Y-67536498D01*
X67449397Y-67390827D01*
X67449390Y-67390814D01*
X67361789Y-67259711D01*
X67361786Y-67259707D01*
X67250292Y-67148213D01*
X67250288Y-67148210D01*
X67119185Y-67060609D01*
X67119172Y-67060602D01*
X66973501Y-67000264D01*
X66973489Y-67000261D01*
X66818845Y-66969500D01*
X66818842Y-66969500D01*
X66661158Y-66969500D01*
X66661155Y-66969500D01*
X66506510Y-67000261D01*
X66506498Y-67000264D01*
X66360827Y-67060602D01*
X66360814Y-67060609D01*
X66229711Y-67148210D01*
X66229707Y-67148213D01*
X66118213Y-67259707D01*
X66118210Y-67259711D01*
X66030609Y-67390814D01*
X66030602Y-67390827D01*
X65970264Y-67536498D01*
X65970261Y-67536510D01*
X65939500Y-67691153D01*
X64110500Y-67691153D01*
X64110500Y-66093688D01*
X67960416Y-66093688D01*
X67960416Y-66251381D01*
X67991177Y-66406024D01*
X67991180Y-66406036D01*
X68051518Y-66551707D01*
X68051525Y-66551720D01*
X68139126Y-66682823D01*
X68139129Y-66682827D01*
X68250623Y-66794321D01*
X68250627Y-66794324D01*
X68381730Y-66881925D01*
X68381743Y-66881932D01*
X68527414Y-66942270D01*
X68527419Y-66942272D01*
X68682069Y-66973034D01*
X68682072Y-66973035D01*
X68682074Y-66973035D01*
X68839760Y-66973035D01*
X68839761Y-66973034D01*
X68994413Y-66942272D01*
X69140095Y-66881929D01*
X69271205Y-66794324D01*
X69382705Y-66682824D01*
X69470310Y-66551714D01*
X69530653Y-66406032D01*
X69561416Y-66251377D01*
X69561416Y-66093693D01*
X69561416Y-66093690D01*
X69561415Y-66093688D01*
X69538119Y-65976571D01*
X82474499Y-65976571D01*
X82499497Y-66102238D01*
X82499500Y-66102248D01*
X82529072Y-66173642D01*
X82536541Y-66243112D01*
X82529072Y-66268546D01*
X82499500Y-66339939D01*
X82499497Y-66339949D01*
X82474500Y-66465616D01*
X82474500Y-66465619D01*
X82474500Y-66593757D01*
X82474500Y-66593759D01*
X82474499Y-66593759D01*
X82499497Y-66719426D01*
X82499500Y-66719436D01*
X82529072Y-66790829D01*
X82536541Y-66860298D01*
X82529072Y-66885733D01*
X82499500Y-66957126D01*
X82499497Y-66957136D01*
X82474500Y-67082803D01*
X82474500Y-67082806D01*
X82474500Y-67210944D01*
X82474500Y-67210946D01*
X82474499Y-67210946D01*
X82499497Y-67336613D01*
X82499500Y-67336623D01*
X82529072Y-67408017D01*
X82536541Y-67477487D01*
X82529072Y-67502921D01*
X82499500Y-67574314D01*
X82499497Y-67574324D01*
X82474500Y-67699991D01*
X82474500Y-67699994D01*
X82474500Y-67828132D01*
X82474500Y-67828134D01*
X82474499Y-67828134D01*
X82499497Y-67953801D01*
X82499500Y-67953811D01*
X82529072Y-68025204D01*
X82536541Y-68094673D01*
X82529072Y-68120108D01*
X82499500Y-68191501D01*
X82499497Y-68191511D01*
X82474500Y-68317178D01*
X82474500Y-68317181D01*
X82474500Y-68445319D01*
X82474500Y-68445321D01*
X82474499Y-68445321D01*
X82499497Y-68570988D01*
X82499500Y-68570998D01*
X82529072Y-68642392D01*
X82536541Y-68711862D01*
X82529072Y-68737296D01*
X82499500Y-68808689D01*
X82499497Y-68808699D01*
X82474500Y-68934366D01*
X82474500Y-68934369D01*
X82474500Y-69062507D01*
X82474500Y-69062509D01*
X82474499Y-69062509D01*
X82499497Y-69188176D01*
X82499500Y-69188186D01*
X82529072Y-69259579D01*
X82536541Y-69329048D01*
X82529072Y-69354483D01*
X82499500Y-69425876D01*
X82499497Y-69425886D01*
X82474500Y-69551553D01*
X82474500Y-69551556D01*
X82474500Y-69679694D01*
X82474500Y-69679696D01*
X82474499Y-69679696D01*
X82499497Y-69805363D01*
X82499500Y-69805373D01*
X82529072Y-69876767D01*
X82536541Y-69946237D01*
X82529072Y-69971671D01*
X82499500Y-70043064D01*
X82499497Y-70043074D01*
X82474500Y-70168741D01*
X82474500Y-70168744D01*
X82474500Y-70296882D01*
X82474500Y-70296884D01*
X82474499Y-70296884D01*
X82499497Y-70422551D01*
X82499500Y-70422561D01*
X82529072Y-70493954D01*
X82536541Y-70563423D01*
X82529072Y-70588858D01*
X82499500Y-70660251D01*
X82499497Y-70660261D01*
X82474500Y-70785928D01*
X82474500Y-70785931D01*
X82474500Y-70914069D01*
X82474500Y-70914071D01*
X82474499Y-70914071D01*
X82499497Y-71039738D01*
X82499499Y-71039744D01*
X82548533Y-71158124D01*
X82548538Y-71158133D01*
X82619723Y-71264668D01*
X82619726Y-71264672D01*
X82710327Y-71355273D01*
X82710331Y-71355276D01*
X82816866Y-71426461D01*
X82816872Y-71426464D01*
X82816873Y-71426465D01*
X82935256Y-71475501D01*
X82935260Y-71475501D01*
X82935261Y-71475502D01*
X83060928Y-71500500D01*
X83060931Y-71500500D01*
X83189071Y-71500500D01*
X83273615Y-71483682D01*
X83314744Y-71475501D01*
X83433127Y-71426465D01*
X83539669Y-71355276D01*
X83630276Y-71264669D01*
X83701465Y-71158127D01*
X83750501Y-71039744D01*
X83766521Y-70959208D01*
X83775500Y-70914071D01*
X83775500Y-70785928D01*
X83750502Y-70660261D01*
X83750501Y-70660260D01*
X83750501Y-70660256D01*
X83720926Y-70588858D01*
X83713458Y-70519390D01*
X83720924Y-70493961D01*
X83750501Y-70422557D01*
X83763871Y-70355343D01*
X83775500Y-70296884D01*
X83775500Y-70168741D01*
X83750502Y-70043074D01*
X83750501Y-70043073D01*
X83750501Y-70043069D01*
X83720926Y-69971671D01*
X83713458Y-69902203D01*
X83720927Y-69876766D01*
X83738503Y-69834334D01*
X83750501Y-69805369D01*
X83771169Y-69701466D01*
X83775500Y-69679696D01*
X83775500Y-69551553D01*
X83750502Y-69425886D01*
X83750501Y-69425885D01*
X83750501Y-69425881D01*
X83720926Y-69354483D01*
X83713458Y-69285015D01*
X83720924Y-69259586D01*
X83750501Y-69188182D01*
X83765124Y-69114669D01*
X83775500Y-69062509D01*
X83775500Y-68934366D01*
X83750502Y-68808699D01*
X83750501Y-68808698D01*
X83750501Y-68808694D01*
X83720926Y-68737296D01*
X83713458Y-68667828D01*
X83720927Y-68642391D01*
X83730316Y-68619724D01*
X83750501Y-68570994D01*
X83764723Y-68499497D01*
X83775500Y-68445321D01*
X83775500Y-68317178D01*
X83750502Y-68191511D01*
X83750501Y-68191510D01*
X83750501Y-68191506D01*
X83720926Y-68120108D01*
X83713458Y-68050640D01*
X83720924Y-68025211D01*
X83750501Y-67953807D01*
X83771380Y-67848844D01*
X83775500Y-67828134D01*
X83775500Y-67699991D01*
X83750502Y-67574324D01*
X83750501Y-67574323D01*
X83750501Y-67574319D01*
X83720926Y-67502921D01*
X83713458Y-67433453D01*
X83720927Y-67408016D01*
X83728047Y-67390827D01*
X83750501Y-67336619D01*
X83758682Y-67295490D01*
X83775500Y-67210946D01*
X83775500Y-67082803D01*
X83750502Y-66957136D01*
X83750501Y-66957135D01*
X83750501Y-66957131D01*
X83720926Y-66885733D01*
X83713458Y-66816265D01*
X83720924Y-66790836D01*
X83750501Y-66719432D01*
X83775500Y-66593757D01*
X83775500Y-66465619D01*
X83775500Y-66465616D01*
X83750502Y-66339949D01*
X83750501Y-66339948D01*
X83750501Y-66339944D01*
X83720926Y-66268546D01*
X83713458Y-66199078D01*
X83720927Y-66173641D01*
X83750501Y-66102244D01*
X83775500Y-65976569D01*
X83775500Y-65848431D01*
X83775500Y-65848428D01*
X83750502Y-65722761D01*
X83750501Y-65722760D01*
X83750501Y-65722756D01*
X83701465Y-65604373D01*
X83701464Y-65604372D01*
X83701461Y-65604366D01*
X83630276Y-65497831D01*
X83630273Y-65497827D01*
X83539672Y-65407226D01*
X83539668Y-65407223D01*
X83433133Y-65336038D01*
X83433124Y-65336033D01*
X83314744Y-65286999D01*
X83314738Y-65286997D01*
X83189071Y-65262000D01*
X83189069Y-65262000D01*
X83060931Y-65262000D01*
X83060929Y-65262000D01*
X82935261Y-65286997D01*
X82935255Y-65286999D01*
X82816875Y-65336033D01*
X82816866Y-65336038D01*
X82710331Y-65407223D01*
X82710327Y-65407226D01*
X82619726Y-65497827D01*
X82619723Y-65497831D01*
X82548538Y-65604366D01*
X82548533Y-65604375D01*
X82499499Y-65722755D01*
X82499497Y-65722761D01*
X82474500Y-65848428D01*
X82474500Y-65848431D01*
X82474500Y-65976569D01*
X82474500Y-65976571D01*
X82474499Y-65976571D01*
X69538119Y-65976571D01*
X69530654Y-65939045D01*
X69530653Y-65939038D01*
X69530651Y-65939033D01*
X69510255Y-65889791D01*
X69470313Y-65793362D01*
X69470306Y-65793349D01*
X69382705Y-65662246D01*
X69382702Y-65662242D01*
X69271208Y-65550748D01*
X69271204Y-65550745D01*
X69140101Y-65463144D01*
X69140088Y-65463137D01*
X68994417Y-65402799D01*
X68994405Y-65402796D01*
X68839761Y-65372035D01*
X68839758Y-65372035D01*
X68682074Y-65372035D01*
X68682071Y-65372035D01*
X68527426Y-65402796D01*
X68527414Y-65402799D01*
X68381743Y-65463137D01*
X68381730Y-65463144D01*
X68250627Y-65550745D01*
X68250623Y-65550748D01*
X68139129Y-65662242D01*
X68139126Y-65662246D01*
X68051525Y-65793349D01*
X68051518Y-65793362D01*
X67991180Y-65939033D01*
X67991177Y-65939045D01*
X67960416Y-66093688D01*
X64110500Y-66093688D01*
X64110500Y-64789071D01*
X70674499Y-64789071D01*
X70699497Y-64914738D01*
X70699499Y-64914744D01*
X70748533Y-65033124D01*
X70748538Y-65033133D01*
X70819723Y-65139668D01*
X70819726Y-65139672D01*
X70910327Y-65230273D01*
X70910331Y-65230276D01*
X71016866Y-65301461D01*
X71016872Y-65301464D01*
X71016873Y-65301465D01*
X71135256Y-65350501D01*
X71135260Y-65350501D01*
X71135261Y-65350502D01*
X71260928Y-65375500D01*
X71260931Y-65375500D01*
X71389071Y-65375500D01*
X71473615Y-65358682D01*
X71514744Y-65350501D01*
X71633127Y-65301465D01*
X71739669Y-65230276D01*
X71830276Y-65139669D01*
X71901465Y-65033127D01*
X71950501Y-64914744D01*
X71975500Y-64789069D01*
X71975500Y-64660931D01*
X71975500Y-64660928D01*
X71950502Y-64535261D01*
X71950501Y-64535260D01*
X71950501Y-64535256D01*
X71901465Y-64416873D01*
X71901464Y-64416872D01*
X71901461Y-64416866D01*
X71830276Y-64310331D01*
X71830273Y-64310327D01*
X71739672Y-64219726D01*
X71739668Y-64219723D01*
X71633133Y-64148538D01*
X71633124Y-64148533D01*
X71514744Y-64099499D01*
X71514738Y-64099497D01*
X71389071Y-64074500D01*
X71389069Y-64074500D01*
X71260931Y-64074500D01*
X71260929Y-64074500D01*
X71135261Y-64099497D01*
X71135255Y-64099499D01*
X71016875Y-64148533D01*
X71016866Y-64148538D01*
X70910331Y-64219723D01*
X70910327Y-64219726D01*
X70819726Y-64310327D01*
X70819723Y-64310331D01*
X70748538Y-64416866D01*
X70748533Y-64416875D01*
X70699499Y-64535255D01*
X70699497Y-64535261D01*
X70674500Y-64660928D01*
X70674500Y-64660931D01*
X70674500Y-64789069D01*
X70674500Y-64789071D01*
X70674499Y-64789071D01*
X64110500Y-64789071D01*
X64110500Y-63464071D01*
X68049499Y-63464071D01*
X68074497Y-63589738D01*
X68074499Y-63589744D01*
X68123533Y-63708124D01*
X68123538Y-63708133D01*
X68194723Y-63814668D01*
X68194726Y-63814672D01*
X68285327Y-63905273D01*
X68285331Y-63905276D01*
X68391866Y-63976461D01*
X68391872Y-63976464D01*
X68391873Y-63976465D01*
X68510256Y-64025501D01*
X68510260Y-64025501D01*
X68510261Y-64025502D01*
X68635928Y-64050500D01*
X68635931Y-64050500D01*
X68764071Y-64050500D01*
X68848615Y-64033682D01*
X68889744Y-64025501D01*
X69008127Y-63976465D01*
X69114669Y-63905276D01*
X69205276Y-63814669D01*
X69276465Y-63708127D01*
X69325501Y-63589744D01*
X69350500Y-63464069D01*
X69350500Y-63335931D01*
X69350500Y-63335928D01*
X69325502Y-63210261D01*
X69325501Y-63210260D01*
X69325501Y-63210256D01*
X69276465Y-63091873D01*
X69276464Y-63091872D01*
X69276461Y-63091866D01*
X69205276Y-62985331D01*
X69205273Y-62985327D01*
X69114672Y-62894726D01*
X69114668Y-62894723D01*
X69008133Y-62823538D01*
X69008124Y-62823533D01*
X68889744Y-62774499D01*
X68889738Y-62774497D01*
X68764071Y-62749500D01*
X68764069Y-62749500D01*
X68635931Y-62749500D01*
X68635929Y-62749500D01*
X68510261Y-62774497D01*
X68510255Y-62774499D01*
X68391875Y-62823533D01*
X68391866Y-62823538D01*
X68285331Y-62894723D01*
X68285327Y-62894726D01*
X68194726Y-62985327D01*
X68194723Y-62985331D01*
X68123538Y-63091866D01*
X68123533Y-63091875D01*
X68074499Y-63210255D01*
X68074497Y-63210261D01*
X68049500Y-63335928D01*
X68049500Y-63335931D01*
X68049500Y-63464069D01*
X68049500Y-63464071D01*
X68049499Y-63464071D01*
X64110500Y-63464071D01*
X64110500Y-61389071D01*
X65899499Y-61389071D01*
X65924497Y-61514738D01*
X65924499Y-61514744D01*
X65973533Y-61633124D01*
X65973538Y-61633133D01*
X66044723Y-61739668D01*
X66044726Y-61739672D01*
X66135327Y-61830273D01*
X66135331Y-61830276D01*
X66241866Y-61901461D01*
X66241872Y-61901464D01*
X66241873Y-61901465D01*
X66360256Y-61950501D01*
X66360260Y-61950501D01*
X66360261Y-61950502D01*
X66485928Y-61975500D01*
X66485931Y-61975500D01*
X66614071Y-61975500D01*
X66698615Y-61958682D01*
X66739744Y-61950501D01*
X66762332Y-61941144D01*
X66831798Y-61933676D01*
X66894278Y-61964950D01*
X66929931Y-62025039D01*
X66931400Y-62031514D01*
X66933961Y-62044391D01*
X66933964Y-62044401D01*
X66994302Y-62190072D01*
X66994309Y-62190085D01*
X67081910Y-62321188D01*
X67081913Y-62321192D01*
X67193407Y-62432686D01*
X67193411Y-62432689D01*
X67324514Y-62520290D01*
X67324527Y-62520297D01*
X67470198Y-62580635D01*
X67470203Y-62580637D01*
X67624853Y-62611399D01*
X67624856Y-62611400D01*
X67624858Y-62611400D01*
X67782544Y-62611400D01*
X67782545Y-62611399D01*
X67937197Y-62580637D01*
X68082879Y-62520294D01*
X68213989Y-62432689D01*
X68325489Y-62321189D01*
X68413094Y-62190079D01*
X68473437Y-62044397D01*
X68504200Y-61889742D01*
X68504200Y-61732058D01*
X68504200Y-61732055D01*
X68504199Y-61732053D01*
X68493817Y-61679859D01*
X68473437Y-61577403D01*
X68450558Y-61522168D01*
X71815031Y-61522168D01*
X71815031Y-61679861D01*
X71845792Y-61834504D01*
X71845795Y-61834516D01*
X71906133Y-61980187D01*
X71906140Y-61980200D01*
X71993741Y-62111303D01*
X71993744Y-62111307D01*
X72105238Y-62222801D01*
X72105242Y-62222804D01*
X72236345Y-62310405D01*
X72236358Y-62310412D01*
X72382029Y-62370750D01*
X72382034Y-62370752D01*
X72536684Y-62401514D01*
X72536687Y-62401515D01*
X72536689Y-62401515D01*
X72694375Y-62401515D01*
X72694376Y-62401514D01*
X72849028Y-62370752D01*
X72994710Y-62310409D01*
X73125820Y-62222804D01*
X73237320Y-62111304D01*
X73324925Y-61980194D01*
X73385268Y-61834512D01*
X73416031Y-61679857D01*
X73416031Y-61522173D01*
X73416031Y-61522170D01*
X73416030Y-61522168D01*
X73398037Y-61431714D01*
X73385268Y-61367518D01*
X73385266Y-61367513D01*
X73324928Y-61221842D01*
X73324921Y-61221829D01*
X73237320Y-61090726D01*
X73237317Y-61090722D01*
X73125823Y-60979228D01*
X73125819Y-60979225D01*
X72994716Y-60891624D01*
X72994703Y-60891617D01*
X72849032Y-60831279D01*
X72849020Y-60831276D01*
X72694376Y-60800515D01*
X72694373Y-60800515D01*
X72536689Y-60800515D01*
X72536686Y-60800515D01*
X72382041Y-60831276D01*
X72382029Y-60831279D01*
X72236358Y-60891617D01*
X72236345Y-60891624D01*
X72105242Y-60979225D01*
X72105238Y-60979228D01*
X71993744Y-61090722D01*
X71993741Y-61090726D01*
X71906140Y-61221829D01*
X71906133Y-61221842D01*
X71845795Y-61367513D01*
X71845792Y-61367525D01*
X71815031Y-61522168D01*
X68450558Y-61522168D01*
X68441136Y-61499420D01*
X68413097Y-61431727D01*
X68413090Y-61431714D01*
X68325489Y-61300611D01*
X68325486Y-61300607D01*
X68213992Y-61189113D01*
X68213988Y-61189110D01*
X68082885Y-61101509D01*
X68082872Y-61101502D01*
X67937201Y-61041164D01*
X67937189Y-61041161D01*
X67782545Y-61010400D01*
X67782542Y-61010400D01*
X67624858Y-61010400D01*
X67624855Y-61010400D01*
X67470210Y-61041161D01*
X67470198Y-61041164D01*
X67324527Y-61101502D01*
X67324508Y-61101513D01*
X67322477Y-61102870D01*
X67321251Y-61103253D01*
X67319146Y-61104379D01*
X67318932Y-61103979D01*
X67255798Y-61123743D01*
X67188420Y-61105254D01*
X67141733Y-61053272D01*
X67139041Y-61047235D01*
X67126465Y-61016873D01*
X67126461Y-61016866D01*
X67055276Y-60910331D01*
X67055273Y-60910327D01*
X66964672Y-60819726D01*
X66964668Y-60819723D01*
X66858133Y-60748538D01*
X66858124Y-60748533D01*
X66739744Y-60699499D01*
X66739738Y-60699497D01*
X66614071Y-60674500D01*
X66614069Y-60674500D01*
X66485931Y-60674500D01*
X66485929Y-60674500D01*
X66360261Y-60699497D01*
X66360255Y-60699499D01*
X66241875Y-60748533D01*
X66241866Y-60748538D01*
X66135331Y-60819723D01*
X66135327Y-60819726D01*
X66044726Y-60910327D01*
X66044723Y-60910331D01*
X65973538Y-61016866D01*
X65973533Y-61016875D01*
X65924499Y-61135255D01*
X65924497Y-61135261D01*
X65899500Y-61260928D01*
X65899500Y-61260931D01*
X65899500Y-61389069D01*
X65899500Y-61389071D01*
X65899499Y-61389071D01*
X64110500Y-61389071D01*
X64110500Y-59012179D01*
X76189300Y-59012179D01*
X76189300Y-59199420D01*
X76225825Y-59383043D01*
X76225827Y-59383051D01*
X76297476Y-59556028D01*
X76297481Y-59556037D01*
X76401497Y-59711707D01*
X76401500Y-59711711D01*
X76533888Y-59844099D01*
X76533892Y-59844102D01*
X76548103Y-59853598D01*
X76592908Y-59907211D01*
X76601615Y-59976536D01*
X76571460Y-60039563D01*
X76548103Y-60059802D01*
X76533892Y-60069297D01*
X76533888Y-60069300D01*
X76401500Y-60201688D01*
X76401497Y-60201692D01*
X76297481Y-60357362D01*
X76297476Y-60357371D01*
X76225827Y-60530348D01*
X76225825Y-60530356D01*
X76189300Y-60713979D01*
X76189300Y-60901220D01*
X76225825Y-61084843D01*
X76225827Y-61084851D01*
X76297476Y-61257828D01*
X76297481Y-61257837D01*
X76401497Y-61413507D01*
X76401500Y-61413511D01*
X76533888Y-61545899D01*
X76533892Y-61545902D01*
X76689562Y-61649918D01*
X76689568Y-61649921D01*
X76689569Y-61649922D01*
X76862549Y-61721573D01*
X77046179Y-61758099D01*
X77046183Y-61758100D01*
X77046184Y-61758100D01*
X77233417Y-61758100D01*
X77233418Y-61758099D01*
X77417051Y-61721573D01*
X77590031Y-61649922D01*
X77745708Y-61545902D01*
X77878102Y-61413508D01*
X77982122Y-61257831D01*
X78053773Y-61084851D01*
X78090300Y-60901216D01*
X78090300Y-60713984D01*
X78053773Y-60530349D01*
X77982122Y-60357369D01*
X77982121Y-60357368D01*
X77982118Y-60357362D01*
X77878102Y-60201692D01*
X77878099Y-60201688D01*
X77745711Y-60069300D01*
X77745706Y-60069296D01*
X77731498Y-60059803D01*
X77686692Y-60006192D01*
X77677983Y-59936867D01*
X77708137Y-59873839D01*
X77731498Y-59853597D01*
X77736552Y-59850219D01*
X77745708Y-59844102D01*
X77878102Y-59711708D01*
X77982122Y-59556031D01*
X78053773Y-59383051D01*
X78090300Y-59199416D01*
X78090300Y-59012184D01*
X78053773Y-58828549D01*
X77982122Y-58655569D01*
X77982121Y-58655568D01*
X77982118Y-58655562D01*
X77878102Y-58499892D01*
X77878099Y-58499888D01*
X77745711Y-58367500D01*
X77745707Y-58367497D01*
X77590037Y-58263481D01*
X77590028Y-58263476D01*
X77417051Y-58191827D01*
X77417043Y-58191825D01*
X77233420Y-58155300D01*
X77233416Y-58155300D01*
X77046184Y-58155300D01*
X77046179Y-58155300D01*
X76862556Y-58191825D01*
X76862548Y-58191827D01*
X76689571Y-58263476D01*
X76689562Y-58263481D01*
X76533892Y-58367497D01*
X76533888Y-58367500D01*
X76401500Y-58499888D01*
X76401497Y-58499892D01*
X76297481Y-58655562D01*
X76297476Y-58655571D01*
X76225827Y-58828548D01*
X76225825Y-58828556D01*
X76189300Y-59012179D01*
X64110500Y-59012179D01*
X64110500Y-57996153D01*
X81824500Y-57996153D01*
X81824500Y-58153846D01*
X81855261Y-58308489D01*
X81855264Y-58308501D01*
X81915602Y-58454172D01*
X81915609Y-58454185D01*
X82003210Y-58585288D01*
X82003213Y-58585292D01*
X82114707Y-58696786D01*
X82114711Y-58696789D01*
X82245814Y-58784390D01*
X82245827Y-58784397D01*
X82352419Y-58828548D01*
X82391503Y-58844737D01*
X82546153Y-58875499D01*
X82546156Y-58875500D01*
X82546158Y-58875500D01*
X82703844Y-58875500D01*
X82703845Y-58875499D01*
X82858497Y-58844737D01*
X83004179Y-58784394D01*
X83135289Y-58696789D01*
X83246789Y-58585289D01*
X83334394Y-58454179D01*
X83381211Y-58341153D01*
X84162500Y-58341153D01*
X84162500Y-58498846D01*
X84193261Y-58653489D01*
X84193264Y-58653501D01*
X84253602Y-58799172D01*
X84253609Y-58799185D01*
X84341210Y-58930288D01*
X84341213Y-58930292D01*
X84452707Y-59041786D01*
X84452711Y-59041789D01*
X84583814Y-59129390D01*
X84583827Y-59129397D01*
X84729498Y-59189735D01*
X84729503Y-59189737D01*
X84884153Y-59220499D01*
X84884156Y-59220500D01*
X84884158Y-59220500D01*
X85041844Y-59220500D01*
X85041845Y-59220499D01*
X85196497Y-59189737D01*
X85342179Y-59129394D01*
X85473289Y-59041789D01*
X85584789Y-58930289D01*
X85672394Y-58799179D01*
X85732737Y-58653497D01*
X85763500Y-58498842D01*
X85763500Y-58341158D01*
X85763500Y-58341155D01*
X85763499Y-58341153D01*
X85733796Y-58191827D01*
X85732737Y-58186503D01*
X85732735Y-58186498D01*
X85672397Y-58040827D01*
X85672390Y-58040814D01*
X85584789Y-57909711D01*
X85584786Y-57909707D01*
X85473292Y-57798213D01*
X85473288Y-57798210D01*
X85342185Y-57710609D01*
X85342172Y-57710602D01*
X85196501Y-57650264D01*
X85196489Y-57650261D01*
X85041845Y-57619500D01*
X85041842Y-57619500D01*
X84884158Y-57619500D01*
X84884155Y-57619500D01*
X84729510Y-57650261D01*
X84729498Y-57650264D01*
X84583827Y-57710602D01*
X84583814Y-57710609D01*
X84452711Y-57798210D01*
X84452707Y-57798213D01*
X84341213Y-57909707D01*
X84341210Y-57909711D01*
X84253609Y-58040814D01*
X84253602Y-58040827D01*
X84193264Y-58186498D01*
X84193261Y-58186510D01*
X84162500Y-58341153D01*
X83381211Y-58341153D01*
X83394737Y-58308497D01*
X83425210Y-58155300D01*
X83425500Y-58153844D01*
X83425500Y-57996155D01*
X83425499Y-57996153D01*
X83394737Y-57841503D01*
X83376805Y-57798210D01*
X83334397Y-57695827D01*
X83334390Y-57695814D01*
X83246789Y-57564711D01*
X83246786Y-57564707D01*
X83135292Y-57453213D01*
X83135288Y-57453210D01*
X83004185Y-57365609D01*
X83004172Y-57365602D01*
X82858501Y-57305264D01*
X82858489Y-57305261D01*
X82703845Y-57274500D01*
X82703842Y-57274500D01*
X82546158Y-57274500D01*
X82546155Y-57274500D01*
X82391510Y-57305261D01*
X82391498Y-57305264D01*
X82245827Y-57365602D01*
X82245814Y-57365609D01*
X82114711Y-57453210D01*
X82114707Y-57453213D01*
X82003213Y-57564707D01*
X82003210Y-57564711D01*
X81915609Y-57695814D01*
X81915602Y-57695827D01*
X81855264Y-57841498D01*
X81855261Y-57841510D01*
X81824500Y-57996153D01*
X64110500Y-57996153D01*
X64110500Y-55274000D01*
X64130185Y-55206961D01*
X64182989Y-55161206D01*
X64234500Y-55150000D01*
X68933224Y-55150000D01*
X69000263Y-55169685D01*
G37*
%TD.AperFunction*%
%TD*%
%TA.AperFunction,Conductor*%
%TO.N,LIPO GND*%
G36*
X65454139Y-85014261D02*
G01*
X68672328Y-86209761D01*
X68728316Y-86251559D01*
X68752819Y-86316991D01*
X68738057Y-86385284D01*
X68688717Y-86434754D01*
X68647716Y-86445247D01*
X68642964Y-86450000D01*
X68642964Y-87100000D01*
X68142964Y-87100000D01*
X68142964Y-86450000D01*
X67899394Y-86450000D01*
X67715866Y-86486506D01*
X67715858Y-86486508D01*
X67542972Y-86558119D01*
X67542963Y-86558124D01*
X67387374Y-86662086D01*
X67387370Y-86662089D01*
X67255053Y-86794406D01*
X67255050Y-86794410D01*
X67151088Y-86949999D01*
X67151083Y-86950008D01*
X67079471Y-87122896D01*
X67079470Y-87122899D01*
X67074079Y-87149999D01*
X67074080Y-87150000D01*
X67825976Y-87150000D01*
X67808759Y-87159940D01*
X67752904Y-87215795D01*
X67713408Y-87284204D01*
X67692964Y-87360504D01*
X67692964Y-87439496D01*
X67713408Y-87515796D01*
X67752904Y-87584205D01*
X67808759Y-87640060D01*
X67825976Y-87650000D01*
X67074080Y-87650000D01*
X67079470Y-87677100D01*
X67079471Y-87677103D01*
X67151083Y-87849991D01*
X67151088Y-87850000D01*
X67255050Y-88005589D01*
X67255053Y-88005593D01*
X67387370Y-88137910D01*
X67387374Y-88137913D01*
X67542963Y-88241875D01*
X67542972Y-88241880D01*
X67715858Y-88313491D01*
X67715866Y-88313493D01*
X67899392Y-88349999D01*
X67899395Y-88350000D01*
X68142964Y-88350000D01*
X68142964Y-87700000D01*
X68642964Y-87700000D01*
X68642964Y-88350000D01*
X68886533Y-88350000D01*
X68886535Y-88349999D01*
X69070061Y-88313493D01*
X69070069Y-88313491D01*
X69242955Y-88241880D01*
X69242964Y-88241875D01*
X69398553Y-88137913D01*
X69398557Y-88137910D01*
X69530874Y-88005593D01*
X69530877Y-88005589D01*
X69634839Y-87850000D01*
X69634844Y-87849991D01*
X69706456Y-87677103D01*
X69706457Y-87677100D01*
X69711848Y-87650000D01*
X68959952Y-87650000D01*
X68977169Y-87640060D01*
X69033024Y-87584205D01*
X69072520Y-87515796D01*
X69092964Y-87439496D01*
X69092964Y-87360504D01*
X69072520Y-87284204D01*
X69033024Y-87215795D01*
X68977169Y-87159940D01*
X68959952Y-87150000D01*
X69711848Y-87150000D01*
X69711848Y-87149999D01*
X69706457Y-87122899D01*
X69706456Y-87122896D01*
X69634844Y-86950008D01*
X69634839Y-86949999D01*
X69530877Y-86794410D01*
X69530874Y-86794406D01*
X69448649Y-86712181D01*
X69415164Y-86650858D01*
X69420148Y-86581166D01*
X69462020Y-86525233D01*
X69527484Y-86500816D01*
X69536330Y-86500500D01*
X70279598Y-86500500D01*
X70346637Y-86520185D01*
X70392392Y-86572989D01*
X70402336Y-86642147D01*
X70373311Y-86705703D01*
X70367279Y-86712181D01*
X70285053Y-86794406D01*
X70285050Y-86794410D01*
X70181088Y-86949999D01*
X70181083Y-86950008D01*
X70109471Y-87122896D01*
X70109470Y-87122899D01*
X70104079Y-87149999D01*
X70104080Y-87150000D01*
X70855976Y-87150000D01*
X70838759Y-87159940D01*
X70782904Y-87215795D01*
X70743408Y-87284204D01*
X70722964Y-87360504D01*
X70722964Y-87439496D01*
X70743408Y-87515796D01*
X70782904Y-87584205D01*
X70838759Y-87640060D01*
X70855976Y-87650000D01*
X70104080Y-87650000D01*
X70109470Y-87677100D01*
X70109471Y-87677103D01*
X70181083Y-87849991D01*
X70181088Y-87850000D01*
X70285050Y-88005589D01*
X70285053Y-88005593D01*
X70417370Y-88137910D01*
X70417374Y-88137913D01*
X70578035Y-88245264D01*
X70577297Y-88246367D01*
X70622288Y-88290546D01*
X70637760Y-88358681D01*
X70628562Y-88398413D01*
X70585630Y-88502059D01*
X70585627Y-88502071D01*
X70552964Y-88666277D01*
X70552964Y-88833722D01*
X70585627Y-88997928D01*
X70585629Y-88997936D01*
X70639045Y-89126893D01*
X70646514Y-89196363D01*
X70639045Y-89221799D01*
X70585148Y-89351917D01*
X70585146Y-89351925D01*
X70552464Y-89516228D01*
X70552464Y-89683771D01*
X70585146Y-89848074D01*
X70585149Y-89848086D01*
X70638774Y-89977548D01*
X70646243Y-90047017D01*
X70638774Y-90072452D01*
X70585149Y-90201913D01*
X70585146Y-90201925D01*
X70552464Y-90366228D01*
X70552464Y-90533771D01*
X70585146Y-90698074D01*
X70585149Y-90698086D01*
X70638774Y-90827548D01*
X70646243Y-90897017D01*
X70638774Y-90922452D01*
X70585149Y-91051913D01*
X70585146Y-91051925D01*
X70552464Y-91216228D01*
X70552464Y-91383771D01*
X70585146Y-91548074D01*
X70585149Y-91548086D01*
X70638774Y-91677548D01*
X70646243Y-91747017D01*
X70638774Y-91772452D01*
X70585149Y-91901913D01*
X70585146Y-91901925D01*
X70552464Y-92066228D01*
X70552464Y-92233771D01*
X70585146Y-92398074D01*
X70585149Y-92398086D01*
X70638774Y-92527548D01*
X70646243Y-92597017D01*
X70638774Y-92622452D01*
X70585149Y-92751913D01*
X70585146Y-92751925D01*
X70552464Y-92916228D01*
X70552464Y-93083771D01*
X70585146Y-93248074D01*
X70585149Y-93248086D01*
X70638774Y-93377548D01*
X70646243Y-93447017D01*
X70638774Y-93472452D01*
X70585149Y-93601913D01*
X70585146Y-93601925D01*
X70552464Y-93766228D01*
X70552464Y-93933771D01*
X70585146Y-94098074D01*
X70585148Y-94098082D01*
X70639045Y-94228201D01*
X70646514Y-94297671D01*
X70639045Y-94323107D01*
X70585629Y-94452063D01*
X70585627Y-94452071D01*
X70552964Y-94616277D01*
X70552964Y-94783722D01*
X70585627Y-94947928D01*
X70585630Y-94947940D01*
X70628561Y-95051586D01*
X70636030Y-95121056D01*
X70604754Y-95183535D01*
X70577754Y-95204316D01*
X70578035Y-95204736D01*
X70417374Y-95312086D01*
X70417370Y-95312089D01*
X70285053Y-95444406D01*
X70285050Y-95444410D01*
X70181088Y-95599999D01*
X70181083Y-95600008D01*
X70109471Y-95772896D01*
X70109470Y-95772899D01*
X70104079Y-95799999D01*
X70104080Y-95800000D01*
X70855976Y-95800000D01*
X70838759Y-95809940D01*
X70782904Y-95865795D01*
X70743408Y-95934204D01*
X70722964Y-96010504D01*
X70722964Y-96089496D01*
X70743408Y-96165796D01*
X70782904Y-96234205D01*
X70838759Y-96290060D01*
X70855976Y-96300000D01*
X70104080Y-96300000D01*
X70109470Y-96327100D01*
X70109471Y-96327103D01*
X70181083Y-96499991D01*
X70181088Y-96500000D01*
X70285050Y-96655589D01*
X70285053Y-96655593D01*
X70417370Y-96787910D01*
X70417374Y-96787913D01*
X70572963Y-96891875D01*
X70572972Y-96891880D01*
X70745858Y-96963491D01*
X70745866Y-96963493D01*
X70929392Y-96999999D01*
X70929395Y-97000000D01*
X71280931Y-97000000D01*
X71347970Y-97019685D01*
X71393725Y-97072489D01*
X71403669Y-97141647D01*
X71395492Y-97171453D01*
X71360263Y-97256502D01*
X71360261Y-97256510D01*
X71329500Y-97411153D01*
X71329500Y-97568846D01*
X71360261Y-97723489D01*
X71360264Y-97723501D01*
X71420602Y-97869172D01*
X71420609Y-97869185D01*
X71508210Y-98000288D01*
X71508213Y-98000292D01*
X71619707Y-98111786D01*
X71619711Y-98111789D01*
X71750814Y-98199390D01*
X71750827Y-98199397D01*
X71896498Y-98259735D01*
X71896503Y-98259737D01*
X72051153Y-98290499D01*
X72051156Y-98290500D01*
X72051158Y-98290500D01*
X72208844Y-98290500D01*
X72208845Y-98290499D01*
X72363497Y-98259737D01*
X72509179Y-98199394D01*
X72640289Y-98111789D01*
X72751789Y-98000289D01*
X72839394Y-97869179D01*
X72859190Y-97821385D01*
X72903027Y-97766984D01*
X72949553Y-97747222D01*
X73037461Y-97729737D01*
X73183143Y-97669394D01*
X73314253Y-97581789D01*
X73425753Y-97470289D01*
X73513358Y-97339179D01*
X73573701Y-97193497D01*
X73604464Y-97038842D01*
X73604464Y-96881158D01*
X73604464Y-96881155D01*
X73604463Y-96881153D01*
X73585916Y-96787913D01*
X73573701Y-96726503D01*
X73558518Y-96689847D01*
X73513361Y-96580827D01*
X73513359Y-96580823D01*
X73513358Y-96580821D01*
X73437831Y-96467788D01*
X73416954Y-96401112D01*
X73426375Y-96351441D01*
X73436454Y-96327109D01*
X73436454Y-96327108D01*
X73441848Y-96300000D01*
X73294681Y-96300000D01*
X73227642Y-96280315D01*
X73225789Y-96279101D01*
X73183151Y-96250610D01*
X73183136Y-96250602D01*
X73037465Y-96190264D01*
X73037453Y-96190261D01*
X72882809Y-96159500D01*
X72882806Y-96159500D01*
X72804207Y-96159500D01*
X72822964Y-96089496D01*
X72822964Y-96010504D01*
X72802520Y-95934204D01*
X72763024Y-95865795D01*
X72707169Y-95809940D01*
X72689952Y-95800000D01*
X73441848Y-95800000D01*
X73441848Y-95799999D01*
X73436457Y-95772899D01*
X73436456Y-95772896D01*
X73364844Y-95600008D01*
X73364842Y-95600005D01*
X73314391Y-95524501D01*
X73258181Y-95518965D01*
X73193393Y-95492804D01*
X73182654Y-95483243D01*
X72870564Y-95171153D01*
X74703547Y-95171153D01*
X74703547Y-95328846D01*
X74734308Y-95483489D01*
X74734311Y-95483501D01*
X74794649Y-95629172D01*
X74794656Y-95629185D01*
X74882257Y-95760288D01*
X74882260Y-95760292D01*
X74993754Y-95871786D01*
X74993758Y-95871789D01*
X75124861Y-95959390D01*
X75124874Y-95959397D01*
X75248259Y-96010504D01*
X75270550Y-96019737D01*
X75425200Y-96050499D01*
X75425203Y-96050500D01*
X75425205Y-96050500D01*
X75582890Y-96050500D01*
X75616274Y-96043859D01*
X75647578Y-96037632D01*
X75717169Y-96043859D01*
X75772347Y-96086721D01*
X75774872Y-96090358D01*
X75832257Y-96176242D01*
X75943754Y-96287739D01*
X75943758Y-96287742D01*
X76074861Y-96375343D01*
X76074874Y-96375350D01*
X76196410Y-96425691D01*
X76220550Y-96435690D01*
X76375200Y-96466452D01*
X76375203Y-96466453D01*
X76375205Y-96466453D01*
X76532891Y-96466453D01*
X76532892Y-96466452D01*
X76687544Y-96435690D01*
X76833226Y-96375347D01*
X76833231Y-96375343D01*
X76833234Y-96375342D01*
X76888804Y-96338211D01*
X76942639Y-96302239D01*
X77009314Y-96281361D01*
X77076695Y-96299845D01*
X77080420Y-96302239D01*
X77174861Y-96365343D01*
X77174874Y-96365350D01*
X77320545Y-96425688D01*
X77320550Y-96425690D01*
X77441311Y-96449711D01*
X77475200Y-96456452D01*
X77475203Y-96456453D01*
X77475205Y-96456453D01*
X77632891Y-96456453D01*
X77632892Y-96456452D01*
X77787544Y-96425690D01*
X77906416Y-96376452D01*
X77933219Y-96365350D01*
X77933219Y-96365349D01*
X77933226Y-96365347D01*
X78064336Y-96277742D01*
X78175836Y-96166242D01*
X78263441Y-96035132D01*
X78269559Y-96020363D01*
X78323782Y-95889454D01*
X78323784Y-95889450D01*
X78354547Y-95734795D01*
X78354547Y-95577111D01*
X78354547Y-95577108D01*
X78354546Y-95577106D01*
X78342235Y-95515210D01*
X78338634Y-95497106D01*
X78953547Y-95497106D01*
X78953547Y-95654799D01*
X78984308Y-95809442D01*
X78984311Y-95809454D01*
X79044649Y-95955125D01*
X79044656Y-95955138D01*
X79132257Y-96086241D01*
X79132260Y-96086245D01*
X79243754Y-96197739D01*
X79243758Y-96197742D01*
X79374861Y-96285343D01*
X79374874Y-96285350D01*
X79502494Y-96338211D01*
X79520550Y-96345690D01*
X79669620Y-96375342D01*
X79675200Y-96376452D01*
X79675203Y-96376453D01*
X79675205Y-96376453D01*
X79832891Y-96376453D01*
X79832892Y-96376452D01*
X79987544Y-96345690D01*
X80111015Y-96294547D01*
X80133219Y-96285350D01*
X80133219Y-96285349D01*
X80133226Y-96285347D01*
X80264336Y-96197742D01*
X80375836Y-96086242D01*
X80463441Y-95955132D01*
X80509682Y-95843493D01*
X80553521Y-95789093D01*
X80619815Y-95767027D01*
X80648433Y-95769331D01*
X80775200Y-95794546D01*
X80775203Y-95794547D01*
X80775205Y-95794547D01*
X80932891Y-95794547D01*
X81054062Y-95770444D01*
X81087544Y-95763784D01*
X81087544Y-95763783D01*
X81091002Y-95763096D01*
X81160594Y-95769323D01*
X81215771Y-95812186D01*
X81229755Y-95837260D01*
X81244651Y-95873222D01*
X81244656Y-95873232D01*
X81332257Y-96004335D01*
X81332260Y-96004339D01*
X81443754Y-96115833D01*
X81443758Y-96115836D01*
X81574861Y-96203437D01*
X81574874Y-96203444D01*
X81696410Y-96253785D01*
X81720550Y-96263784D01*
X81875200Y-96294546D01*
X81875203Y-96294547D01*
X81875205Y-96294547D01*
X82032891Y-96294547D01*
X82032892Y-96294546D01*
X82187544Y-96263784D01*
X82300213Y-96217114D01*
X82333219Y-96203444D01*
X82333219Y-96203443D01*
X82333226Y-96203441D01*
X82333231Y-96203437D01*
X82333234Y-96203436D01*
X82374761Y-96175688D01*
X82442639Y-96130333D01*
X82509314Y-96109455D01*
X82576695Y-96127939D01*
X82580420Y-96130333D01*
X82674861Y-96193437D01*
X82674874Y-96193444D01*
X82812887Y-96250610D01*
X82820550Y-96253784D01*
X82959188Y-96281361D01*
X82975200Y-96284546D01*
X82975203Y-96284547D01*
X82975205Y-96284547D01*
X83132891Y-96284547D01*
X83132892Y-96284546D01*
X83287544Y-96253784D01*
X83401814Y-96206452D01*
X83433219Y-96193444D01*
X83433219Y-96193443D01*
X83433226Y-96193441D01*
X83564336Y-96105836D01*
X83570997Y-96099174D01*
X83632315Y-96065685D01*
X83702007Y-96070663D01*
X83727576Y-96083747D01*
X83774868Y-96115347D01*
X83774870Y-96115348D01*
X83774874Y-96115350D01*
X83920545Y-96175688D01*
X83920550Y-96175690D01*
X84060038Y-96203436D01*
X84075200Y-96206452D01*
X84075203Y-96206453D01*
X84075205Y-96206453D01*
X84232891Y-96206453D01*
X84232892Y-96206452D01*
X84387544Y-96175690D01*
X84502826Y-96127939D01*
X84533219Y-96115350D01*
X84533219Y-96115349D01*
X84533226Y-96115347D01*
X84664336Y-96027742D01*
X84775836Y-95916242D01*
X84863441Y-95785132D01*
X84923784Y-95639450D01*
X84954547Y-95484795D01*
X84954547Y-95327111D01*
X84954547Y-95327108D01*
X84954546Y-95327106D01*
X84928621Y-95196774D01*
X84923784Y-95172456D01*
X84923244Y-95171153D01*
X84863444Y-95026780D01*
X84863437Y-95026767D01*
X84775836Y-94895664D01*
X84775833Y-94895660D01*
X84664339Y-94784166D01*
X84664335Y-94784163D01*
X84533232Y-94696562D01*
X84533219Y-94696555D01*
X84387548Y-94636217D01*
X84387536Y-94636214D01*
X84232892Y-94605453D01*
X84232889Y-94605453D01*
X84075205Y-94605453D01*
X84075202Y-94605453D01*
X83920557Y-94636214D01*
X83920545Y-94636217D01*
X83774874Y-94696555D01*
X83774861Y-94696562D01*
X83643758Y-94784163D01*
X83643754Y-94784166D01*
X83637090Y-94790831D01*
X83575767Y-94824316D01*
X83506075Y-94819332D01*
X83480518Y-94806252D01*
X83433232Y-94774656D01*
X83433219Y-94774649D01*
X83287548Y-94714311D01*
X83287536Y-94714308D01*
X83132892Y-94683547D01*
X83132889Y-94683547D01*
X82975205Y-94683547D01*
X82975202Y-94683547D01*
X82820557Y-94714308D01*
X82820545Y-94714311D01*
X82674874Y-94774649D01*
X82674861Y-94774656D01*
X82565455Y-94847760D01*
X82498777Y-94868638D01*
X82431397Y-94850154D01*
X82427673Y-94847760D01*
X82333232Y-94784656D01*
X82333219Y-94784649D01*
X82187548Y-94724311D01*
X82187536Y-94724308D01*
X82032892Y-94693547D01*
X82032889Y-94693547D01*
X81875205Y-94693547D01*
X81875200Y-94693547D01*
X81717090Y-94724997D01*
X81647498Y-94718770D01*
X81592321Y-94675907D01*
X81578338Y-94650832D01*
X81563444Y-94614873D01*
X81563437Y-94614861D01*
X81475836Y-94483758D01*
X81475833Y-94483754D01*
X81364339Y-94372260D01*
X81364335Y-94372257D01*
X81233232Y-94284656D01*
X81233219Y-94284649D01*
X81087548Y-94224311D01*
X81087536Y-94224308D01*
X80932892Y-94193547D01*
X80932889Y-94193547D01*
X80775205Y-94193547D01*
X80775202Y-94193547D01*
X80620557Y-94224308D01*
X80620545Y-94224311D01*
X80474874Y-94284649D01*
X80474861Y-94284656D01*
X80343758Y-94372257D01*
X80343754Y-94372260D01*
X80232260Y-94483754D01*
X80232257Y-94483758D01*
X80144656Y-94614861D01*
X80144651Y-94614871D01*
X80098411Y-94726504D01*
X80054570Y-94780908D01*
X79988275Y-94802972D01*
X79959659Y-94800668D01*
X79832893Y-94775453D01*
X79832889Y-94775453D01*
X79675205Y-94775453D01*
X79675202Y-94775453D01*
X79520557Y-94806214D01*
X79520545Y-94806217D01*
X79374874Y-94866555D01*
X79374861Y-94866562D01*
X79243758Y-94954163D01*
X79243754Y-94954166D01*
X79132260Y-95065660D01*
X79132257Y-95065664D01*
X79044656Y-95196767D01*
X79044649Y-95196780D01*
X78984311Y-95342451D01*
X78984308Y-95342463D01*
X78953547Y-95497106D01*
X78338634Y-95497106D01*
X78323785Y-95422461D01*
X78323784Y-95422460D01*
X78323784Y-95422456D01*
X78323782Y-95422451D01*
X78263444Y-95276780D01*
X78263437Y-95276767D01*
X78175836Y-95145664D01*
X78175833Y-95145660D01*
X78064339Y-95034166D01*
X78064335Y-95034163D01*
X77933232Y-94946562D01*
X77933219Y-94946555D01*
X77787548Y-94886217D01*
X77787536Y-94886214D01*
X77632892Y-94855453D01*
X77632889Y-94855453D01*
X77475205Y-94855453D01*
X77475202Y-94855453D01*
X77320557Y-94886214D01*
X77320545Y-94886217D01*
X77174874Y-94946555D01*
X77174861Y-94946562D01*
X77065455Y-95019666D01*
X76998777Y-95040544D01*
X76931397Y-95022060D01*
X76927673Y-95019666D01*
X76833232Y-94956562D01*
X76833219Y-94956555D01*
X76687548Y-94896217D01*
X76687536Y-94896214D01*
X76532892Y-94865453D01*
X76532889Y-94865453D01*
X76375205Y-94865453D01*
X76375200Y-94865453D01*
X76310514Y-94878320D01*
X76240922Y-94872093D01*
X76185745Y-94829229D01*
X76183221Y-94825593D01*
X76125839Y-94739715D01*
X76125833Y-94739707D01*
X76014339Y-94628213D01*
X76014335Y-94628210D01*
X75883232Y-94540609D01*
X75883219Y-94540602D01*
X75737548Y-94480264D01*
X75737536Y-94480261D01*
X75582892Y-94449500D01*
X75582889Y-94449500D01*
X75425205Y-94449500D01*
X75425202Y-94449500D01*
X75270557Y-94480261D01*
X75270545Y-94480264D01*
X75124874Y-94540602D01*
X75124861Y-94540609D01*
X74993758Y-94628210D01*
X74993754Y-94628213D01*
X74882260Y-94739707D01*
X74882257Y-94739711D01*
X74794656Y-94870814D01*
X74794649Y-94870827D01*
X74734311Y-95016498D01*
X74734308Y-95016510D01*
X74703547Y-95171153D01*
X72870564Y-95171153D01*
X72752964Y-95053553D01*
X72324457Y-95482060D01*
X72263134Y-95515545D01*
X72193442Y-95510561D01*
X72149095Y-95482060D01*
X72077964Y-95410929D01*
X72006832Y-95482061D01*
X71945509Y-95515545D01*
X71875817Y-95510561D01*
X71831470Y-95482060D01*
X71313868Y-94964457D01*
X71309529Y-94956511D01*
X71302281Y-94951085D01*
X71293046Y-94926325D01*
X71280383Y-94903134D01*
X71281028Y-94894103D01*
X71277865Y-94885621D01*
X71282845Y-94862724D01*
X71289673Y-94869552D01*
X71363182Y-94900000D01*
X71442746Y-94900000D01*
X71516255Y-94869552D01*
X71572516Y-94813291D01*
X71602964Y-94739782D01*
X71602964Y-94677380D01*
X71647168Y-94668587D01*
X71716759Y-94674814D01*
X71759040Y-94702523D01*
X72077964Y-95021446D01*
X72077965Y-95021446D01*
X72396887Y-94702523D01*
X72458210Y-94669038D01*
X72508758Y-94668587D01*
X72552964Y-94677380D01*
X72552964Y-94739782D01*
X72583412Y-94813291D01*
X72639673Y-94869552D01*
X72713182Y-94900000D01*
X72792746Y-94900000D01*
X72866255Y-94869552D01*
X72922516Y-94813291D01*
X72952964Y-94739782D01*
X72952964Y-94677380D01*
X72997169Y-94668587D01*
X73066760Y-94674814D01*
X73109041Y-94702523D01*
X73507078Y-95100561D01*
X73570298Y-94947936D01*
X73570300Y-94947928D01*
X73602963Y-94783722D01*
X73602964Y-94783720D01*
X73602964Y-94616279D01*
X73602963Y-94616277D01*
X73570300Y-94452071D01*
X73570298Y-94452063D01*
X73516882Y-94323105D01*
X73509413Y-94253636D01*
X73516877Y-94228211D01*
X73570780Y-94098082D01*
X73603464Y-93933767D01*
X73603464Y-93766233D01*
X73570780Y-93601918D01*
X73520757Y-93481153D01*
X86299500Y-93481153D01*
X86299500Y-93638846D01*
X86330261Y-93793489D01*
X86330264Y-93793501D01*
X86390602Y-93939172D01*
X86390609Y-93939185D01*
X86478210Y-94070288D01*
X86478213Y-94070292D01*
X86589707Y-94181786D01*
X86589711Y-94181789D01*
X86720814Y-94269390D01*
X86720827Y-94269397D01*
X86866498Y-94329735D01*
X86866503Y-94329737D01*
X87021153Y-94360499D01*
X87021156Y-94360500D01*
X87021158Y-94360500D01*
X87178844Y-94360500D01*
X87178845Y-94360499D01*
X87333497Y-94329737D01*
X87442333Y-94284656D01*
X87457548Y-94278354D01*
X87527017Y-94270885D01*
X87552452Y-94278354D01*
X87676498Y-94329735D01*
X87676503Y-94329737D01*
X87831153Y-94360499D01*
X87831156Y-94360500D01*
X87831158Y-94360500D01*
X87988844Y-94360500D01*
X87988845Y-94360499D01*
X88143497Y-94329737D01*
X88256166Y-94283067D01*
X88289172Y-94269397D01*
X88289172Y-94269396D01*
X88289179Y-94269394D01*
X88420289Y-94181789D01*
X88531789Y-94070289D01*
X88619394Y-93939179D01*
X88679737Y-93793497D01*
X88710500Y-93638842D01*
X88710500Y-93481158D01*
X88710500Y-93481155D01*
X88710499Y-93481153D01*
X88694926Y-93402863D01*
X88679737Y-93326503D01*
X88647256Y-93248086D01*
X88619397Y-93180827D01*
X88619390Y-93180814D01*
X88531789Y-93049711D01*
X88531786Y-93049707D01*
X88420292Y-92938213D01*
X88420288Y-92938210D01*
X88289185Y-92850609D01*
X88289172Y-92850602D01*
X88143501Y-92790264D01*
X88143489Y-92790261D01*
X87988845Y-92759500D01*
X87988842Y-92759500D01*
X87831158Y-92759500D01*
X87831155Y-92759500D01*
X87676510Y-92790261D01*
X87676498Y-92790264D01*
X87552452Y-92841645D01*
X87482982Y-92849114D01*
X87457548Y-92841645D01*
X87333501Y-92790264D01*
X87333489Y-92790261D01*
X87178845Y-92759500D01*
X87178842Y-92759500D01*
X87021158Y-92759500D01*
X87021155Y-92759500D01*
X86866510Y-92790261D01*
X86866498Y-92790264D01*
X86720827Y-92850602D01*
X86720814Y-92850609D01*
X86589711Y-92938210D01*
X86589707Y-92938213D01*
X86478213Y-93049707D01*
X86478210Y-93049711D01*
X86390609Y-93180814D01*
X86390602Y-93180827D01*
X86330264Y-93326498D01*
X86330261Y-93326510D01*
X86299500Y-93481153D01*
X73520757Y-93481153D01*
X73517152Y-93472451D01*
X73509684Y-93402983D01*
X73517153Y-93377547D01*
X73570780Y-93248082D01*
X73603464Y-93083767D01*
X73603464Y-92916233D01*
X73570780Y-92751918D01*
X73517152Y-92622451D01*
X73509684Y-92552984D01*
X73517153Y-92527547D01*
X73570780Y-92398082D01*
X73603464Y-92233767D01*
X73603464Y-92066233D01*
X73570780Y-91901918D01*
X73517152Y-91772451D01*
X73509684Y-91702984D01*
X73517153Y-91677547D01*
X73570780Y-91548082D01*
X73603464Y-91383767D01*
X73603464Y-91216233D01*
X73570780Y-91051918D01*
X73517152Y-90922451D01*
X73509684Y-90852984D01*
X73517153Y-90827547D01*
X73570780Y-90698082D01*
X73603464Y-90533767D01*
X73603464Y-90366233D01*
X73570780Y-90201918D01*
X73517152Y-90072451D01*
X73509684Y-90002984D01*
X73517153Y-89977547D01*
X73570780Y-89848082D01*
X73603464Y-89683767D01*
X73603464Y-89516233D01*
X73570780Y-89351918D01*
X73516881Y-89221797D01*
X73509413Y-89152330D01*
X73516882Y-89126892D01*
X73570299Y-88997932D01*
X73570300Y-88997928D01*
X73602963Y-88833722D01*
X73602964Y-88833720D01*
X73602964Y-88666279D01*
X73602963Y-88666277D01*
X73570300Y-88502071D01*
X73570298Y-88502063D01*
X73507078Y-88349437D01*
X73109040Y-88747476D01*
X73047717Y-88780961D01*
X72997168Y-88781412D01*
X72952964Y-88772619D01*
X72952964Y-88710218D01*
X72922516Y-88636709D01*
X72866255Y-88580448D01*
X72792746Y-88550000D01*
X72713182Y-88550000D01*
X72639673Y-88580448D01*
X72583412Y-88636709D01*
X72552964Y-88710218D01*
X72552964Y-88772618D01*
X72508758Y-88781412D01*
X72439166Y-88775185D01*
X72396886Y-88747476D01*
X72077965Y-88428553D01*
X72077964Y-88428553D01*
X71759040Y-88747476D01*
X71754278Y-88750075D01*
X71751283Y-88754601D01*
X71723936Y-88766643D01*
X71697717Y-88780961D01*
X71690984Y-88781155D01*
X71687339Y-88782761D01*
X71663344Y-88781955D01*
X71652048Y-88782282D01*
X71649592Y-88781894D01*
X71602964Y-88772619D01*
X71602964Y-88710218D01*
X71572516Y-88636709D01*
X71516255Y-88580448D01*
X71442746Y-88550000D01*
X71363182Y-88550000D01*
X71289673Y-88580448D01*
X71281141Y-88588979D01*
X71285367Y-88529889D01*
X71313868Y-88485542D01*
X71831470Y-87967939D01*
X71892793Y-87934454D01*
X71962484Y-87939438D01*
X72006832Y-87967938D01*
X72077964Y-88039069D01*
X72149095Y-87967939D01*
X72210418Y-87934454D01*
X72280110Y-87939438D01*
X72324457Y-87967939D01*
X72752963Y-88396445D01*
X73182654Y-87966755D01*
X73243977Y-87933270D01*
X73258182Y-87931033D01*
X73314392Y-87925497D01*
X73364844Y-87849991D01*
X73436456Y-87677103D01*
X73436457Y-87677100D01*
X73441848Y-87650000D01*
X72689952Y-87650000D01*
X72707169Y-87640060D01*
X72763024Y-87584205D01*
X72802520Y-87515796D01*
X72822964Y-87439496D01*
X72822964Y-87360504D01*
X72802520Y-87284204D01*
X72763024Y-87215795D01*
X72707169Y-87159940D01*
X72689952Y-87150000D01*
X73441848Y-87150000D01*
X73441848Y-87149999D01*
X73436457Y-87122899D01*
X73436456Y-87122896D01*
X73364844Y-86950008D01*
X73364839Y-86949999D01*
X73260877Y-86794410D01*
X73260874Y-86794406D01*
X73178649Y-86712181D01*
X73145164Y-86650858D01*
X73150148Y-86581166D01*
X73192020Y-86525233D01*
X73257484Y-86500816D01*
X73266330Y-86500500D01*
X75325576Y-86500500D01*
X75392615Y-86520185D01*
X75438370Y-86572989D01*
X75448314Y-86642147D01*
X75440137Y-86671952D01*
X75380264Y-86816498D01*
X75380261Y-86816510D01*
X75349500Y-86971153D01*
X75349500Y-87128846D01*
X75380261Y-87283489D01*
X75380264Y-87283501D01*
X75440602Y-87429172D01*
X75440609Y-87429185D01*
X75528210Y-87560288D01*
X75528213Y-87560292D01*
X75639707Y-87671786D01*
X75639711Y-87671789D01*
X75770814Y-87759390D01*
X75770827Y-87759397D01*
X75884046Y-87806293D01*
X75916503Y-87819737D01*
X76068599Y-87849991D01*
X76071153Y-87850499D01*
X76071156Y-87850500D01*
X76071158Y-87850500D01*
X76228844Y-87850500D01*
X76228845Y-87850499D01*
X76383497Y-87819737D01*
X76496166Y-87773067D01*
X76529172Y-87759397D01*
X76529172Y-87759396D01*
X76529179Y-87759394D01*
X76660289Y-87671789D01*
X76771789Y-87560289D01*
X76775143Y-87555269D01*
X76828749Y-87510461D01*
X76898073Y-87501748D01*
X76961104Y-87531897D01*
X76981351Y-87555262D01*
X77058210Y-87670288D01*
X77058213Y-87670292D01*
X77169707Y-87781786D01*
X77169711Y-87781789D01*
X77300814Y-87869390D01*
X77300827Y-87869397D01*
X77446498Y-87929735D01*
X77446503Y-87929737D01*
X77601153Y-87960499D01*
X77601156Y-87960500D01*
X77601158Y-87960500D01*
X77758844Y-87960500D01*
X77758845Y-87960499D01*
X77913497Y-87929737D01*
X78059179Y-87869394D01*
X78190289Y-87781789D01*
X78301789Y-87670289D01*
X78389394Y-87539179D01*
X78399080Y-87515796D01*
X78404898Y-87501748D01*
X78449737Y-87393497D01*
X78480500Y-87238842D01*
X78480500Y-87081158D01*
X78480500Y-87081155D01*
X78480499Y-87081153D01*
X78462731Y-86991827D01*
X78449737Y-86926503D01*
X78439940Y-86902851D01*
X78389397Y-86780827D01*
X78389390Y-86780814D01*
X78330976Y-86693391D01*
X78310098Y-86626713D01*
X78328583Y-86559333D01*
X78380562Y-86512643D01*
X78434078Y-86500500D01*
X82018059Y-86500500D01*
X82085098Y-86520185D01*
X82130853Y-86572989D01*
X82140797Y-86642147D01*
X82111772Y-86705703D01*
X82105740Y-86712181D01*
X82088213Y-86729707D01*
X82088210Y-86729711D01*
X82000609Y-86860814D01*
X82000602Y-86860827D01*
X81940264Y-87006498D01*
X81940261Y-87006510D01*
X81909500Y-87161153D01*
X81909500Y-87318846D01*
X81940261Y-87473489D01*
X81940264Y-87473501D01*
X82000602Y-87619172D01*
X82000609Y-87619185D01*
X82088210Y-87750288D01*
X82088213Y-87750292D01*
X82199707Y-87861786D01*
X82199711Y-87861789D01*
X82330814Y-87949390D01*
X82330827Y-87949397D01*
X82466008Y-88005390D01*
X82476503Y-88009737D01*
X82623964Y-88039069D01*
X82631153Y-88040499D01*
X82631156Y-88040500D01*
X82631158Y-88040500D01*
X82788844Y-88040500D01*
X82788845Y-88040499D01*
X82943497Y-88009737D01*
X83089179Y-87949394D01*
X83220289Y-87861789D01*
X83331789Y-87750289D01*
X83350188Y-87722751D01*
X83403798Y-87677948D01*
X83473122Y-87669239D01*
X83536151Y-87699393D01*
X83556392Y-87722751D01*
X83612213Y-87806292D01*
X83723707Y-87917786D01*
X83723711Y-87917789D01*
X83854814Y-88005390D01*
X83854827Y-88005397D01*
X84000498Y-88065735D01*
X84000503Y-88065737D01*
X84155153Y-88096499D01*
X84155156Y-88096500D01*
X84155158Y-88096500D01*
X84312844Y-88096500D01*
X84312845Y-88096499D01*
X84467497Y-88065737D01*
X84613179Y-88005394D01*
X84744289Y-87917789D01*
X84855789Y-87806289D01*
X84868341Y-87787502D01*
X84921951Y-87742699D01*
X84991275Y-87733990D01*
X85054304Y-87764144D01*
X85074545Y-87787503D01*
X85137210Y-87881289D01*
X85248707Y-87992786D01*
X85248711Y-87992789D01*
X85379814Y-88080390D01*
X85379827Y-88080397D01*
X85518678Y-88137910D01*
X85525503Y-88140737D01*
X85680153Y-88171499D01*
X85680156Y-88171500D01*
X85680158Y-88171500D01*
X85837844Y-88171500D01*
X85837845Y-88171499D01*
X85992497Y-88140737D01*
X86138179Y-88080394D01*
X86269289Y-87992789D01*
X86380789Y-87881289D01*
X86468318Y-87750293D01*
X86468390Y-87750185D01*
X86468390Y-87750184D01*
X86468394Y-87750179D01*
X86528737Y-87604497D01*
X86559500Y-87449842D01*
X86559500Y-87292158D01*
X86559500Y-87292155D01*
X86559499Y-87292153D01*
X86557776Y-87283489D01*
X86528737Y-87137503D01*
X86508880Y-87089564D01*
X86468397Y-86991827D01*
X86468390Y-86991814D01*
X86380789Y-86860711D01*
X86380786Y-86860707D01*
X86269292Y-86749213D01*
X86236949Y-86727602D01*
X86192145Y-86673989D01*
X86183438Y-86604664D01*
X86213593Y-86541637D01*
X86273036Y-86504918D01*
X86305841Y-86500500D01*
X88895500Y-86500500D01*
X88962539Y-86520185D01*
X89008294Y-86572989D01*
X89019500Y-86624500D01*
X89019500Y-109350500D01*
X88999815Y-109417539D01*
X88947011Y-109463294D01*
X88895500Y-109474500D01*
X77945714Y-109474500D01*
X77878675Y-109454815D01*
X77832920Y-109402011D01*
X77822976Y-109332853D01*
X77842612Y-109281609D01*
X77914390Y-109174185D01*
X77914390Y-109174184D01*
X77914394Y-109174179D01*
X77974737Y-109028497D01*
X78005500Y-108873842D01*
X78005500Y-108716158D01*
X78005500Y-108716155D01*
X78005499Y-108716153D01*
X77988636Y-108631378D01*
X77974737Y-108561503D01*
X77969329Y-108548446D01*
X77914397Y-108415827D01*
X77914390Y-108415814D01*
X77826789Y-108284711D01*
X77826786Y-108284707D01*
X77817572Y-108275493D01*
X77784087Y-108214170D01*
X77783636Y-108163619D01*
X77800500Y-108078843D01*
X77800500Y-107921155D01*
X77800499Y-107921153D01*
X77769738Y-107766510D01*
X77769737Y-107766503D01*
X77769735Y-107766498D01*
X77709397Y-107620827D01*
X77709390Y-107620814D01*
X77621789Y-107489711D01*
X77621786Y-107489707D01*
X77510292Y-107378213D01*
X77510288Y-107378210D01*
X77379185Y-107290609D01*
X77379172Y-107290602D01*
X77233501Y-107230264D01*
X77233489Y-107230261D01*
X77078845Y-107199500D01*
X77078842Y-107199500D01*
X76921158Y-107199500D01*
X76921155Y-107199500D01*
X76766510Y-107230261D01*
X76766498Y-107230264D01*
X76620827Y-107290602D01*
X76620814Y-107290609D01*
X76489711Y-107378210D01*
X76489707Y-107378213D01*
X76378213Y-107489707D01*
X76378210Y-107489711D01*
X76290609Y-107620814D01*
X76290602Y-107620827D01*
X76230264Y-107766498D01*
X76230261Y-107766510D01*
X76199500Y-107921153D01*
X76199500Y-108078846D01*
X76230261Y-108233489D01*
X76230264Y-108233501D01*
X76290602Y-108379172D01*
X76290609Y-108379185D01*
X76378210Y-108510288D01*
X76378213Y-108510292D01*
X76387427Y-108519506D01*
X76420912Y-108580829D01*
X76421363Y-108631378D01*
X76404500Y-108716153D01*
X76404500Y-108873846D01*
X76435261Y-109028489D01*
X76435264Y-109028501D01*
X76495602Y-109174172D01*
X76495609Y-109174185D01*
X76567388Y-109281609D01*
X76588266Y-109348287D01*
X76569782Y-109415667D01*
X76517803Y-109462357D01*
X76464286Y-109474500D01*
X69597373Y-109474500D01*
X69530334Y-109454815D01*
X69484579Y-109402011D01*
X69474635Y-109332853D01*
X69494271Y-109281609D01*
X69569390Y-109169185D01*
X69569390Y-109169184D01*
X69569394Y-109169179D01*
X69629737Y-109023497D01*
X69660500Y-108868842D01*
X69660500Y-108711158D01*
X69660500Y-108711155D01*
X69641977Y-108618038D01*
X69648204Y-108548446D01*
X69669395Y-108516206D01*
X69667924Y-108514999D01*
X69671789Y-108510289D01*
X69759390Y-108379185D01*
X69759390Y-108379184D01*
X69759394Y-108379179D01*
X69819737Y-108233497D01*
X69850500Y-108078842D01*
X69850500Y-107921158D01*
X69850500Y-107921155D01*
X69850499Y-107921153D01*
X69819738Y-107766510D01*
X69819737Y-107766503D01*
X69819735Y-107766498D01*
X69759397Y-107620827D01*
X69759390Y-107620814D01*
X69671789Y-107489711D01*
X69671786Y-107489707D01*
X69560292Y-107378213D01*
X69560288Y-107378210D01*
X69429185Y-107290609D01*
X69429172Y-107290602D01*
X69283501Y-107230264D01*
X69283489Y-107230261D01*
X69128845Y-107199500D01*
X69128842Y-107199500D01*
X68971158Y-107199500D01*
X68971155Y-107199500D01*
X68816510Y-107230261D01*
X68816498Y-107230264D01*
X68670827Y-107290602D01*
X68670814Y-107290609D01*
X68539711Y-107378210D01*
X68539707Y-107378213D01*
X68428213Y-107489707D01*
X68428210Y-107489711D01*
X68340609Y-107620814D01*
X68340602Y-107620827D01*
X68280264Y-107766498D01*
X68280261Y-107766510D01*
X68249500Y-107921153D01*
X68249500Y-108078846D01*
X68268022Y-108171963D01*
X68261795Y-108241555D01*
X68240682Y-108273866D01*
X68242072Y-108275007D01*
X68238208Y-108279714D01*
X68150609Y-108410814D01*
X68150602Y-108410827D01*
X68090264Y-108556498D01*
X68090261Y-108556510D01*
X68059500Y-108711153D01*
X68059500Y-108868846D01*
X68090261Y-109023489D01*
X68090264Y-109023501D01*
X68150602Y-109169172D01*
X68150609Y-109169185D01*
X68225729Y-109281609D01*
X68246607Y-109348286D01*
X68228123Y-109415667D01*
X68176144Y-109462357D01*
X68122627Y-109474500D01*
X64084500Y-109474500D01*
X64017461Y-109454815D01*
X63971706Y-109402011D01*
X63960500Y-109350500D01*
X63960500Y-106131941D01*
X63980185Y-106064902D01*
X64032989Y-106019147D01*
X64102147Y-106009203D01*
X64165703Y-106038228D01*
X64172181Y-106044260D01*
X64229707Y-106101786D01*
X64229711Y-106101789D01*
X64360814Y-106189390D01*
X64360827Y-106189397D01*
X64506498Y-106249735D01*
X64506503Y-106249737D01*
X64661153Y-106280499D01*
X64661156Y-106280500D01*
X64661158Y-106280500D01*
X64818844Y-106280500D01*
X64818845Y-106280499D01*
X64973497Y-106249737D01*
X65119179Y-106189394D01*
X65250289Y-106101789D01*
X65361789Y-105990289D01*
X65449394Y-105859179D01*
X65509737Y-105713497D01*
X65540500Y-105558842D01*
X65540500Y-105401158D01*
X65540500Y-105401155D01*
X65540499Y-105401153D01*
X65526031Y-105328419D01*
X65509737Y-105246503D01*
X65482312Y-105180292D01*
X65449397Y-105100827D01*
X65449390Y-105100814D01*
X65361789Y-104969711D01*
X65361786Y-104969707D01*
X65315999Y-104923920D01*
X67499499Y-104923920D01*
X67528340Y-105068907D01*
X67528343Y-105068917D01*
X67584912Y-105205488D01*
X67584919Y-105205501D01*
X67667048Y-105328415D01*
X67667051Y-105328419D01*
X67771580Y-105432948D01*
X67771584Y-105432951D01*
X67894498Y-105515080D01*
X67894511Y-105515087D01*
X68000146Y-105558842D01*
X68031087Y-105571658D01*
X68031091Y-105571658D01*
X68031092Y-105571659D01*
X68176079Y-105600500D01*
X68176082Y-105600500D01*
X68323920Y-105600500D01*
X68421462Y-105581096D01*
X68468913Y-105571658D01*
X68605495Y-105515084D01*
X68728416Y-105432951D01*
X68728418Y-105432948D01*
X68729449Y-105432260D01*
X68796126Y-105411382D01*
X68845792Y-105420801D01*
X68865671Y-105429035D01*
X68891500Y-105439735D01*
X68891502Y-105439735D01*
X68891506Y-105439737D01*
X69046156Y-105470499D01*
X69046159Y-105470500D01*
X69046161Y-105470500D01*
X69203847Y-105470500D01*
X69203848Y-105470499D01*
X69358500Y-105439737D01*
X69504182Y-105379394D01*
X69635292Y-105291789D01*
X69746792Y-105180289D01*
X69834397Y-105049179D01*
X69894740Y-104903497D01*
X69925503Y-104748842D01*
X69925503Y-104591158D01*
X69925503Y-104591155D01*
X69925502Y-104591153D01*
X69894740Y-104436503D01*
X69867848Y-104371580D01*
X69834400Y-104290827D01*
X69834393Y-104290814D01*
X69746792Y-104159711D01*
X69746789Y-104159707D01*
X69635295Y-104048213D01*
X69635291Y-104048210D01*
X69538292Y-103983397D01*
X69493487Y-103929785D01*
X69484780Y-103860460D01*
X69514935Y-103797432D01*
X69559728Y-103765734D01*
X69599179Y-103749394D01*
X69730289Y-103661789D01*
X69841789Y-103550289D01*
X69929394Y-103419179D01*
X69989737Y-103273497D01*
X70020500Y-103118842D01*
X70020500Y-102961158D01*
X70020500Y-102961155D01*
X70020499Y-102961153D01*
X70002723Y-102871789D01*
X69989737Y-102806503D01*
X69929394Y-102660821D01*
X69899739Y-102616440D01*
X69878862Y-102549764D01*
X69896723Y-102484652D01*
X69896525Y-102484546D01*
X69896992Y-102483671D01*
X69897346Y-102482383D01*
X69899332Y-102479294D01*
X69899390Y-102479183D01*
X69899394Y-102479179D01*
X69959737Y-102333497D01*
X69990500Y-102178842D01*
X69990500Y-102021158D01*
X69990500Y-102021155D01*
X69990499Y-102021153D01*
X69959738Y-101866510D01*
X69959737Y-101866503D01*
X69951859Y-101847483D01*
X69899397Y-101720827D01*
X69899390Y-101720814D01*
X69811789Y-101589711D01*
X69811786Y-101589707D01*
X69700292Y-101478213D01*
X69700288Y-101478210D01*
X69569185Y-101390609D01*
X69569172Y-101390602D01*
X69423501Y-101330264D01*
X69423489Y-101330261D01*
X69268845Y-101299500D01*
X69268842Y-101299500D01*
X69111158Y-101299500D01*
X69111155Y-101299500D01*
X68956510Y-101330261D01*
X68956498Y-101330264D01*
X68810827Y-101390602D01*
X68810814Y-101390609D01*
X68679711Y-101478210D01*
X68679707Y-101478213D01*
X68568213Y-101589707D01*
X68568210Y-101589711D01*
X68480609Y-101720814D01*
X68480602Y-101720827D01*
X68420264Y-101866498D01*
X68420261Y-101866510D01*
X68389500Y-102021153D01*
X68389500Y-102178846D01*
X68420261Y-102333489D01*
X68420264Y-102333501D01*
X68480602Y-102479171D01*
X68480609Y-102479184D01*
X68510259Y-102523558D01*
X68531137Y-102590236D01*
X68513276Y-102655338D01*
X68513479Y-102655447D01*
X68513002Y-102656338D01*
X68512652Y-102657616D01*
X68510679Y-102660685D01*
X68510602Y-102660828D01*
X68450264Y-102806498D01*
X68450261Y-102806510D01*
X68419500Y-102961153D01*
X68419500Y-103118846D01*
X68450261Y-103273489D01*
X68450264Y-103273501D01*
X68510602Y-103419172D01*
X68510609Y-103419185D01*
X68598210Y-103550288D01*
X68598213Y-103550292D01*
X68709707Y-103661786D01*
X68709711Y-103661789D01*
X68806710Y-103726602D01*
X68851515Y-103780214D01*
X68860222Y-103849539D01*
X68830068Y-103912566D01*
X68785274Y-103944264D01*
X68745829Y-103960603D01*
X68745817Y-103960609D01*
X68614717Y-104048208D01*
X68614711Y-104048212D01*
X68570551Y-104092372D01*
X68509228Y-104125856D01*
X68458680Y-104126306D01*
X68323920Y-104099500D01*
X68323918Y-104099500D01*
X68176082Y-104099500D01*
X68176080Y-104099500D01*
X68031092Y-104128340D01*
X68031082Y-104128343D01*
X67894511Y-104184912D01*
X67894498Y-104184919D01*
X67771584Y-104267048D01*
X67771580Y-104267051D01*
X67667051Y-104371580D01*
X67667048Y-104371584D01*
X67584919Y-104494498D01*
X67584912Y-104494511D01*
X67528343Y-104631082D01*
X67528340Y-104631092D01*
X67499500Y-104776079D01*
X67499500Y-104776082D01*
X67499500Y-104923918D01*
X67499500Y-104923920D01*
X67499499Y-104923920D01*
X65315999Y-104923920D01*
X65250292Y-104858213D01*
X65250288Y-104858210D01*
X65119185Y-104770609D01*
X65119172Y-104770602D01*
X64973501Y-104710264D01*
X64973489Y-104710261D01*
X64818845Y-104679500D01*
X64818842Y-104679500D01*
X64661158Y-104679500D01*
X64661155Y-104679500D01*
X64506510Y-104710261D01*
X64506498Y-104710264D01*
X64360827Y-104770602D01*
X64360814Y-104770609D01*
X64229711Y-104858210D01*
X64229707Y-104858213D01*
X64172181Y-104915740D01*
X64110858Y-104949225D01*
X64041166Y-104944241D01*
X63985233Y-104902369D01*
X63960816Y-104836905D01*
X63960500Y-104828059D01*
X63960500Y-103069892D01*
X63980185Y-103002853D01*
X64032989Y-102957098D01*
X64102147Y-102947154D01*
X64134854Y-102957878D01*
X64135192Y-102957063D01*
X64245741Y-103002853D01*
X64286503Y-103019737D01*
X64441153Y-103050499D01*
X64441156Y-103050500D01*
X64441158Y-103050500D01*
X64598844Y-103050500D01*
X64598845Y-103050499D01*
X64753497Y-103019737D01*
X64866166Y-102973067D01*
X64899172Y-102959397D01*
X64899172Y-102959396D01*
X64899179Y-102959394D01*
X65030289Y-102871789D01*
X65141789Y-102760289D01*
X65229394Y-102629179D01*
X65289737Y-102483497D01*
X65320500Y-102328842D01*
X65320500Y-102171158D01*
X65320500Y-102171155D01*
X65320499Y-102171153D01*
X65289738Y-102016510D01*
X65289737Y-102016503D01*
X65241283Y-101899523D01*
X65233814Y-101830054D01*
X65241283Y-101804619D01*
X65299735Y-101663501D01*
X65299737Y-101663497D01*
X65330500Y-101508842D01*
X65330500Y-101351158D01*
X65330500Y-101351155D01*
X65330499Y-101351153D01*
X65326343Y-101330261D01*
X65299737Y-101196503D01*
X65299735Y-101196498D01*
X65239397Y-101050827D01*
X65239390Y-101050814D01*
X65151789Y-100919711D01*
X65151786Y-100919707D01*
X65051160Y-100819081D01*
X65017675Y-100757758D01*
X65022659Y-100688066D01*
X65051160Y-100643719D01*
X65134586Y-100560292D01*
X65134589Y-100560289D01*
X65222194Y-100429179D01*
X65282537Y-100283497D01*
X65313300Y-100128842D01*
X65313300Y-99971158D01*
X65313300Y-99971155D01*
X65313299Y-99971153D01*
X65297104Y-99889735D01*
X65282537Y-99816503D01*
X65251590Y-99741789D01*
X65222197Y-99670827D01*
X65222190Y-99670814D01*
X65134589Y-99539711D01*
X65134586Y-99539707D01*
X65023092Y-99428213D01*
X65023088Y-99428210D01*
X64891985Y-99340609D01*
X64891972Y-99340602D01*
X64746301Y-99280264D01*
X64746289Y-99280261D01*
X64591645Y-99249500D01*
X64591642Y-99249500D01*
X64433958Y-99249500D01*
X64433955Y-99249500D01*
X64279310Y-99280261D01*
X64279298Y-99280264D01*
X64131952Y-99341296D01*
X64099327Y-99344803D01*
X64066853Y-99349473D01*
X64064765Y-99348519D01*
X64062482Y-99348765D01*
X64033139Y-99334076D01*
X64003297Y-99320448D01*
X64002055Y-99318516D01*
X64000003Y-99317489D01*
X63983264Y-99289275D01*
X63965523Y-99261670D01*
X63965087Y-99258639D01*
X63964352Y-99257400D01*
X63960500Y-99226735D01*
X63960500Y-99041153D01*
X67909500Y-99041153D01*
X67909500Y-99198846D01*
X67940261Y-99353489D01*
X67940264Y-99353501D01*
X68000602Y-99499172D01*
X68000609Y-99499185D01*
X68088210Y-99630288D01*
X68088213Y-99630292D01*
X68199707Y-99741786D01*
X68199711Y-99741789D01*
X68330814Y-99829390D01*
X68330827Y-99829397D01*
X68476498Y-99889735D01*
X68476503Y-99889737D01*
X68631153Y-99920499D01*
X68631156Y-99920500D01*
X68631158Y-99920500D01*
X68788844Y-99920500D01*
X68788845Y-99920499D01*
X68943497Y-99889737D01*
X69089179Y-99829394D01*
X69220289Y-99741789D01*
X69331789Y-99630289D01*
X69419394Y-99499179D01*
X69479737Y-99353497D01*
X69510500Y-99198842D01*
X69510500Y-99041158D01*
X69510500Y-99041155D01*
X69510499Y-99041153D01*
X69479738Y-98886510D01*
X69479737Y-98886503D01*
X69479735Y-98886498D01*
X69419397Y-98740827D01*
X69419390Y-98740814D01*
X69331789Y-98609711D01*
X69331786Y-98609707D01*
X69220292Y-98498213D01*
X69220288Y-98498210D01*
X69089185Y-98410609D01*
X69089172Y-98410602D01*
X68943501Y-98350264D01*
X68943489Y-98350261D01*
X68788845Y-98319500D01*
X68788842Y-98319500D01*
X68631158Y-98319500D01*
X68631155Y-98319500D01*
X68476510Y-98350261D01*
X68476498Y-98350264D01*
X68330827Y-98410602D01*
X68330814Y-98410609D01*
X68199711Y-98498210D01*
X68199707Y-98498213D01*
X68088213Y-98609707D01*
X68088210Y-98609711D01*
X68000609Y-98740814D01*
X68000602Y-98740827D01*
X67940264Y-98886498D01*
X67940261Y-98886510D01*
X67909500Y-99041153D01*
X63960500Y-99041153D01*
X63960500Y-95799999D01*
X67074079Y-95799999D01*
X67074080Y-95800000D01*
X67825976Y-95800000D01*
X67808759Y-95809940D01*
X67752904Y-95865795D01*
X67713408Y-95934204D01*
X67692964Y-96010504D01*
X67692964Y-96089496D01*
X67713408Y-96165796D01*
X67752904Y-96234205D01*
X67808759Y-96290060D01*
X67825976Y-96300000D01*
X67074080Y-96300000D01*
X67079470Y-96327100D01*
X67079471Y-96327103D01*
X67151083Y-96499991D01*
X67151088Y-96500000D01*
X67255050Y-96655589D01*
X67255053Y-96655593D01*
X67387370Y-96787910D01*
X67387374Y-96787913D01*
X67542963Y-96891875D01*
X67542972Y-96891880D01*
X67715858Y-96963491D01*
X67715866Y-96963493D01*
X67899392Y-96999999D01*
X67899395Y-97000000D01*
X68142964Y-97000000D01*
X68142964Y-96350000D01*
X68642964Y-96350000D01*
X68642964Y-97000000D01*
X68886533Y-97000000D01*
X68886535Y-96999999D01*
X69070061Y-96963493D01*
X69070069Y-96963491D01*
X69242955Y-96891880D01*
X69242964Y-96891875D01*
X69398553Y-96787913D01*
X69398557Y-96787910D01*
X69530874Y-96655593D01*
X69530877Y-96655589D01*
X69634839Y-96500000D01*
X69634844Y-96499991D01*
X69706456Y-96327103D01*
X69706457Y-96327100D01*
X69711848Y-96300000D01*
X68959952Y-96300000D01*
X68977169Y-96290060D01*
X69033024Y-96234205D01*
X69072520Y-96165796D01*
X69092964Y-96089496D01*
X69092964Y-96010504D01*
X69072520Y-95934204D01*
X69033024Y-95865795D01*
X68977169Y-95809940D01*
X68959952Y-95800000D01*
X69711848Y-95800000D01*
X69711848Y-95799999D01*
X69706457Y-95772899D01*
X69706456Y-95772896D01*
X69634844Y-95600008D01*
X69634839Y-95599999D01*
X69530877Y-95444410D01*
X69530874Y-95444406D01*
X69398557Y-95312089D01*
X69398553Y-95312086D01*
X69242964Y-95208124D01*
X69242955Y-95208119D01*
X69070069Y-95136508D01*
X69070061Y-95136506D01*
X68886534Y-95100000D01*
X68642964Y-95100000D01*
X68642964Y-95750000D01*
X68142964Y-95750000D01*
X68142964Y-95100000D01*
X67899394Y-95100000D01*
X67715866Y-95136506D01*
X67715858Y-95136508D01*
X67542972Y-95208119D01*
X67542963Y-95208124D01*
X67387374Y-95312086D01*
X67387370Y-95312089D01*
X67255053Y-95444406D01*
X67255050Y-95444410D01*
X67151088Y-95599999D01*
X67151083Y-95600008D01*
X67079471Y-95772896D01*
X67079470Y-95772899D01*
X67074079Y-95799999D01*
X63960500Y-95799999D01*
X63960500Y-85130500D01*
X63980185Y-85063461D01*
X64032989Y-85017706D01*
X64084500Y-85006500D01*
X65410958Y-85006500D01*
X65454139Y-85014261D01*
G37*
%TD.AperFunction*%
%TD*%
M02*
