%TF.GenerationSoftware,KiCad,Pcbnew,9.0.6-1.fc42*%
%TF.CreationDate,2025-11-24T11:52:54-08:00*%
%TF.ProjectId,MainBoard,4d61696e-426f-4617-9264-2e6b69636164,rev?*%
%TF.SameCoordinates,Original*%
%TF.FileFunction,Soldermask,Bot*%
%TF.FilePolarity,Negative*%
%FSLAX46Y46*%
G04 Gerber Fmt 4.6, Leading zero omitted, Abs format (unit mm)*
G04 Created by KiCad (PCBNEW 9.0.6-1.fc42) date 2025-11-24 11:52:54*
%MOMM*%
%LPD*%
G01*
G04 APERTURE LIST*
G04 Aperture macros list*
%AMRoundRect*
0 Rectangle with rounded corners*
0 $1 Rounding radius*
0 $2 $3 $4 $5 $6 $7 $8 $9 X,Y pos of 4 corners*
0 Add a 4 corners polygon primitive as box body*
4,1,4,$2,$3,$4,$5,$6,$7,$8,$9,$2,$3,0*
0 Add four circle primitives for the rounded corners*
1,1,$1+$1,$2,$3*
1,1,$1+$1,$4,$5*
1,1,$1+$1,$6,$7*
1,1,$1+$1,$8,$9*
0 Add four rect primitives between the rounded corners*
20,1,$1+$1,$2,$3,$4,$5,0*
20,1,$1+$1,$4,$5,$6,$7,0*
20,1,$1+$1,$6,$7,$8,$9,0*
20,1,$1+$1,$8,$9,$2,$3,0*%
G04 Aperture macros list end*
%ADD10RoundRect,0.150000X0.150000X-0.587500X0.150000X0.587500X-0.150000X0.587500X-0.150000X-0.587500X0*%
%ADD11RoundRect,0.112500X0.187500X0.112500X-0.187500X0.112500X-0.187500X-0.112500X0.187500X-0.112500X0*%
%ADD12R,2.000000X2.000000*%
%ADD13R,1.000000X1.000000*%
%ADD14R,1.500000X0.900000*%
%ADD15R,0.900000X1.500000*%
%ADD16C,0.600000*%
%ADD17R,3.900000X3.900000*%
%ADD18RoundRect,0.200000X-0.275000X0.200000X-0.275000X-0.200000X0.275000X-0.200000X0.275000X0.200000X0*%
%ADD19RoundRect,0.218750X0.256250X-0.218750X0.256250X0.218750X-0.256250X0.218750X-0.256250X-0.218750X0*%
%ADD20C,0.700000*%
%ADD21O,1.700000X0.900000*%
%ADD22O,2.400000X0.900000*%
%ADD23RoundRect,0.150000X-0.150000X0.587500X-0.150000X-0.587500X0.150000X-0.587500X0.150000X0.587500X0*%
%ADD24RoundRect,0.225000X0.225000X0.250000X-0.225000X0.250000X-0.225000X-0.250000X0.225000X-0.250000X0*%
%ADD25R,1.300000X3.400000*%
%ADD26RoundRect,0.030000X0.419999X-0.070000X0.419999X0.070000X-0.419999X0.070000X-0.419999X-0.070000X0*%
%ADD27RoundRect,0.030000X1.029999X-0.070000X1.029999X0.070000X-1.029999X0.070000X-1.029999X-0.070000X0*%
G04 APERTURE END LIST*
D10*
%TO.C,Q3*%
X85615953Y-100045601D03*
X83715953Y-100045601D03*
X84665953Y-98170600D03*
%TD*%
D11*
%TO.C,D4*%
X83375000Y-90175000D03*
X81275000Y-90175000D03*
%TD*%
D12*
%TO.C,+1*%
X87345600Y-104036000D03*
%TD*%
D13*
%TO.C,I2C_DAT1*%
X87909400Y-91211400D03*
%TD*%
D12*
%TO.C,-1*%
X87356431Y-107829532D03*
%TD*%
D13*
%TO.C,I2C_CLK1*%
X87909400Y-88161400D03*
%TD*%
D14*
%TO.C,U1*%
X87480000Y-56640000D03*
X87480000Y-57910000D03*
X87480000Y-59180000D03*
X87480000Y-60450000D03*
X87480000Y-61720000D03*
X87480000Y-62990000D03*
X87480000Y-64260000D03*
X87480000Y-65530000D03*
X87480000Y-66800000D03*
X87480000Y-68070000D03*
X87480000Y-69340000D03*
X87480000Y-70610000D03*
X87480000Y-71880000D03*
X87480000Y-73150000D03*
D15*
X85715000Y-74400000D03*
X84445000Y-74400000D03*
X83175000Y-74400000D03*
X81905000Y-74400000D03*
X80635000Y-74400000D03*
X79365000Y-74400000D03*
X78095000Y-74400000D03*
X76825000Y-74400000D03*
X75555000Y-74400000D03*
X74285000Y-74400000D03*
X73015000Y-74400000D03*
X71745000Y-74400000D03*
D14*
X69980000Y-73150000D03*
X69980000Y-71880000D03*
X69980000Y-70610000D03*
X69980000Y-69340000D03*
X69980000Y-68070000D03*
X69980000Y-66800000D03*
X69980000Y-65530000D03*
X69980000Y-64260000D03*
X69980000Y-62990000D03*
X69980000Y-61720000D03*
X69980000Y-60450000D03*
X69980000Y-59180000D03*
X69980000Y-57910000D03*
X69980000Y-56640000D03*
D16*
X81630000Y-65060000D03*
X81630000Y-63660000D03*
X80930000Y-65760000D03*
X80930000Y-64360000D03*
X80930000Y-62960000D03*
X80230000Y-65060000D03*
D17*
X80230000Y-64360000D03*
D16*
X80230000Y-63660000D03*
X79530000Y-65760000D03*
X79530000Y-64360000D03*
X79530000Y-62960000D03*
X78830000Y-65060000D03*
X78830000Y-63660000D03*
%TD*%
D18*
%TO.C,R13*%
X88050000Y-99025000D03*
X88050000Y-100675000D03*
%TD*%
D19*
%TO.C,D3*%
X79850000Y-90150000D03*
X79850000Y-88574998D03*
%TD*%
D20*
%TO.C,J3*%
X72752964Y-94700000D03*
X72752964Y-93850000D03*
X72752964Y-93000000D03*
X72752964Y-92150000D03*
X72752964Y-91300000D03*
X72752964Y-90450000D03*
X72752964Y-89600000D03*
X72752964Y-88750000D03*
X71402964Y-88750000D03*
X71402964Y-89600000D03*
X71402964Y-90450000D03*
X71402964Y-91300000D03*
X71402964Y-92150000D03*
X71402964Y-93000000D03*
X71402964Y-93850000D03*
X71402964Y-94700000D03*
D21*
X68392964Y-96050000D03*
D22*
X71772964Y-96050000D03*
D21*
X68392964Y-87400000D03*
D22*
X71772964Y-87400000D03*
%TD*%
D23*
%TO.C,Q2*%
X81470000Y-102220000D03*
X83370000Y-102220000D03*
X82420000Y-104095001D03*
%TD*%
D24*
%TO.C,C12*%
X82975000Y-88400000D03*
X81425000Y-88400000D03*
%TD*%
D25*
%TO.C,BZ1*%
X67975001Y-104050000D03*
X76674999Y-104050000D03*
%TD*%
D26*
%TO.C,J2*%
X65050000Y-72500000D03*
X65050000Y-72100000D03*
X65050000Y-71700000D03*
X65050000Y-71300000D03*
X65050000Y-70900000D03*
X65050000Y-70500000D03*
X65050000Y-70100000D03*
X65050000Y-69700000D03*
X65050000Y-69300000D03*
X65050000Y-68900000D03*
X65050000Y-68500000D03*
X65050000Y-68100000D03*
X65050000Y-67700000D03*
X65050000Y-67300000D03*
X65050000Y-66900000D03*
X67950000Y-72300000D03*
X67950000Y-71900000D03*
X67950000Y-71500000D03*
X67950000Y-71100000D03*
X67950000Y-70700000D03*
X67950000Y-70300000D03*
X67950000Y-69900000D03*
X67950000Y-69500000D03*
X67950000Y-69100000D03*
X67950000Y-68700000D03*
X67950000Y-68300000D03*
X67950000Y-67900000D03*
X67950000Y-67500000D03*
X67950000Y-67100000D03*
X67950000Y-66700000D03*
D27*
X66500000Y-74850000D03*
X66500000Y-64350000D03*
%TD*%
M02*
