M48
; DRILL file {KiCad 9.0.6-1.fc42} date 2025-11-24T11:52:54-0800
; FORMAT={-:-/ absolute / inch / decimal}
; #@! TF.CreationDate,2025-11-24T11:52:54-08:00
; #@! TF.GenerationSoftware,Kicad,Pcbnew,9.0.6-1.fc42
; #@! TF.FileFunction,Plated,1,4,PTH
FMAT,2
INCH
; #@! TA.AperFunction,Plated,PTH,ViaDrill
T1C0.0059
; #@! TA.AperFunction,Plated,PTH,ComponentDrill
T2C0.0079
; #@! TA.AperFunction,Plated,PTH,ViaDrill
T3C0.0118
; #@! TA.AperFunction,Plated,PTH,ViaDrill
T4C0.0126
; #@! TA.AperFunction,Plated,PTH,ComponentDrill
T5C0.0157
; #@! TA.AperFunction,Plated,PTH,ViaDrill
T6C0.0177
; #@! TA.AperFunction,Plated,PTH,ComponentDrill
T7C0.0236
%
G90
G05
T1
X2.6201Y-2.4144
X2.6492Y-3.8406
X2.7012Y-2.8136
X2.7047Y-2.4961
X2.7077Y-2.8386
X2.8081Y-2.5482
X2.8248Y-2.7409
X2.8278Y-2.7047
X2.8474Y-2.8543
X2.8671Y-2.8543
X2.8868Y-2.8543
X2.9026Y-2.7215
X2.9065Y-2.8543
X2.9204Y-2.7674
X2.9257Y-2.7215
X2.9262Y-2.8543
X2.9488Y-2.7215
X2.9719Y-2.7215
X3.1496Y-2.7957
X3.1759Y-2.8859
X3.248Y-2.8583
X3.2627Y-2.875
X3.2726Y-2.595
X3.2726Y-2.6193
X3.2726Y-2.6436
X3.2726Y-2.6679
X3.2726Y-2.6922
X3.2726Y-2.7165
X3.2726Y-2.7408
X3.2726Y-2.7651
X3.2726Y-2.7894
X3.3492Y-2.7201
X3.3976Y-2.7657
T2
X3.1035Y-2.5063
X3.1035Y-2.5614
X3.1311Y-2.4787
X3.1311Y-2.5339
X3.1311Y-2.589
X3.1587Y-2.5063
X3.1587Y-2.5614
X3.1862Y-2.4787
X3.1862Y-2.5339
X3.1862Y-2.589
X3.2138Y-2.5063
X3.2138Y-2.5614
T3
X2.5399Y-3.939
X2.5402Y-4.0256
X2.5406Y-3.9933
X2.5461Y-2.5193
X2.5488Y-4.1528
X2.574Y-3.8354
X2.598Y-2.315
X2.6244Y-3.6386
X2.6268Y-2.7437
X2.6276Y-2.6681
X2.6283Y-2.7047
X2.6354Y-2.961
X2.652Y-3.5307
X2.6655Y-2.4335
X2.6665Y-3.4941
X2.674Y-2.507
X2.687Y-4.128
X2.6937Y-4.2165
X2.6957Y-2.2004
X2.7028Y-2.872
X2.7051Y-3.9024
X2.7071Y-2.6052
X2.711Y-4.2831
X2.7185Y-4.252
X2.7215Y-4.1209
X2.724Y-4.0197
X2.7252Y-4.0567
X2.8398Y-3.8382
X2.8484Y-2.8002
X2.8589Y-2.4252
X2.8663Y-3.8173
X2.919Y-2.556
X2.9283Y-3.4323
X2.9326Y-2.5882
X2.935Y-4.2094
X2.948Y-3.6012
X2.9726Y-3.75
X2.9921Y-2.2638
X2.998Y-3.4272
X3.01Y-3.7664
X3.0122Y-2.4697
X3.0315Y-4.252
X3.0396Y-4.2833
X3.0533Y-3.766
X3.0583Y-3.4315
X3.0965Y-3.5059
X3.0966Y-3.6093
X3.0974Y-4.0522
X3.1245Y-2.9292
X3.1339Y-3.4339
X3.1399Y-3.7628
X3.1583Y-2.2035
X3.1832Y-3.7399
X3.1846Y-3.4315
X3.2159Y-3.4356
X3.223Y-2.384
X3.2265Y-3.7596
X3.253Y-2.2864
X3.2563Y-3.4346
X3.2698Y-3.7592
X3.3132Y-3.7561
X3.314Y-2.197
X3.3163Y-3.4369
X3.3258Y-2.4892
X3.327Y-2.371
X3.344Y-2.201
X3.345Y-2.3
X3.35Y-3.6768
X3.3705Y-2.8531
X3.3763Y-3.4398
X3.392Y-2.273
X3.4291Y-3.6835
X3.461Y-3.6835
X3.4668Y-4.0031
T4
X2.697Y-2.446
T5
X2.8111Y-3.4941
X2.8111Y-3.5276
X2.8111Y-3.561
X2.8111Y-3.5945
X2.8111Y-3.628
X2.8111Y-3.6614
X2.8111Y-3.6949
X2.8111Y-3.7283
X2.8643Y-3.4941
X2.8643Y-3.5276
X2.8643Y-3.561
X2.8643Y-3.5945
X2.8643Y-3.628
X2.8643Y-3.6614
X2.8643Y-3.6949
X2.8643Y-3.7283
T6
X2.5472Y-3.8717
X3.037Y-2.327
X3.037Y-2.394
X3.041Y-2.258
X3.313Y-4.2067
T7
G00X2.6769Y-3.4409
M15
G01X2.7084Y-3.4409
M16
G05
G00X2.6769Y-3.7815
M15
G01X2.7084Y-3.7815
M16
G05
G00X2.7962Y-3.4409
M15
G01X2.8552Y-3.4409
M16
G05
G00X2.7962Y-3.7815
M15
G01X2.8552Y-3.7815
M16
G05
M30
