%TF.GenerationSoftware,KiCad,Pcbnew,9.0.6-1.fc42*%
%TF.CreationDate,2025-11-23T12:28:42-08:00*%
%TF.ProjectId,MainBoard,4d61696e-426f-4617-9264-2e6b69636164,rev?*%
%TF.SameCoordinates,Original*%
%TF.FileFunction,Copper,L1,Top*%
%TF.FilePolarity,Positive*%
%FSLAX46Y46*%
G04 Gerber Fmt 4.6, Leading zero omitted, Abs format (unit mm)*
G04 Created by KiCad (PCBNEW 9.0.6-1.fc42) date 2025-11-23 12:28:42*
%MOMM*%
%LPD*%
G01*
G04 APERTURE LIST*
G04 Aperture macros list*
%AMRoundRect*
0 Rectangle with rounded corners*
0 $1 Rounding radius*
0 $2 $3 $4 $5 $6 $7 $8 $9 X,Y pos of 4 corners*
0 Add a 4 corners polygon primitive as box body*
4,1,4,$2,$3,$4,$5,$6,$7,$8,$9,$2,$3,0*
0 Add four circle primitives for the rounded corners*
1,1,$1+$1,$2,$3*
1,1,$1+$1,$4,$5*
1,1,$1+$1,$6,$7*
1,1,$1+$1,$8,$9*
0 Add four rect primitives between the rounded corners*
20,1,$1+$1,$2,$3,$4,$5,0*
20,1,$1+$1,$4,$5,$6,$7,0*
20,1,$1+$1,$6,$7,$8,$9,0*
20,1,$1+$1,$8,$9,$2,$3,0*%
G04 Aperture macros list end*
%TA.AperFunction,SMDPad,CuDef*%
%ADD10RoundRect,0.225000X0.250000X-0.225000X0.250000X0.225000X-0.250000X0.225000X-0.250000X-0.225000X0*%
%TD*%
%TA.AperFunction,SMDPad,CuDef*%
%ADD11RoundRect,0.030000X0.350575X-0.070000X0.350575X0.070000X-0.350575X0.070000X-0.350575X-0.070000X0*%
%TD*%
%TA.AperFunction,SMDPad,CuDef*%
%ADD12RoundRect,0.030000X1.029999X-0.070000X1.029999X0.070000X-1.029999X0.070000X-1.029999X-0.070000X0*%
%TD*%
%TA.AperFunction,SMDPad,CuDef*%
%ADD13RoundRect,0.140000X-0.140000X-0.170000X0.140000X-0.170000X0.140000X0.170000X-0.140000X0.170000X0*%
%TD*%
%TA.AperFunction,SMDPad,CuDef*%
%ADD14RoundRect,0.200000X-0.275000X0.200000X-0.275000X-0.200000X0.275000X-0.200000X0.275000X0.200000X0*%
%TD*%
%TA.AperFunction,SMDPad,CuDef*%
%ADD15RoundRect,0.140000X-0.170000X0.140000X-0.170000X-0.140000X0.170000X-0.140000X0.170000X0.140000X0*%
%TD*%
%TA.AperFunction,SMDPad,CuDef*%
%ADD16RoundRect,0.218750X-0.256250X0.218750X-0.256250X-0.218750X0.256250X-0.218750X0.256250X0.218750X0*%
%TD*%
%TA.AperFunction,SMDPad,CuDef*%
%ADD17RoundRect,0.225000X0.225000X0.250000X-0.225000X0.250000X-0.225000X-0.250000X0.225000X-0.250000X0*%
%TD*%
%TA.AperFunction,SMDPad,CuDef*%
%ADD18R,1.500000X1.500000*%
%TD*%
%TA.AperFunction,SMDPad,CuDef*%
%ADD19RoundRect,0.140000X0.140000X0.170000X-0.140000X0.170000X-0.140000X-0.170000X0.140000X-0.170000X0*%
%TD*%
%TA.AperFunction,SMDPad,CuDef*%
%ADD20RoundRect,0.030000X0.070000X0.419999X-0.070000X0.419999X-0.070000X-0.419999X0.070000X-0.419999X0*%
%TD*%
%TA.AperFunction,SMDPad,CuDef*%
%ADD21RoundRect,0.030000X0.070000X1.029999X-0.070000X1.029999X-0.070000X-1.029999X0.070000X-1.029999X0*%
%TD*%
%TA.AperFunction,SMDPad,CuDef*%
%ADD22RoundRect,0.225000X-0.225000X-0.250000X0.225000X-0.250000X0.225000X0.250000X-0.225000X0.250000X0*%
%TD*%
%TA.AperFunction,SMDPad,CuDef*%
%ADD23RoundRect,0.200000X0.275000X-0.200000X0.275000X0.200000X-0.275000X0.200000X-0.275000X-0.200000X0*%
%TD*%
%TA.AperFunction,SMDPad,CuDef*%
%ADD24RoundRect,0.200000X-0.200000X-0.275000X0.200000X-0.275000X0.200000X0.275000X-0.200000X0.275000X0*%
%TD*%
%TA.AperFunction,SMDPad,CuDef*%
%ADD25RoundRect,0.150000X-0.150000X0.512500X-0.150000X-0.512500X0.150000X-0.512500X0.150000X0.512500X0*%
%TD*%
%TA.AperFunction,SMDPad,CuDef*%
%ADD26R,0.700000X1.200000*%
%TD*%
%TA.AperFunction,SMDPad,CuDef*%
%ADD27R,1.000000X0.800000*%
%TD*%
%TA.AperFunction,SMDPad,CuDef*%
%ADD28R,1.000000X1.200000*%
%TD*%
%TA.AperFunction,SMDPad,CuDef*%
%ADD29R,1.000000X2.800000*%
%TD*%
%TA.AperFunction,SMDPad,CuDef*%
%ADD30R,1.300000X1.900000*%
%TD*%
%TA.AperFunction,SMDPad,CuDef*%
%ADD31RoundRect,0.218750X0.218750X0.256250X-0.218750X0.256250X-0.218750X-0.256250X0.218750X-0.256250X0*%
%TD*%
%TA.AperFunction,SMDPad,CuDef*%
%ADD32RoundRect,0.375000X-0.375000X0.625000X-0.375000X-0.625000X0.375000X-0.625000X0.375000X0.625000X0*%
%TD*%
%TA.AperFunction,SMDPad,CuDef*%
%ADD33RoundRect,0.500000X-1.400000X0.500000X-1.400000X-0.500000X1.400000X-0.500000X1.400000X0.500000X0*%
%TD*%
%TA.AperFunction,SMDPad,CuDef*%
%ADD34RoundRect,0.135000X0.135000X0.185000X-0.135000X0.185000X-0.135000X-0.185000X0.135000X-0.185000X0*%
%TD*%
%TA.AperFunction,SMDPad,CuDef*%
%ADD35R,1.000000X0.900000*%
%TD*%
%TA.AperFunction,SMDPad,CuDef*%
%ADD36RoundRect,0.140000X0.170000X-0.140000X0.170000X0.140000X-0.170000X0.140000X-0.170000X-0.140000X0*%
%TD*%
%TA.AperFunction,SMDPad,CuDef*%
%ADD37RoundRect,0.375000X-0.625000X-0.375000X0.625000X-0.375000X0.625000X0.375000X-0.625000X0.375000X0*%
%TD*%
%TA.AperFunction,SMDPad,CuDef*%
%ADD38RoundRect,0.500000X-0.500000X-1.400000X0.500000X-1.400000X0.500000X1.400000X-0.500000X1.400000X0*%
%TD*%
%TA.AperFunction,SMDPad,CuDef*%
%ADD39RoundRect,0.225000X-0.250000X0.225000X-0.250000X-0.225000X0.250000X-0.225000X0.250000X0.225000X0*%
%TD*%
%TA.AperFunction,HeatsinkPad*%
%ADD40C,0.600000*%
%TD*%
%TA.AperFunction,ComponentPad*%
%ADD41C,0.700000*%
%TD*%
%TA.AperFunction,ComponentPad*%
%ADD42O,1.700000X0.900000*%
%TD*%
%TA.AperFunction,ComponentPad*%
%ADD43O,2.400000X0.900000*%
%TD*%
%TA.AperFunction,ViaPad*%
%ADD44C,0.600000*%
%TD*%
%TA.AperFunction,ViaPad*%
%ADD45C,0.300000*%
%TD*%
%TA.AperFunction,ViaPad*%
%ADD46C,0.500000*%
%TD*%
%TA.AperFunction,ViaPad*%
%ADD47C,0.900000*%
%TD*%
%TA.AperFunction,ViaPad*%
%ADD48C,0.700000*%
%TD*%
%TA.AperFunction,Conductor*%
%ADD49C,0.200000*%
%TD*%
%TA.AperFunction,Conductor*%
%ADD50C,0.100000*%
%TD*%
%TA.AperFunction,Conductor*%
%ADD51C,0.300000*%
%TD*%
%TA.AperFunction,Conductor*%
%ADD52C,0.400000*%
%TD*%
G04 APERTURE END LIST*
D10*
%TO.P,C13,1*%
%TO.N,CONN_18*%
X79600000Y-89830000D03*
%TO.P,C13,2*%
%TO.N,LIPO GND*%
X79600000Y-88280000D03*
%TD*%
%TO.P,C8,1*%
%TO.N,CONN_21*%
X77300000Y-64800000D03*
%TO.P,C8,2*%
%TO.N,LIPO GND*%
X77300000Y-63250000D03*
%TD*%
D11*
%TO.P,J1,1,Pin_1*%
%TO.N,CONN_0*%
X67180000Y-106400000D03*
%TO.P,J1,2,Pin_2*%
%TO.N,CONN_1*%
X67180000Y-106000000D03*
%TO.P,J1,3,Pin_3*%
%TO.N,CONN_2*%
X67180000Y-105600000D03*
%TO.P,J1,4,Pin_4*%
%TO.N,CONN_3*%
X67180000Y-105200000D03*
%TO.P,J1,5,Pin_5*%
%TO.N,BZR*%
X67180000Y-104800000D03*
%TO.P,J1,6,Pin_6*%
%TO.N,CONN_5*%
X67180000Y-104400000D03*
%TO.P,J1,7,Pin_7*%
%TO.N,CONN_6*%
X67180000Y-104000000D03*
%TO.P,J1,8,Pin_8*%
%TO.N,CONN_7*%
X67180000Y-103600000D03*
%TO.P,J1,9,Pin_9*%
%TO.N,CONN_8*%
X67180000Y-103200000D03*
%TO.P,J1,10,Pin_10*%
%TO.N,CONN_9*%
X67180000Y-102800000D03*
%TO.P,J1,11,Pin_11*%
%TO.N,CONN_10*%
X67180000Y-102400000D03*
%TO.P,J1,12,Pin_12*%
%TO.N,CONN_11*%
X67180000Y-102000000D03*
%TO.P,J1,13,Pin_13*%
%TO.N,CONN_12*%
X67180000Y-101600000D03*
%TO.P,J1,14,Pin_14*%
%TO.N,CONN_13*%
X67180000Y-101200000D03*
%TO.P,J1,15,Pin_15*%
%TO.N,CONN_14*%
X67180000Y-100800000D03*
%TO.P,J1,16,Pin_16*%
%TO.N,CONN_15*%
X65820000Y-106400000D03*
%TO.P,J1,17,Pin_17*%
%TO.N,CONN_16*%
X65820000Y-106000000D03*
%TO.P,J1,18,Pin_18*%
%TO.N,CONN_17*%
X65820000Y-105600000D03*
%TO.P,J1,19,Pin_19*%
%TO.N,CONN_18*%
X65820000Y-105200000D03*
%TO.P,J1,20,Pin_20*%
X65820000Y-104800000D03*
%TO.P,J1,21,Pin_21*%
X65820000Y-104400000D03*
%TO.P,J1,22,Pin_22*%
%TO.N,CONN_21*%
X65820000Y-104000000D03*
%TO.P,J1,23,Pin_23*%
X65820000Y-103600000D03*
%TO.P,J1,24,Pin_24*%
X65820000Y-103200000D03*
%TO.P,J1,25,Pin_25*%
X65820000Y-102800000D03*
%TO.P,J1,26,Pin_26*%
X65820000Y-102400000D03*
%TO.P,J1,27,Pin_27*%
X65820000Y-102000000D03*
%TO.P,J1,28,Pin_28*%
%TO.N,CONN_27*%
X65820000Y-101600000D03*
%TO.P,J1,29,Pin_29*%
%TO.N,CONN_28*%
X65820000Y-101200000D03*
%TO.P,J1,30,Pin_30*%
%TO.N,CONN_29*%
X65820000Y-100800000D03*
D12*
%TO.P,J1,31,Pin_31*%
%TO.N,LIPO GND*%
X66500000Y-107060000D03*
%TO.P,J1,32,Pin_32*%
X66500001Y-100140000D03*
%TD*%
D13*
%TO.P,C16,1*%
%TO.N,CHIP_PU*%
X65354200Y-64617600D03*
%TO.P,C16,2*%
%TO.N,LIPO GND*%
X66314200Y-64617600D03*
%TD*%
D14*
%TO.P,R7,1*%
%TO.N,CONN_18*%
X77680000Y-88230000D03*
%TO.P,R7,2*%
%TO.N,CONN_28*%
X77680000Y-89880000D03*
%TD*%
%TO.P,R11,1*%
%TO.N,CONN_18*%
X85759000Y-88230000D03*
%TO.P,R11,2*%
%TO.N,CONN_6*%
X85759000Y-89880000D03*
%TD*%
D15*
%TO.P,C14,1*%
%TO.N,GPIO0*%
X69646800Y-58145800D03*
%TO.P,C14,2*%
%TO.N,LIPO GND*%
X69646800Y-59105800D03*
%TD*%
D16*
%TO.P,D1,1,K*%
%TO.N,LIPO GND*%
X64680000Y-52040000D03*
%TO.P,D1,2,A*%
%TO.N,Net-(D1-A)*%
X64680000Y-53615002D03*
%TD*%
D14*
%TO.P,R6,1*%
%TO.N,CONN_18*%
X82710000Y-88230000D03*
%TO.P,R6,2*%
%TO.N,CONN_10*%
X82710000Y-89880000D03*
%TD*%
D17*
%TO.P,C3,1*%
%TO.N,CONN_18*%
X71374000Y-60452000D03*
%TO.P,C3,2*%
%TO.N,LIPO GND*%
X69824000Y-60452000D03*
%TD*%
D18*
%TO.P,J5,1,Pin_1*%
%TO.N,CHIP_PU*%
X65735200Y-62839600D03*
%TD*%
D19*
%TO.P,C11,1*%
%TO.N,VCC_5V*%
X84907000Y-59359800D03*
%TO.P,C11,2*%
%TO.N,LIPO GND*%
X83947000Y-59359800D03*
%TD*%
D20*
%TO.P,J7,1,Pin_1*%
%TO.N,DATA9*%
X81733800Y-69515400D03*
%TO.P,J7,2,Pin_2*%
%TO.N,DATA10*%
X81333800Y-69515400D03*
%TO.P,J7,3,Pin_3*%
%TO.N,DATA11*%
X80933800Y-69515400D03*
%TO.P,J7,4,Pin_4*%
%TO.N,DATA12*%
X80533800Y-69515400D03*
%TO.P,J7,5,Pin_5*%
%TO.N,DATA13*%
X80133800Y-69515400D03*
%TO.P,J7,6,Pin_6*%
%TO.N,RET*%
X79733800Y-69515400D03*
%TO.P,J7,7,Pin_7*%
%TO.N,DATA8*%
X79333800Y-69515400D03*
%TO.P,J7,8,Pin_8*%
%TO.N,DATA7*%
X78933800Y-69515400D03*
%TO.P,J7,9,Pin_9*%
%TO.N,DATA6*%
X78533800Y-69515400D03*
%TO.P,J7,10,Pin_10*%
%TO.N,DATA5*%
X78133800Y-69515400D03*
%TO.P,J7,11,Pin_11*%
%TO.N,DATA4*%
X77733800Y-69515400D03*
%TO.P,J7,12,Pin_12*%
%TO.N,DATA3*%
X77333800Y-69515400D03*
%TO.P,J7,13,Pin_13*%
%TO.N,DATA2*%
X76933800Y-69515400D03*
%TO.P,J7,14,Pin_14*%
%TO.N,DATA1*%
X76533800Y-69515400D03*
%TO.P,J7,15,Pin_15*%
%TO.N,DATA0*%
X76133800Y-69515400D03*
%TO.P,J7,16,Pin_16*%
%TO.N,DATA14*%
X81533800Y-72415400D03*
%TO.P,J7,17,Pin_17*%
%TO.N,DATA15*%
X81133800Y-72415400D03*
%TO.P,J7,18,Pin_18*%
%TO.N,LIPO GND*%
X80733800Y-72415400D03*
%TO.P,J7,19,Pin_19*%
X80333800Y-72415400D03*
%TO.P,J7,20,Pin_20*%
%TO.N,CONN_5V*%
X79933800Y-72415400D03*
%TO.P,J7,21,Pin_21*%
X79533800Y-72415400D03*
%TO.P,J7,22,Pin_22*%
X79133800Y-72415400D03*
%TO.P,J7,23,Pin_23*%
%TO.N,CONN_3V3*%
X78733800Y-72415400D03*
%TO.P,J7,24,Pin_24*%
X78333800Y-72415400D03*
%TO.P,J7,25,Pin_25*%
X77933800Y-72415400D03*
%TO.P,J7,26,Pin_26*%
%TO.N,INDEX0*%
X77533800Y-72415400D03*
%TO.P,J7,27,Pin_27*%
%TO.N,INDEX1*%
X77133800Y-72415400D03*
%TO.P,J7,28,Pin_28*%
%TO.N,INDEX2*%
X76733800Y-72415400D03*
%TO.P,J7,29,Pin_29*%
%TO.N,INDEX3*%
X76333800Y-72415400D03*
%TO.P,J7,30,Pin_30*%
%TO.N,INDEX4*%
X75933800Y-72415400D03*
D21*
%TO.P,J7,31,Pin_31*%
%TO.N,LIPO GND*%
X84083800Y-70965400D03*
%TO.P,J7,32,Pin_32*%
X73583800Y-70965400D03*
%TD*%
D22*
%TO.P,C6,1*%
%TO.N,CONN_18*%
X82476400Y-57099200D03*
%TO.P,C6,2*%
%TO.N,LIPO GND*%
X84026400Y-57099200D03*
%TD*%
D23*
%TO.P,R10,1*%
%TO.N,CONN_18*%
X68376800Y-60024400D03*
%TO.P,R10,2*%
%TO.N,GPIO0*%
X68376800Y-58374400D03*
%TD*%
%TO.P,R12,1*%
%TO.N,CONN_18*%
X69475000Y-65700000D03*
%TO.P,R12,2*%
%TO.N,Net-(J4-Pin_1)*%
X69475000Y-64050000D03*
%TD*%
D24*
%TO.P,R1,1*%
%TO.N,CONN_18*%
X86080600Y-56108600D03*
%TO.P,R1,2*%
%TO.N,CHIP_PU*%
X87730600Y-56108600D03*
%TD*%
D17*
%TO.P,C1,1*%
%TO.N,CHIP_PU*%
X87706000Y-57734200D03*
%TO.P,C1,2*%
%TO.N,LIPO GND*%
X86156000Y-57734200D03*
%TD*%
D25*
%TO.P,U5,1,VIN*%
%TO.N,VCC_5V*%
X87479999Y-71880000D03*
%TO.P,U5,2,GND*%
%TO.N,LIPO GND*%
X86530000Y-71880000D03*
%TO.P,U5,3,ON*%
%TO.N,HATS_ENABLE*%
X85580001Y-71880000D03*
%TO.P,U5,4,CT*%
%TO.N,unconnected-(U5-CT-Pad4)*%
X85580001Y-74155000D03*
%TO.P,U5,5,QOD*%
%TO.N,unconnected-(U5-QOD-Pad5)*%
X86530000Y-74155000D03*
%TO.P,U5,6,VOUT*%
%TO.N,CONN_5V*%
X87479999Y-74155000D03*
%TD*%
D26*
%TO.P,J6,1,DAT2*%
%TO.N,CONN_6*%
X84145000Y-93075000D03*
%TO.P,J6,2,DAT3/CD*%
%TO.N,CONN_7*%
X83045000Y-93075000D03*
%TO.P,J6,3,CMD*%
%TO.N,CONN_10*%
X81945000Y-93075000D03*
%TO.P,J6,4,VDD*%
%TO.N,CONN_18*%
X80845000Y-93075000D03*
%TO.P,J6,5,CLK*%
%TO.N,CONN_14*%
X79745000Y-93075000D03*
%TO.P,J6,6,VSS*%
%TO.N,LIPO GND*%
X78645000Y-93075000D03*
%TO.P,J6,7,DAT0*%
%TO.N,CONN_28*%
X77545000Y-93075000D03*
%TO.P,J6,8,DAT1*%
%TO.N,CONN_29*%
X76445000Y-93075000D03*
%TO.P,J6,9,DET_B*%
%TO.N,CONN_11*%
X75495000Y-93075000D03*
D27*
%TO.P,J6,10,DET_A*%
X74545000Y-103575000D03*
D28*
%TO.P,J6,11,SHIELD*%
%TO.N,LIPO GND*%
X74545000Y-97375000D03*
D29*
X74545000Y-107725000D03*
D28*
X85695000Y-93075000D03*
D30*
X88045000Y-108175000D03*
%TD*%
D31*
%TO.P,D6,1,A1*%
%TO.N,CONN_0*%
X69316600Y-90932000D03*
%TO.P,D6,2,A2*%
%TO.N,LIPO GND*%
X67741600Y-90932000D03*
%TD*%
D32*
%TO.P,U3,1,GND*%
%TO.N,LIPO GND*%
X87962800Y-61315600D03*
%TO.P,U3,2,VO*%
%TO.N,VCC_5V*%
X85662800Y-61315600D03*
D33*
X85662800Y-67615600D03*
D32*
%TO.P,U3,3,VI*%
%TO.N,CONN_21*%
X83362800Y-61315600D03*
%TD*%
D13*
%TO.P,C7,1*%
%TO.N,CONN_18*%
X82197000Y-55803800D03*
%TO.P,C7,2*%
%TO.N,LIPO GND*%
X83157000Y-55803800D03*
%TD*%
D22*
%TO.P,C10,1*%
%TO.N,VCC_5V*%
X86182200Y-59334400D03*
%TO.P,C10,2*%
%TO.N,LIPO GND*%
X87732200Y-59334400D03*
%TD*%
D19*
%TO.P,C2,1*%
%TO.N,CONN_18*%
X71679000Y-59152000D03*
%TO.P,C2,2*%
%TO.N,LIPO GND*%
X70719000Y-59152000D03*
%TD*%
D31*
%TO.P,D5,1,A1*%
%TO.N,CONN_2*%
X69316600Y-92633800D03*
%TO.P,D5,2,A2*%
%TO.N,LIPO GND*%
X67741600Y-92633800D03*
%TD*%
D34*
%TO.P,R5,1*%
%TO.N,Net-(J3-CC1)*%
X69640000Y-97550000D03*
%TO.P,R5,2*%
%TO.N,LIPO GND*%
X68620000Y-97550000D03*
%TD*%
%TO.P,R4,1*%
%TO.N,Net-(J3-CC2)*%
X69549200Y-89535000D03*
%TO.P,R4,2*%
%TO.N,LIPO GND*%
X68529200Y-89535000D03*
%TD*%
D23*
%TO.P,R2,1*%
%TO.N,CONN_18*%
X71675000Y-57575000D03*
%TO.P,R2,2*%
%TO.N,Net-(D1-A)*%
X71675000Y-55925000D03*
%TD*%
D35*
%TO.P,BOOT1,1,1*%
%TO.N,LIPO GND*%
X64948000Y-60579000D03*
X64948000Y-56479000D03*
%TO.P,BOOT1,2,2*%
%TO.N,GPIO0*%
X66548000Y-60579000D03*
X66548000Y-56479000D03*
%TD*%
D36*
%TO.P,C15,1*%
%TO.N,CONN_18*%
X80880000Y-88960000D03*
%TO.P,C15,2*%
%TO.N,LIPO GND*%
X80880000Y-88000000D03*
%TD*%
D15*
%TO.P,C5,1*%
%TO.N,CONN_21*%
X74142600Y-62966600D03*
%TO.P,C5,2*%
%TO.N,LIPO GND*%
X74142600Y-63926600D03*
%TD*%
D19*
%TO.P,C9,1*%
%TO.N,CONN_21*%
X83032600Y-59359800D03*
%TO.P,C9,2*%
%TO.N,LIPO GND*%
X82072600Y-59359800D03*
%TD*%
D18*
%TO.P,J4,1,Pin_1*%
%TO.N,Net-(J4-Pin_1)*%
X65735200Y-66389600D03*
%TD*%
D25*
%TO.P,U4,1,VIN*%
%TO.N,CONN_18*%
X67089998Y-71800000D03*
%TO.P,U4,2,GND*%
%TO.N,LIPO GND*%
X66139999Y-71800000D03*
%TO.P,U4,3,ON*%
%TO.N,HATS_ENABLE*%
X65190000Y-71800000D03*
%TO.P,U4,4,CT*%
%TO.N,unconnected-(U4-CT-Pad4)*%
X65190000Y-74075000D03*
%TO.P,U4,5,QOD*%
%TO.N,unconnected-(U4-QOD-Pad5)*%
X66139999Y-74075000D03*
%TO.P,U4,6,VOUT*%
%TO.N,CONN_3V3*%
X67089998Y-74075000D03*
%TD*%
D37*
%TO.P,U2,1,GND*%
%TO.N,LIPO GND*%
X74100000Y-56500000D03*
%TO.P,U2,2,VO*%
%TO.N,CONN_18*%
X74100000Y-58800000D03*
D38*
X80400000Y-58800000D03*
D37*
%TO.P,U2,3,VI*%
%TO.N,CONN_21*%
X74100000Y-61100000D03*
%TD*%
D14*
%TO.P,R9,1*%
%TO.N,CONN_18*%
X76150000Y-88230000D03*
%TO.P,R9,2*%
%TO.N,CONN_29*%
X76150000Y-89880000D03*
%TD*%
%TO.P,R8,1*%
%TO.N,CONN_18*%
X84234000Y-88230000D03*
%TO.P,R8,2*%
%TO.N,CONN_7*%
X84234000Y-89880000D03*
%TD*%
D39*
%TO.P,C4,1*%
%TO.N,CONN_21*%
X75438000Y-63240200D03*
%TO.P,C4,2*%
%TO.N,LIPO GND*%
X75438000Y-64790200D03*
%TD*%
D40*
%TO.P,U1,41,GND*%
%TO.N,LIPO GND*%
X81630000Y-65060000D03*
X81630000Y-63660000D03*
X80930000Y-65760000D03*
X80930000Y-64360000D03*
X80930000Y-62960000D03*
X80230000Y-65060000D03*
X80230000Y-63660000D03*
X79530000Y-65760000D03*
X79530000Y-64360000D03*
X79530000Y-62960000D03*
X78830000Y-65060000D03*
X78830000Y-63660000D03*
%TD*%
D41*
%TO.P,J3,A1,GND*%
%TO.N,LIPO GND*%
X72752964Y-94700000D03*
%TO.P,J3,A4,VBUS*%
%TO.N,Net-(D3-A1)*%
X72752964Y-93850000D03*
%TO.P,J3,A5,CC1*%
%TO.N,Net-(J3-CC1)*%
X72752964Y-93000000D03*
%TO.P,J3,A6,D+*%
%TO.N,CONN_0*%
X72752964Y-92150000D03*
%TO.P,J3,A7,D-*%
%TO.N,CONN_2*%
X72752964Y-91300000D03*
%TO.P,J3,A8,SBU1*%
%TO.N,unconnected-(J3-SBU1-PadA8)*%
X72752964Y-90450000D03*
%TO.P,J3,A9,VBUS*%
%TO.N,Net-(D3-A1)*%
X72752964Y-89600000D03*
%TO.P,J3,A12,GND*%
%TO.N,LIPO GND*%
X72752964Y-88750000D03*
%TO.P,J3,B1,GND*%
X71402964Y-88750000D03*
%TO.P,J3,B4,VBUS*%
%TO.N,Net-(D3-A1)*%
X71402964Y-89600000D03*
%TO.P,J3,B5,CC2*%
%TO.N,Net-(J3-CC2)*%
X71402964Y-90450000D03*
%TO.P,J3,B6,D+*%
%TO.N,CONN_0*%
X71402964Y-91300000D03*
%TO.P,J3,B7,D-*%
%TO.N,CONN_2*%
X71402964Y-92150000D03*
%TO.P,J3,B8,SBU2*%
%TO.N,unconnected-(J3-SBU2-PadB8)*%
X71402964Y-93000000D03*
%TO.P,J3,B9,VBUS*%
%TO.N,Net-(D3-A1)*%
X71402964Y-93850000D03*
%TO.P,J3,B12,GND*%
%TO.N,LIPO GND*%
X71402964Y-94700000D03*
D42*
%TO.P,J3,S1,SHIELD*%
X68392964Y-96050000D03*
D43*
X71772964Y-96050000D03*
D42*
X68392964Y-87400000D03*
D43*
X71772964Y-87400000D03*
%TD*%
D44*
%TO.N,CONN_29*%
X64512800Y-100050000D03*
X76454047Y-95665953D03*
%TO.N,CONN_7*%
X69220000Y-103040000D03*
X83054047Y-95484047D03*
D45*
%TO.N,CONN_2*%
X71825000Y-68700000D03*
X68610834Y-71464482D03*
D44*
X72803964Y-96960000D03*
%TO.N,CONN_10*%
X69190000Y-102100000D03*
X81954047Y-95494047D03*
%TO.N,CONN_14*%
X68710000Y-99120000D03*
X79754047Y-95575953D03*
D46*
%TO.N,BZR*%
X68250000Y-104850000D03*
D44*
%TO.N,CONN_15*%
X69050000Y-108000000D03*
X87100000Y-93560000D03*
X77000000Y-108000000D03*
%TO.N,CONN_11*%
X72130000Y-97490000D03*
X75504047Y-95250000D03*
%TO.N,CONN_18*%
X84234000Y-87296000D03*
D47*
X77139800Y-60807600D03*
D44*
X82710000Y-87240000D03*
X82625000Y-58075000D03*
D47*
X77139800Y-59105800D03*
D44*
X77680000Y-87160000D03*
X64740000Y-105480000D03*
X68760916Y-66172535D03*
X76150000Y-87050000D03*
X80854047Y-94994047D03*
X85759000Y-87371000D03*
X67703700Y-61810900D03*
X66720000Y-69690000D03*
D45*
%TO.N,GPIO0*%
X71325000Y-64725000D03*
X68700000Y-63400000D03*
X66550000Y-61325000D03*
D44*
%TO.N,CHIP_PU*%
X72615531Y-61601015D03*
X84963000Y-58420000D03*
%TO.N,CONN_6*%
X84154047Y-95405953D03*
X69125003Y-104670000D03*
D45*
%TO.N,CONN_0*%
X71750000Y-69620000D03*
X68775000Y-72100000D03*
%TO.N,DATA9*%
X83125000Y-68381250D03*
%TO.N,DATA13*%
X83125000Y-70850000D03*
%TO.N,DATA10*%
X83125000Y-68998438D03*
%TO.N,DATA7*%
X74178727Y-70291272D03*
%TO.N,DATA5*%
X74312500Y-69125000D03*
%TO.N,DATA6*%
X73725000Y-69125000D03*
%TO.N,DATA12*%
X83125000Y-70232813D03*
%TO.N,DATA2*%
X83125000Y-67146875D03*
%TO.N,DATA15*%
X82872800Y-73025000D03*
%TO.N,DATA14*%
X82500000Y-72600000D03*
%TO.N,DATA0*%
X83125000Y-65912500D03*
%TO.N,DATA4*%
X74900000Y-69125000D03*
%TO.N,DATA3*%
X75487500Y-69125000D03*
%TO.N,DATA1*%
X83125000Y-66529688D03*
%TO.N,DATA11*%
X83125000Y-69615625D03*
%TO.N,DATA8*%
X83125000Y-67764063D03*
%TO.N,RET*%
X80668914Y-73302001D03*
D44*
%TO.N,HATS_ENABLE*%
X85610000Y-72470000D03*
X68650000Y-72950000D03*
X79362600Y-74402000D03*
D45*
%TO.N,INDEX1*%
X72824994Y-72500000D03*
%TO.N,INDEX4*%
X74325003Y-72500000D03*
%TO.N,INDEX0*%
X72324991Y-72500000D03*
%TO.N,INDEX2*%
X73324997Y-72500000D03*
%TO.N,INDEX3*%
X73825000Y-72500000D03*
D44*
%TO.N,CONN_28*%
X64530000Y-101430000D03*
X77554047Y-95655953D03*
%TO.N,CONN_16*%
X87910000Y-93560000D03*
X77205000Y-108795000D03*
X68860000Y-108790000D03*
D45*
%TO.N,LIPO GND*%
X86300000Y-70250000D03*
D47*
X77241400Y-57353200D03*
D44*
X78654047Y-91675953D03*
X68470000Y-55890000D03*
X76000000Y-57500000D03*
X79600000Y-87220000D03*
X74550000Y-106920000D03*
X80890000Y-87160000D03*
X88057419Y-101680000D03*
X72350000Y-71125000D03*
X66760000Y-68700000D03*
X74489100Y-65739100D03*
X65380000Y-97420000D03*
X67919600Y-63677800D03*
D45*
X80000000Y-71010000D03*
D44*
X81685000Y-87265000D03*
X64670000Y-63990000D03*
D48*
X68503800Y-62128400D03*
D47*
X64700000Y-98339999D03*
D44*
X67730000Y-88750000D03*
X84505800Y-60223400D03*
X84175600Y-55803800D03*
X74142600Y-64922400D03*
X65989200Y-58801000D03*
D46*
X68420000Y-107100000D03*
D44*
X78675000Y-102925000D03*
D45*
X85070000Y-69090000D03*
D44*
X78650000Y-89050000D03*
X84475000Y-63225000D03*
D45*
X67290000Y-97550000D03*
D44*
X74380000Y-87180000D03*
X67360000Y-89680000D03*
D47*
X84150000Y-106850000D03*
D46*
X66940000Y-75210000D03*
D44*
X74880000Y-91470000D03*
X80220000Y-55970000D03*
X81864200Y-60553600D03*
X66660000Y-92420000D03*
X86156000Y-57734200D03*
X84937600Y-55905400D03*
X85090000Y-93390000D03*
X76510000Y-62730000D03*
%TO.N,CONN_21*%
X66740000Y-67770000D03*
X64520000Y-102250000D03*
%TD*%
D49*
%TO.N,CONN_29*%
X76445000Y-93075000D02*
X76454047Y-93084047D01*
X76454047Y-93084047D02*
X76454047Y-95665953D01*
X76150000Y-89880000D02*
X76454047Y-90184047D01*
X76454047Y-90184047D02*
X76454047Y-93065953D01*
X65262800Y-100800000D02*
X64512800Y-100050000D01*
X65820000Y-100800000D02*
X65262800Y-100800000D01*
X64512800Y-100050000D02*
X64502800Y-100050000D01*
X76454047Y-93065953D02*
X76445000Y-93075000D01*
%TO.N,CONN_7*%
X83054047Y-93065953D02*
X83045000Y-93075000D01*
X84234000Y-89880000D02*
X83054047Y-91059953D01*
X83054047Y-91059953D02*
X83054047Y-93065953D01*
X69090000Y-103040000D02*
X68530000Y-103600000D01*
X83045000Y-93075000D02*
X83054047Y-93084047D01*
X68530000Y-103600000D02*
X67180000Y-103600000D01*
X83054047Y-93084047D02*
X83054047Y-95484047D01*
X69220000Y-103040000D02*
X69090000Y-103040000D01*
%TO.N,CONN_2*%
X72803964Y-96960000D02*
X72762474Y-97001490D01*
D50*
X71800000Y-68675000D02*
X71825000Y-68700000D01*
D49*
X72762474Y-103970426D02*
X71132900Y-105600000D01*
X72762474Y-97001490D02*
X72762474Y-103970426D01*
D50*
X68663511Y-71411805D02*
X68663511Y-71386489D01*
X71375000Y-68675000D02*
X71800000Y-68675000D01*
D49*
X69316600Y-92633800D02*
X69800400Y-92150000D01*
X71132900Y-105600000D02*
X67180000Y-105600000D01*
D50*
X68663511Y-71386489D02*
X71375000Y-68675000D01*
D49*
X69800400Y-92150000D02*
X71402964Y-92150000D01*
D50*
X68610834Y-71464482D02*
X68663511Y-71411805D01*
D49*
%TO.N,CONN_10*%
X67180000Y-102400000D02*
X68890000Y-102400000D01*
X81954047Y-93084047D02*
X81954047Y-95494047D01*
X82710000Y-89880000D02*
X81954047Y-90635953D01*
X81945000Y-93075000D02*
X81954047Y-93084047D01*
X68890000Y-102400000D02*
X69190000Y-102100000D01*
X81954047Y-93065953D02*
X81945000Y-93075000D01*
X81954047Y-90635953D02*
X81954047Y-93065953D01*
%TO.N,CONN_14*%
X79754047Y-93084047D02*
X79754047Y-95575953D01*
X68710000Y-99650574D02*
X68710000Y-99120000D01*
X67180000Y-100800000D02*
X67560574Y-100800000D01*
X79745000Y-93075000D02*
X79754047Y-93084047D01*
X67560574Y-100800000D02*
X68710000Y-99650574D01*
%TO.N,BZR*%
X67180000Y-104800000D02*
X68200000Y-104800000D01*
X68200000Y-104800000D02*
X68250000Y-104850000D01*
%TO.N,CONN_15*%
X65820000Y-106400000D02*
X65250000Y-106400000D01*
X64925000Y-107655100D02*
X65269900Y-108000000D01*
X65250000Y-106400000D02*
X64925000Y-106725000D01*
X87100000Y-93560000D02*
X87100000Y-99700000D01*
X65269900Y-108000000D02*
X69050000Y-108000000D01*
X78800000Y-108000000D02*
X77000000Y-108000000D01*
X64925000Y-106725000D02*
X64925000Y-107655100D01*
X87100000Y-99700000D02*
X78800000Y-108000000D01*
%TO.N,CONN_11*%
X68000000Y-102000000D02*
X67180000Y-102000000D01*
X75504047Y-95250000D02*
X75504047Y-98601400D01*
X75504047Y-93084047D02*
X75504047Y-95250000D01*
X75495000Y-93075000D02*
X75504047Y-93084047D01*
X68900000Y-101110000D02*
X68900000Y-100720000D01*
X68900000Y-101110000D02*
X68890000Y-101110000D01*
X75005047Y-103114953D02*
X74545000Y-103575000D01*
X75005047Y-99100400D02*
X75005047Y-103114953D01*
X75504047Y-98601400D02*
X75005047Y-99100400D01*
X68890000Y-101110000D02*
X68000000Y-102000000D01*
X68900000Y-100720000D02*
X72130000Y-97490000D01*
%TO.N,CONN_18*%
X74100000Y-58800000D02*
X73923200Y-58623200D01*
X68376800Y-60024400D02*
X68376800Y-61137800D01*
X85759000Y-87371000D02*
X85759000Y-88230000D01*
X64740000Y-105480000D02*
X64620000Y-105600000D01*
X80576800Y-58623200D02*
X80400000Y-58800000D01*
X73888800Y-58800000D02*
X74100000Y-58800000D01*
X67089998Y-70059998D02*
X66720000Y-69690000D01*
X65820000Y-104800000D02*
X64850000Y-104800000D01*
X76150000Y-87050000D02*
X76150000Y-88230000D01*
X82476400Y-57099200D02*
X81889600Y-57099200D01*
X69002465Y-66172535D02*
X69475000Y-65700000D01*
X81280000Y-55803800D02*
X80365600Y-56718200D01*
X64850000Y-105370000D02*
X64740000Y-105480000D01*
X72207800Y-58623200D02*
X71679000Y-59152000D01*
X80854047Y-91084047D02*
X80440000Y-90670000D01*
X86080600Y-56270110D02*
X83727510Y-58623200D01*
X74065600Y-58470000D02*
X73787000Y-58191400D01*
X77680000Y-87160000D02*
X77680000Y-88230000D01*
X80854047Y-93084047D02*
X80854047Y-94994047D01*
X80880000Y-90230000D02*
X80440000Y-90670000D01*
X84234000Y-87296000D02*
X84234000Y-88230000D01*
X80400000Y-58800000D02*
X80365600Y-58834400D01*
X80845000Y-93075000D02*
X80854047Y-93065953D01*
X80365600Y-61112400D02*
X79933800Y-61544200D01*
X83727510Y-58623200D02*
X80576800Y-58623200D01*
X74065600Y-58765600D02*
X74065600Y-58470000D01*
X80223200Y-58623200D02*
X77622400Y-58623200D01*
X68376800Y-61137800D02*
X67703700Y-61810900D01*
X68760916Y-66172535D02*
X69002465Y-66172535D01*
X67089998Y-71800000D02*
X67089998Y-70059998D01*
X74100000Y-58800000D02*
X74065600Y-58765600D01*
X82197000Y-55803800D02*
X81280000Y-55803800D01*
X72236800Y-60452000D02*
X73888800Y-58800000D01*
X73923200Y-58623200D02*
X72207800Y-58623200D01*
X73017400Y-57575000D02*
X74100000Y-58657600D01*
X77876400Y-61544200D02*
X77139800Y-60807600D01*
X74100000Y-58657600D02*
X74100000Y-58800000D01*
X71675000Y-57575000D02*
X73017400Y-57575000D01*
X86080600Y-56108600D02*
X86080600Y-56270110D01*
D51*
X64860000Y-104450000D02*
X64860000Y-105420000D01*
D49*
X71374000Y-60452000D02*
X72236800Y-60452000D01*
X80440000Y-90670000D02*
X79600000Y-89830000D01*
X64740000Y-105480000D02*
X64860000Y-105360000D01*
X64860000Y-105200000D02*
X64850000Y-105190000D01*
X79933800Y-61544200D02*
X77876400Y-61544200D01*
X64860000Y-105360000D02*
X64860000Y-105200000D01*
X77622400Y-58623200D02*
X77139800Y-59105800D01*
X80845000Y-93075000D02*
X80854047Y-93084047D01*
X80365600Y-56718200D02*
X80365600Y-58765600D01*
X80854047Y-93065953D02*
X80854047Y-91084047D01*
X65820000Y-104400000D02*
X64850000Y-104400000D01*
X65820000Y-105200000D02*
X64860000Y-105200000D01*
X80365600Y-58765600D02*
X80400000Y-58800000D01*
X80880000Y-88960000D02*
X80880000Y-90230000D01*
X80365600Y-58834400D02*
X80365600Y-61112400D01*
X80400000Y-58800000D02*
X80223200Y-58623200D01*
X81889600Y-57099200D02*
X80400000Y-58588800D01*
X82710000Y-87240000D02*
X82710000Y-88230000D01*
X80400000Y-58588800D02*
X80400000Y-58800000D01*
%TO.N,GPIO0*%
X66548000Y-61323000D02*
X66550000Y-61325000D01*
X66548000Y-60579000D02*
X66548000Y-61323000D01*
X69646800Y-58145800D02*
X69347200Y-58145800D01*
X66590200Y-56521200D02*
X66590200Y-60536800D01*
D50*
X71325000Y-64725000D02*
X70000000Y-63400000D01*
D49*
X66590200Y-60536800D02*
X66548000Y-60579000D01*
X68376800Y-58374400D02*
X68376800Y-57175400D01*
X69347200Y-58145800D02*
X68376800Y-57175400D01*
X67244400Y-57175400D02*
X68376800Y-57175400D01*
X66548000Y-56479000D02*
X67244400Y-57175400D01*
X66548000Y-56479000D02*
X66590200Y-56521200D01*
D50*
X70000000Y-63400000D02*
X68700000Y-63400000D01*
D49*
%TO.N,CHIP_PU*%
X87730600Y-56108600D02*
X87147400Y-56691800D01*
X72615531Y-61601015D02*
X72563585Y-61601015D01*
X65735200Y-62839600D02*
X65735200Y-64236600D01*
X65735200Y-62839600D02*
X71325000Y-62839600D01*
X86930000Y-58510200D02*
X87706000Y-57734200D01*
X86907000Y-58487200D02*
X86930000Y-58510200D01*
X84963000Y-58420000D02*
X85053200Y-58510200D01*
X65735200Y-64236600D02*
X65354200Y-64617600D01*
X87147400Y-56691800D02*
X87147400Y-56692800D01*
X85053200Y-58510200D02*
X86930000Y-58510200D01*
X72563585Y-61601015D02*
X71325000Y-62839600D01*
X86907000Y-56933200D02*
X86907000Y-58487200D01*
X87147400Y-56692800D02*
X86907000Y-56933200D01*
%TO.N,CONN_6*%
X84154047Y-93065953D02*
X84154047Y-91484953D01*
X68460000Y-104000000D02*
X67180000Y-104000000D01*
X84154047Y-93084047D02*
X84154047Y-95405953D01*
X69055000Y-104595000D02*
X68460000Y-104000000D01*
X84145000Y-93075000D02*
X84154047Y-93084047D01*
X84145000Y-93075000D02*
X84154047Y-93065953D01*
X69125003Y-104670000D02*
X69055000Y-104599997D01*
X84154047Y-91484953D02*
X85759000Y-89880000D01*
X69055000Y-104599997D02*
X69055000Y-104595000D01*
%TO.N,CONN_0*%
X72752964Y-92150000D02*
X72323618Y-92150000D01*
X73403964Y-103896036D02*
X70900000Y-106400000D01*
X69684600Y-91300000D02*
X71402964Y-91300000D01*
D50*
X68775000Y-72100000D02*
X71255000Y-69620000D01*
D49*
X69316600Y-90932000D02*
X69684600Y-91300000D01*
X70900000Y-106400000D02*
X67180000Y-106400000D01*
X71473618Y-91300000D02*
X71402964Y-91300000D01*
X72752964Y-92150000D02*
X72823618Y-92150000D01*
X72823618Y-92150000D02*
X73403964Y-92730346D01*
D50*
X71255000Y-69620000D02*
X71750000Y-69620000D01*
D49*
X73403964Y-92730346D02*
X73403964Y-103896036D01*
X72323618Y-92150000D02*
X71473618Y-91300000D01*
D50*
%TO.N,DATA9*%
X81990850Y-69515400D02*
X83125000Y-68381250D01*
X81733800Y-69515400D02*
X81990850Y-69515400D01*
%TO.N,DATA13*%
X82855601Y-71119399D02*
X83125000Y-70850000D01*
X80133800Y-69515400D02*
X80133800Y-70080659D01*
X81172540Y-71119399D02*
X82855601Y-71119399D01*
X80133800Y-70080659D02*
X81172540Y-71119399D01*
%TO.N,DATA10*%
X81546574Y-70216399D02*
X81921026Y-70216399D01*
X83125000Y-69012425D02*
X83125000Y-68998438D01*
X81333800Y-70003625D02*
X81546574Y-70216399D01*
X81333800Y-69515400D02*
X81333800Y-70003625D01*
X81921026Y-70216399D02*
X83125000Y-69012425D01*
%TO.N,DATA7*%
X78933800Y-70127303D02*
X77640704Y-71420399D01*
X77640704Y-71420399D02*
X75307854Y-71420399D01*
X78933800Y-69515400D02*
X78933800Y-70127303D01*
X75307854Y-71420399D02*
X74178727Y-70291272D01*
%TO.N,DATA5*%
X77370382Y-70818399D02*
X78133800Y-70054981D01*
X74312500Y-69125000D02*
X74312500Y-69433681D01*
X75697218Y-70818399D02*
X77370382Y-70818399D01*
X78133800Y-70054981D02*
X78133800Y-69515400D01*
X74312500Y-69433681D02*
X75697218Y-70818399D01*
%TO.N,DATA6*%
X73725000Y-69271859D02*
X75572540Y-71119399D01*
X77516026Y-71119399D02*
X78533800Y-70101625D01*
X75572540Y-71119399D02*
X77516026Y-71119399D01*
X73725000Y-69125000D02*
X73725000Y-69271859D01*
X78533800Y-70101625D02*
X78533800Y-69515400D01*
%TO.N,DATA12*%
X80533800Y-69515400D02*
X80533800Y-70054981D01*
X81297218Y-70818399D02*
X82539414Y-70818399D01*
X80533800Y-70054981D02*
X81297218Y-70818399D01*
X82539414Y-70818399D02*
X83125000Y-70232813D01*
%TO.N,DATA2*%
X76933800Y-68568200D02*
X77025000Y-68477000D01*
X76933800Y-69515400D02*
X76933800Y-68568200D01*
X77025000Y-68477000D02*
X81794875Y-68477000D01*
X81794875Y-68477000D02*
X83125000Y-67146875D01*
%TO.N,DATA15*%
X82781401Y-73116399D02*
X82872800Y-73025000D01*
X81133800Y-72903625D02*
X81346574Y-73116399D01*
X81133800Y-72415400D02*
X81133800Y-72903625D01*
X81346574Y-73116399D02*
X82781401Y-73116399D01*
%TO.N,DATA14*%
X81718400Y-72600000D02*
X81533800Y-72415400D01*
X82500000Y-72600000D02*
X81718400Y-72600000D01*
%TO.N,DATA0*%
X76133800Y-69515400D02*
X76133800Y-67966200D01*
X81162500Y-67875000D02*
X83125000Y-65912500D01*
X76133800Y-67966200D02*
X76225000Y-67875000D01*
X76225000Y-67875000D02*
X81162500Y-67875000D01*
%TO.N,DATA4*%
X77733800Y-70029303D02*
X77733800Y-69515400D01*
X74900000Y-69595503D02*
X75821896Y-70517399D01*
X77245704Y-70517399D02*
X77733800Y-70029303D01*
X75821896Y-70517399D02*
X77245704Y-70517399D01*
X74900000Y-69125000D02*
X74900000Y-69595503D01*
%TO.N,DATA3*%
X75487500Y-69125000D02*
X75487500Y-69757325D01*
X75946574Y-70216399D02*
X77121026Y-70216399D01*
X77121026Y-70216399D02*
X77333800Y-70003625D01*
X77333800Y-70003625D02*
X77333800Y-69515400D01*
X75487500Y-69757325D02*
X75946574Y-70216399D01*
%TO.N,DATA1*%
X76625000Y-68176000D02*
X81478688Y-68176000D01*
X81478688Y-68176000D02*
X83125000Y-66529688D01*
X76533800Y-68267200D02*
X76625000Y-68176000D01*
X76533800Y-69515400D02*
X76533800Y-68267200D01*
%TO.N,DATA11*%
X81421896Y-70517399D02*
X82223226Y-70517399D01*
X82223226Y-70517399D02*
X83125000Y-69615625D01*
X80933800Y-69515400D02*
X80933800Y-70029303D01*
X80933800Y-70029303D02*
X81421896Y-70517399D01*
%TO.N,DATA8*%
X79560975Y-68800000D02*
X82089063Y-68800000D01*
X82089063Y-68800000D02*
X83125000Y-67764063D01*
X79333800Y-69027175D02*
X79560975Y-68800000D01*
X79333800Y-69515400D02*
X79333800Y-69027175D01*
%TO.N,RET*%
X80792913Y-73426000D02*
X83038900Y-73426000D01*
X83300000Y-73164900D02*
X83300000Y-72170000D01*
X83300000Y-72170000D02*
X82550399Y-71420399D01*
X82550399Y-71420399D02*
X81047862Y-71420399D01*
X80668914Y-73302001D02*
X80792913Y-73426000D01*
X79733800Y-70106337D02*
X79733800Y-69515400D01*
X83038900Y-73426000D02*
X83300000Y-73164900D01*
X81047862Y-71420399D02*
X79733800Y-70106337D01*
D49*
%TO.N,CONN_5V*%
X85239033Y-73191500D02*
X87178998Y-73191500D01*
X79133800Y-73519143D02*
X79264657Y-73650000D01*
X87178998Y-73191500D02*
X87479999Y-73492501D01*
X79933800Y-72415400D02*
X79933800Y-73646200D01*
X79533800Y-73646200D02*
X79530000Y-73650000D01*
X79937000Y-73777000D02*
X84653533Y-73777000D01*
X79133800Y-72415400D02*
X79133800Y-73519143D01*
X79530000Y-73650000D02*
X79810000Y-73650000D01*
X84653533Y-73777000D02*
X85239033Y-73191500D01*
X79810000Y-73650000D02*
X79930000Y-73650000D01*
X79810000Y-73650000D02*
X79937000Y-73777000D01*
X79933800Y-73646200D02*
X79930000Y-73650000D01*
X87479999Y-73492501D02*
X87479999Y-74155000D01*
X79533800Y-72415400D02*
X79533800Y-73646200D01*
X79264657Y-73650000D02*
X79530000Y-73650000D01*
%TO.N,HATS_ENABLE*%
X85580001Y-72440001D02*
X85610000Y-72470000D01*
X65190000Y-72462499D02*
X65677501Y-72950000D01*
X65190000Y-71800000D02*
X65190000Y-72462499D01*
X65677501Y-72950000D02*
X68650000Y-72950000D01*
X85580001Y-71880000D02*
X85580001Y-72440001D01*
X79362600Y-74612800D02*
X79362600Y-74402000D01*
D50*
%TO.N,INDEX1*%
X77133800Y-72415400D02*
X77133800Y-72954981D01*
X77133800Y-72954981D02*
X76370382Y-73718399D01*
X72824994Y-72567097D02*
X72824994Y-72500000D01*
X76370382Y-73718399D02*
X73976296Y-73718399D01*
X73976296Y-73718399D02*
X72824994Y-72567097D01*
%TO.N,INDEX4*%
X74409603Y-72415400D02*
X74325003Y-72500000D01*
X75933800Y-72415400D02*
X74409603Y-72415400D01*
D49*
%TO.N,Net-(D1-A)*%
X71159000Y-56441000D02*
X67962000Y-56441000D01*
X65136002Y-53615002D02*
X64680000Y-53615002D01*
X67962000Y-56441000D02*
X65136002Y-53615002D01*
X71675000Y-55925000D02*
X71159000Y-56441000D01*
D50*
%TO.N,Net-(J3-CC1)*%
X71651907Y-95301000D02*
X72151964Y-94800943D01*
X70780600Y-95301000D02*
X71651907Y-95301000D01*
X72151964Y-94800943D02*
X72151964Y-93601000D01*
X72151964Y-93601000D02*
X72752964Y-93000000D01*
X69640000Y-96441600D02*
X70780600Y-95301000D01*
X69640000Y-97550000D02*
X69640000Y-96441600D01*
D49*
%TO.N,Net-(J3-CC2)*%
X70464200Y-90450000D02*
X71402964Y-90450000D01*
X69549200Y-89535000D02*
X70464200Y-90450000D01*
%TO.N,Net-(J4-Pin_1)*%
X66808000Y-66389600D02*
X69147600Y-64050000D01*
X65735200Y-66389600D02*
X66808000Y-66389600D01*
X69147600Y-64050000D02*
X69475000Y-64050000D01*
D50*
%TO.N,INDEX0*%
X73777293Y-74019399D02*
X72324991Y-72567097D01*
X76495060Y-74019399D02*
X73777293Y-74019399D01*
X72324991Y-72567097D02*
X72324991Y-72500000D01*
X77533800Y-72980659D02*
X76495060Y-74019399D01*
X77533800Y-72415400D02*
X77533800Y-72980659D01*
%TO.N,INDEX2*%
X73324997Y-72567097D02*
X73324997Y-72500000D01*
X74175299Y-73417399D02*
X73324997Y-72567097D01*
X76733800Y-72929303D02*
X76245704Y-73417399D01*
X76733800Y-72415400D02*
X76733800Y-72929303D01*
X76245704Y-73417399D02*
X74175299Y-73417399D01*
%TO.N,INDEX3*%
X76121026Y-73116399D02*
X74374302Y-73116399D01*
X76333800Y-72415400D02*
X76333800Y-72903625D01*
X73825000Y-72567097D02*
X73825000Y-72500000D01*
X76333800Y-72903625D02*
X76121026Y-73116399D01*
X74374302Y-73116399D02*
X73825000Y-72567097D01*
D49*
%TO.N,CONN_28*%
X65820000Y-101200000D02*
X64760000Y-101200000D01*
X64760000Y-101200000D02*
X64530000Y-101430000D01*
X77554047Y-93065953D02*
X77554047Y-90005953D01*
X77545000Y-93075000D02*
X77554047Y-93065953D01*
X77545000Y-93075000D02*
X77554047Y-93084047D01*
X77554047Y-93084047D02*
X77554047Y-95655953D01*
X77554047Y-90005953D02*
X77680000Y-89880000D01*
%TO.N,CONN_16*%
X64502800Y-107800000D02*
X64502800Y-106555721D01*
X77340000Y-108660000D02*
X78780000Y-108660000D01*
X77205000Y-108795000D02*
X77340000Y-108660000D01*
X64502800Y-106555721D02*
X65058521Y-106000000D01*
X65492800Y-108790000D02*
X64502800Y-107800000D01*
X65058521Y-106000000D02*
X65820000Y-106000000D01*
X68860000Y-108790000D02*
X65492800Y-108790000D01*
X87910000Y-99530000D02*
X87910000Y-93560000D01*
X78780000Y-108660000D02*
X87910000Y-99530000D01*
%TO.N,VCC_5V*%
X83924000Y-65876800D02*
X85662800Y-67615600D01*
X86182200Y-59596200D02*
X85662800Y-60115600D01*
X85662800Y-60115600D02*
X84907000Y-59359800D01*
X85662800Y-60115600D02*
X85662800Y-61315600D01*
D52*
X85662800Y-67615600D02*
X87479999Y-69432799D01*
D49*
X85605168Y-61315600D02*
X83924000Y-62996768D01*
X86182200Y-59334400D02*
X86182200Y-59596200D01*
D52*
X87479999Y-69432799D02*
X87479999Y-71880000D01*
D49*
X85662800Y-61315600D02*
X85605168Y-61315600D01*
X83924000Y-62996768D02*
X83924000Y-65876800D01*
D50*
%TO.N,LIPO GND*%
X80000000Y-71490000D02*
X80000000Y-71010000D01*
D49*
X87732200Y-59334400D02*
X87732200Y-61085000D01*
X84083800Y-72025398D02*
X84083800Y-70965400D01*
X77900000Y-62730000D02*
X78830000Y-63660000D01*
X66139999Y-71800000D02*
X66119000Y-71779001D01*
X82072600Y-59359800D02*
X82072600Y-60345200D01*
X73424200Y-71125000D02*
X72350000Y-71125000D01*
X66500000Y-107060000D02*
X68380000Y-107060000D01*
X64700000Y-98339999D02*
X64700001Y-98340000D01*
D50*
X68620000Y-97550000D02*
X67290000Y-97550000D01*
D49*
X76510000Y-62730000D02*
X76710000Y-62730000D01*
X73583800Y-70965400D02*
X73424200Y-71125000D01*
X70180200Y-59664600D02*
X69316600Y-59664600D01*
X85380000Y-93390000D02*
X85695000Y-93075000D01*
X68380000Y-107060000D02*
X68420000Y-107100000D01*
X78654047Y-93065953D02*
X78654047Y-91675953D01*
X66119000Y-69341000D02*
X66760000Y-68700000D01*
X67741600Y-92633800D02*
X66873800Y-92633800D01*
X69646800Y-59105800D02*
X69646800Y-59334400D01*
D50*
X80733800Y-72415400D02*
X80733800Y-71743800D01*
D49*
X68470000Y-55890000D02*
X68470000Y-55830000D01*
X87732200Y-61085000D02*
X87962800Y-61315600D01*
X68529200Y-89535000D02*
X68515000Y-89535000D01*
X68503800Y-61577900D02*
X68503800Y-62128400D01*
X85070000Y-69090000D02*
X84083800Y-70076200D01*
X66500001Y-100140000D02*
X64700000Y-98339999D01*
X86228999Y-70916500D02*
X84132700Y-70916500D01*
X66873800Y-92633800D02*
X66660000Y-92420000D01*
X64948000Y-57632600D02*
X64948000Y-57759800D01*
X74489100Y-65739100D02*
X75438000Y-64790200D01*
X80880000Y-87350000D02*
X80880000Y-88000000D01*
X84026400Y-57099200D02*
X84026400Y-56816600D01*
X69316600Y-59664600D02*
X69303900Y-59677300D01*
X69215000Y-60866700D02*
X68503800Y-61577900D01*
D50*
X80733800Y-71743800D02*
X80000000Y-71010000D01*
D49*
X83947000Y-59664600D02*
X84505800Y-60223400D01*
X68470000Y-55830000D02*
X64680000Y-52040000D01*
X76510000Y-62730000D02*
X77900000Y-62730000D01*
X74044000Y-96874000D02*
X74044000Y-92306000D01*
X85090000Y-93390000D02*
X85380000Y-93390000D01*
X80890000Y-87160000D02*
X80890000Y-87340000D01*
X74100000Y-56500000D02*
X74276800Y-56323200D01*
X69824000Y-60808200D02*
X68503800Y-62128400D01*
X84132700Y-70916500D02*
X84083800Y-70965400D01*
X69824000Y-60452000D02*
X69824000Y-60808200D01*
X74142600Y-63926600D02*
X74142600Y-64922400D01*
X83947000Y-59359800D02*
X83947000Y-59664600D01*
X64948000Y-60579000D02*
X64948000Y-57632600D01*
X86300000Y-70250000D02*
X84799200Y-70250000D01*
D50*
X80733800Y-72415400D02*
X80700000Y-72381600D01*
D49*
X70719000Y-59152000D02*
X70692800Y-59152000D01*
X80890000Y-87340000D02*
X80880000Y-87350000D01*
X64700001Y-98340000D02*
X64650000Y-98340000D01*
X70692800Y-59152000D02*
X70180200Y-59664600D01*
X67741600Y-90932000D02*
X67741600Y-90061600D01*
X68515000Y-89535000D02*
X67730000Y-88750000D01*
D50*
X80333800Y-72415400D02*
X80333800Y-71823800D01*
D49*
X84083800Y-70076200D02*
X84083800Y-70965400D01*
X88045000Y-108175000D02*
X86720000Y-106850000D01*
X86530000Y-71880000D02*
X86530000Y-71217501D01*
X66944200Y-64653200D02*
X67919600Y-63677800D01*
X76211400Y-56323200D02*
X77241400Y-57353200D01*
X79600000Y-87220000D02*
X79600000Y-88280000D01*
X66119000Y-71779001D02*
X66119000Y-69341000D01*
X64948000Y-57759800D02*
X65989200Y-58801000D01*
X84799200Y-70250000D02*
X84083800Y-70965400D01*
X86720000Y-106850000D02*
X84150000Y-106850000D01*
X74545000Y-97375000D02*
X74044000Y-96874000D01*
X83157000Y-55803800D02*
X84175600Y-55803800D01*
X76710000Y-62730000D02*
X77230000Y-63250000D01*
X82072600Y-60345200D02*
X81864200Y-60553600D01*
D50*
X80333800Y-71823800D02*
X80000000Y-71490000D01*
D49*
X69303900Y-59677300D02*
X69215000Y-59766200D01*
X78645000Y-93075000D02*
X78654047Y-93065953D01*
X69215000Y-59766200D02*
X69215000Y-60866700D01*
X69646800Y-59334400D02*
X69303900Y-59677300D01*
X64948000Y-57632600D02*
X64948000Y-56479000D01*
X74044000Y-92306000D02*
X74880000Y-91470000D01*
X66349800Y-64653200D02*
X66944200Y-64653200D01*
X77230000Y-63250000D02*
X77300000Y-63250000D01*
X86530000Y-71217501D02*
X86228999Y-70916500D01*
X87962800Y-61315600D02*
X86053400Y-63225000D01*
X66314200Y-64617600D02*
X66349800Y-64653200D01*
X84026400Y-56816600D02*
X84937600Y-55905400D01*
X67741600Y-90061600D02*
X67360000Y-89680000D01*
X74276800Y-56323200D02*
X76211400Y-56323200D01*
X86053400Y-63225000D02*
X84475000Y-63225000D01*
%TO.N,CONN_3V3*%
X78333800Y-73676200D02*
X78733800Y-73276200D01*
X77933800Y-74076200D02*
X78333800Y-73676200D01*
X77933800Y-72415400D02*
X77933800Y-74076200D01*
X67089998Y-74075000D02*
X67389998Y-74375000D01*
X78333800Y-72415400D02*
X78333800Y-73676200D01*
X67389998Y-74375000D02*
X77635000Y-74375000D01*
X78733800Y-73276200D02*
X78733800Y-72415400D01*
X77635000Y-74375000D02*
X77933800Y-74076200D01*
%TO.N,CONN_21*%
X74142600Y-62966600D02*
X74142600Y-61142600D01*
X64700000Y-102250000D02*
X64520000Y-102250000D01*
D52*
X75900000Y-67424000D02*
X75650000Y-67424000D01*
X83362800Y-61315600D02*
X83362800Y-64536200D01*
D49*
X77300000Y-64800000D02*
X77300000Y-65774000D01*
X74142600Y-61142600D02*
X74100000Y-61100000D01*
D52*
X80475000Y-67424000D02*
X75900000Y-67424000D01*
D49*
X65820000Y-104000000D02*
X64825000Y-104000000D01*
X65820000Y-102800000D02*
X64825000Y-102800000D01*
X64850000Y-102400000D02*
X64700000Y-102250000D01*
D52*
X83362800Y-64536200D02*
X80475000Y-67424000D01*
D49*
X74065600Y-61134400D02*
X74065600Y-61137600D01*
D52*
X69334521Y-67424000D02*
X68988521Y-67770000D01*
D49*
X65820000Y-103200000D02*
X64850000Y-103200000D01*
X64825000Y-104000000D02*
X64825000Y-102425000D01*
D52*
X83362800Y-61315600D02*
X83032600Y-60985400D01*
D49*
X74242400Y-61100000D02*
X74100000Y-61100000D01*
D52*
X75900000Y-67424000D02*
X69334521Y-67424000D01*
D49*
X75438000Y-63240200D02*
X75438000Y-62295600D01*
X75438000Y-62295600D02*
X74242400Y-61100000D01*
D52*
X83032600Y-60985400D02*
X83032600Y-59359800D01*
D49*
X65820000Y-102400000D02*
X64850000Y-102400000D01*
D51*
X74065600Y-61134400D02*
X74100000Y-61100000D01*
D49*
X64825000Y-102425000D02*
X64850000Y-102400000D01*
D52*
X66740000Y-67770000D02*
X68988521Y-67770000D01*
D49*
X77300000Y-65774000D02*
X75650000Y-67424000D01*
D51*
X68988521Y-67770000D02*
X74065600Y-62692921D01*
D49*
X65820000Y-103600000D02*
X64800000Y-103600000D01*
D51*
X74065600Y-62692921D02*
X74065600Y-61134400D01*
%TD*%
M02*
