%TF.GenerationSoftware,KiCad,Pcbnew,9.0.4-1.fc42*%
%TF.CreationDate,2025-09-21T19:32:59-04:00*%
%TF.ProjectId,TacosDevBoard,5461636f-7344-4657-9642-6f6172642e6b,1.0*%
%TF.SameCoordinates,Original*%
%TF.FileFunction,Soldermask,Top*%
%TF.FilePolarity,Negative*%
%FSLAX46Y46*%
G04 Gerber Fmt 4.6, Leading zero omitted, Abs format (unit mm)*
G04 Created by KiCad (PCBNEW 9.0.4-1.fc42) date 2025-09-21 19:32:59*
%MOMM*%
%LPD*%
G01*
G04 APERTURE LIST*
%ADD10R,1.700000X1.700000*%
%ADD11C,1.700000*%
%ADD12R,2.000000X2.000000*%
%ADD13C,2.000000*%
G04 APERTURE END LIST*
D10*
%TO.C,J4*%
X113030000Y-111429800D03*
D11*
X113030000Y-113969800D03*
X113030000Y-116509800D03*
X113030000Y-119049800D03*
X113030000Y-121589800D03*
X113030000Y-124129800D03*
X113030000Y-126669800D03*
X113030000Y-129209800D03*
%TD*%
D10*
%TO.C,J1*%
X161137600Y-116433600D03*
D11*
X161137600Y-118973600D03*
X161137600Y-121513600D03*
X161137600Y-124053600D03*
X161137600Y-126593600D03*
X161137600Y-129133600D03*
X161137600Y-131673600D03*
X161137600Y-134213600D03*
%TD*%
D12*
%TO.C,BZ*%
X161400000Y-60500000D03*
D13*
X169000000Y-60500000D03*
%TD*%
D10*
%TO.C,J3*%
X161112200Y-70916800D03*
D11*
X161112200Y-73456800D03*
X161112200Y-75996800D03*
X161112200Y-78536800D03*
X161112200Y-81076800D03*
X161112200Y-83616800D03*
X161112200Y-86156800D03*
X161112200Y-88696800D03*
%TD*%
D10*
%TO.C,J5*%
X113030000Y-88468200D03*
D11*
X113030000Y-91008200D03*
X113030000Y-93548200D03*
X113030000Y-96088200D03*
X113030000Y-98628200D03*
X113030000Y-101168200D03*
X113030000Y-103708200D03*
X113030000Y-106248200D03*
%TD*%
D10*
%TO.C,J2*%
X161112200Y-93599000D03*
D11*
X161112200Y-96139000D03*
X161112200Y-98679000D03*
X161112200Y-101219000D03*
X161112200Y-103759000D03*
X161112200Y-106299000D03*
X161112200Y-108839000D03*
X161112200Y-111379000D03*
%TD*%
D10*
%TO.C,J8*%
X153670000Y-136906000D03*
D11*
X153670000Y-139446000D03*
X151130000Y-136906000D03*
X151130000Y-139446000D03*
X148590000Y-136906000D03*
X148590000Y-139446000D03*
X146050000Y-136906000D03*
X146050000Y-139446000D03*
X143510000Y-136906000D03*
X143510000Y-139446000D03*
X140970000Y-136906000D03*
X140970000Y-139446000D03*
X138430000Y-136906000D03*
X138430000Y-139446000D03*
X135890000Y-136906000D03*
X135890000Y-139446000D03*
X133350000Y-136906000D03*
X133350000Y-139446000D03*
X130810000Y-136906000D03*
X130810000Y-139446000D03*
X128270000Y-136906000D03*
X128270000Y-139446000D03*
X125730000Y-136906000D03*
X125730000Y-139446000D03*
X123190000Y-136906000D03*
X123190000Y-139446000D03*
X120650000Y-136906000D03*
X120650000Y-139446000D03*
X118110000Y-136906000D03*
X118110000Y-139446000D03*
X115570000Y-136906000D03*
X115570000Y-139446000D03*
X113030000Y-136906000D03*
X113030000Y-139446000D03*
%TD*%
D10*
%TO.C,J9*%
X113004600Y-84302600D03*
D11*
X113004600Y-81762600D03*
X113004600Y-79222600D03*
X113004600Y-76682600D03*
X113004600Y-74142600D03*
X113004600Y-71602600D03*
X113004600Y-69062600D03*
X113004600Y-66522600D03*
X113004600Y-63982600D03*
X113004600Y-61442600D03*
%TD*%
D10*
%TO.C,PWM*%
X120142000Y-55880000D03*
D11*
X120142000Y-53340000D03*
X120142000Y-50800000D03*
X120142000Y-48260000D03*
X120142000Y-45720000D03*
X120142000Y-43180000D03*
X120142000Y-40640000D03*
X120142000Y-38100000D03*
%TD*%
D10*
%TO.C,COMM*%
X152908000Y-38100000D03*
D11*
X152908000Y-40640000D03*
X152908000Y-43180000D03*
X152908000Y-45720000D03*
X152908000Y-48260000D03*
X152908000Y-50800000D03*
X152908000Y-53340000D03*
X152908000Y-55880000D03*
%TD*%
D10*
%TO.C,SELECT*%
X145262600Y-131495800D03*
D11*
X142722600Y-131495800D03*
X140182600Y-131495800D03*
X137642600Y-131495800D03*
X135102600Y-131495800D03*
X132562600Y-131495800D03*
X130022600Y-131495800D03*
X127482600Y-131495800D03*
%TD*%
M02*
