M48
; DRILL file {KiCad 9.0.4-1.fc42} date 2025-09-26T16:11:24-0700
; FORMAT={-:-/ absolute / metric / decimal}
; #@! TF.CreationDate,2025-09-26T16:11:24-07:00
; #@! TF.GenerationSoftware,Kicad,Pcbnew,9.0.4-1.fc42
; #@! TF.FileFunction,Plated,1,2,PTH
FMAT,2
METRIC
; #@! TA.AperFunction,Plated,PTH,ComponentDrill
T1C1.000
%
G90
G05
T1
X113.005Y-61.443
X113.005Y-63.983
X113.005Y-66.523
X113.005Y-69.063
X113.005Y-71.603
X113.005Y-74.143
X113.005Y-76.683
X113.005Y-79.223
X113.005Y-81.763
X113.005Y-84.303
X113.03Y-88.468
X113.03Y-91.008
X113.03Y-93.548
X113.03Y-96.088
X113.03Y-98.628
X113.03Y-101.168
X113.03Y-103.708
X113.03Y-106.248
X113.03Y-111.43
X113.03Y-113.97
X113.03Y-116.51
X113.03Y-119.05
X113.03Y-121.59
X113.03Y-124.13
X113.03Y-126.67
X113.03Y-129.21
X113.03Y-136.906
X113.03Y-139.446
X115.57Y-136.906
X115.57Y-139.446
X118.11Y-136.906
X118.11Y-139.446
X120.142Y-38.1
X120.142Y-40.64
X120.142Y-43.18
X120.142Y-45.72
X120.142Y-48.26
X120.142Y-50.8
X120.142Y-53.34
X120.142Y-55.88
X120.65Y-136.906
X120.65Y-139.446
X123.19Y-136.906
X123.19Y-139.446
X125.73Y-136.906
X125.73Y-139.446
X127.483Y-131.496
X128.27Y-136.906
X128.27Y-139.446
X130.023Y-131.496
X130.81Y-136.906
X130.81Y-139.446
X132.563Y-131.496
X133.35Y-136.906
X133.35Y-139.446
X135.103Y-131.496
X135.89Y-136.906
X135.89Y-139.446
X137.643Y-131.496
X138.43Y-136.906
X138.43Y-139.446
X140.183Y-131.496
X140.97Y-136.906
X140.97Y-139.446
X142.723Y-131.496
X143.51Y-136.906
X143.51Y-139.446
X145.263Y-131.496
X146.05Y-136.906
X146.05Y-139.446
X148.59Y-136.906
X148.59Y-139.446
X151.13Y-136.906
X151.13Y-139.446
X152.908Y-38.1
X152.908Y-40.64
X152.908Y-43.18
X152.908Y-45.72
X152.908Y-48.26
X152.908Y-50.8
X152.908Y-53.34
X152.908Y-55.88
X153.67Y-136.906
X153.67Y-139.446
X161.112Y-70.917
X161.112Y-73.457
X161.112Y-75.997
X161.112Y-78.537
X161.112Y-81.077
X161.112Y-83.617
X161.112Y-86.157
X161.112Y-88.697
X161.112Y-93.599
X161.112Y-96.139
X161.112Y-98.679
X161.112Y-101.219
X161.112Y-103.759
X161.112Y-106.299
X161.112Y-108.839
X161.112Y-111.379
X161.138Y-116.434
X161.138Y-118.974
X161.138Y-121.514
X161.138Y-124.054
X161.138Y-126.594
X161.138Y-129.134
X161.138Y-131.674
X161.138Y-134.214
X161.4Y-60.5
X169.0Y-60.5
M30
