%TF.GenerationSoftware,KiCad,Pcbnew,9.0.4-1.fc42*%
%TF.CreationDate,2025-09-21T18:40:38-04:00*%
%TF.ProjectId,DummyHat,44756d6d-7948-4617-942e-6b696361645f,rev?*%
%TF.SameCoordinates,Original*%
%TF.FileFunction,Copper,L1,Top*%
%TF.FilePolarity,Positive*%
%FSLAX46Y46*%
G04 Gerber Fmt 4.6, Leading zero omitted, Abs format (unit mm)*
G04 Created by KiCad (PCBNEW 9.0.4-1.fc42) date 2025-09-21 18:40:38*
%MOMM*%
%LPD*%
G01*
G04 APERTURE LIST*
G04 Aperture macros list*
%AMRoundRect*
0 Rectangle with rounded corners*
0 $1 Rounding radius*
0 $2 $3 $4 $5 $6 $7 $8 $9 X,Y pos of 4 corners*
0 Add a 4 corners polygon primitive as box body*
4,1,4,$2,$3,$4,$5,$6,$7,$8,$9,$2,$3,0*
0 Add four circle primitives for the rounded corners*
1,1,$1+$1,$2,$3*
1,1,$1+$1,$4,$5*
1,1,$1+$1,$6,$7*
1,1,$1+$1,$8,$9*
0 Add four rect primitives between the rounded corners*
20,1,$1+$1,$2,$3,$4,$5,0*
20,1,$1+$1,$4,$5,$6,$7,0*
20,1,$1+$1,$6,$7,$8,$9,0*
20,1,$1+$1,$8,$9,$2,$3,0*%
G04 Aperture macros list end*
%TA.AperFunction,ComponentPad*%
%ADD10C,1.600000*%
%TD*%
%TA.AperFunction,ComponentPad*%
%ADD11R,1.800000X1.800000*%
%TD*%
%TA.AperFunction,ComponentPad*%
%ADD12C,1.800000*%
%TD*%
%TA.AperFunction,ComponentPad*%
%ADD13R,1.500000X1.050000*%
%TD*%
%TA.AperFunction,ComponentPad*%
%ADD14O,1.500000X1.050000*%
%TD*%
%TA.AperFunction,ComponentPad*%
%ADD15R,1.700000X1.700000*%
%TD*%
%TA.AperFunction,ComponentPad*%
%ADD16C,1.700000*%
%TD*%
%TA.AperFunction,ComponentPad*%
%ADD17RoundRect,0.250000X0.550000X0.550000X-0.550000X0.550000X-0.550000X-0.550000X0.550000X-0.550000X0*%
%TD*%
%TA.AperFunction,ComponentPad*%
%ADD18RoundRect,0.250000X-0.550000X-0.550000X0.550000X-0.550000X0.550000X0.550000X-0.550000X0.550000X0*%
%TD*%
%TA.AperFunction,ComponentPad*%
%ADD19RoundRect,0.250000X0.550000X-0.550000X0.550000X0.550000X-0.550000X0.550000X-0.550000X-0.550000X0*%
%TD*%
%TA.AperFunction,Conductor*%
%ADD20C,0.200000*%
%TD*%
G04 APERTURE END LIST*
D10*
%TO.P,R11,1*%
%TO.N,Net-(D11-K)*%
X73914000Y-129540000D03*
%TO.P,R11,2*%
%TO.N,GND*%
X73914000Y-119380000D03*
%TD*%
D11*
%TO.P,D7,1,K*%
%TO.N,Net-(D7-K)*%
X78740000Y-96774000D03*
D12*
%TO.P,D7,2,A*%
%TO.N,D2*%
X78740000Y-94234000D03*
%TD*%
D13*
%TO.P,Q1,1,E*%
%TO.N,GND*%
X54716000Y-139446000D03*
D14*
%TO.P,Q1,2,B*%
%TO.N,Net-(Q1-B)*%
X54716000Y-138176000D03*
%TO.P,Q1,3,C*%
%TO.N,RESP*%
X54716000Y-136906000D03*
%TD*%
D11*
%TO.P,D6,1,K*%
%TO.N,Net-(D6-K)*%
X59436000Y-107955000D03*
D12*
%TO.P,D6,2,A*%
%TO.N,D1*%
X59436000Y-105415000D03*
%TD*%
D10*
%TO.P,R10,1*%
%TO.N,Net-(D10-K)*%
X64262000Y-129540000D03*
%TO.P,R10,2*%
%TO.N,GND*%
X64262000Y-119380000D03*
%TD*%
%TO.P,R6,1*%
%TO.N,Net-(D2-K)*%
X73914000Y-82042000D03*
%TO.P,R6,2*%
%TO.N,GND*%
X73914000Y-92202000D03*
%TD*%
D15*
%TO.P,J3,1,Pin_1*%
%TO.N,Net-(J3-Pin_1)*%
X86106000Y-75184000D03*
D16*
%TO.P,J3,2,Pin_2*%
%TO.N,Net-(J3-Pin_2)*%
X86106000Y-72644000D03*
%TO.P,J3,3,Pin_3*%
%TO.N,Net-(J3-Pin_3)*%
X86106000Y-70104000D03*
%TO.P,J3,4,Pin_4*%
%TO.N,Net-(J3-Pin_4)*%
X86106000Y-67564000D03*
%TO.P,J3,5,Pin_5*%
%TO.N,Net-(J3-Pin_5)*%
X86106000Y-65024000D03*
%TO.P,J3,6,Pin_6*%
%TO.N,Net-(J3-Pin_6)*%
X86106000Y-62484000D03*
%TO.P,J3,7,Pin_7*%
%TO.N,Net-(J3-Pin_7)*%
X86106000Y-59944000D03*
%TO.P,J3,8,Pin_8*%
%TO.N,Net-(J3-Pin_8)*%
X86106000Y-57404000D03*
%TD*%
D10*
%TO.P,R1,1*%
%TO.N,+5V*%
X54610000Y-131064000D03*
%TO.P,R1,2*%
%TO.N,RESP*%
X54610000Y-120904000D03*
%TD*%
D11*
%TO.P,D3,1,K*%
%TO.N,Net-(D3-K)*%
X59436000Y-85598000D03*
D12*
%TO.P,D3,2,A*%
%TO.N,D7*%
X59436000Y-83058000D03*
%TD*%
D10*
%TO.P,R14,1*%
%TO.N,Net-(D14-K)*%
X64008000Y-136906000D03*
%TO.P,R14,2*%
%TO.N,GND*%
X74168000Y-136906000D03*
%TD*%
%TO.P,R7,1*%
%TO.N,Net-(D3-K)*%
X64262000Y-82042000D03*
%TO.P,R7,2*%
%TO.N,GND*%
X64262000Y-92202000D03*
%TD*%
D11*
%TO.P,D5,1,K*%
%TO.N,Net-(D5-K)*%
X78740000Y-107955000D03*
D12*
%TO.P,D5,2,A*%
%TO.N,D9*%
X78740000Y-105415000D03*
%TD*%
D17*
%TO.P,U3,1,A->B*%
%TO.N,+5V*%
X83058000Y-77724000D03*
D10*
%TO.P,U3,2,A0*%
%TO.N,Net-(J3-Pin_1)*%
X83058000Y-75184000D03*
%TO.P,U3,3,A1*%
%TO.N,Net-(J3-Pin_2)*%
X83058000Y-72644000D03*
%TO.P,U3,4,A2*%
%TO.N,Net-(J3-Pin_3)*%
X83058000Y-70104000D03*
%TO.P,U3,5,A3*%
%TO.N,Net-(J3-Pin_4)*%
X83058000Y-67564000D03*
%TO.P,U3,6,A4*%
%TO.N,Net-(J3-Pin_5)*%
X83058000Y-65024000D03*
%TO.P,U3,7,A5*%
%TO.N,Net-(J3-Pin_6)*%
X83058000Y-62484000D03*
%TO.P,U3,8,A6*%
%TO.N,Net-(J3-Pin_7)*%
X83058000Y-59944000D03*
%TO.P,U3,9,A7*%
%TO.N,Net-(J3-Pin_8)*%
X83058000Y-57404000D03*
%TO.P,U3,10,GND*%
%TO.N,GND*%
X83058000Y-54864000D03*
%TO.P,U3,11,B7*%
%TO.N,D15*%
X75438000Y-54864000D03*
%TO.P,U3,12,B6*%
%TO.N,D14*%
X75438000Y-57404000D03*
%TO.P,U3,13,B5*%
%TO.N,D13*%
X75438000Y-59944000D03*
%TO.P,U3,14,B4*%
%TO.N,D12*%
X75438000Y-62484000D03*
%TO.P,U3,15,B3*%
%TO.N,D11*%
X75438000Y-65024000D03*
%TO.P,U3,16,B2*%
%TO.N,D10*%
X75438000Y-67564000D03*
%TO.P,U3,17,B1*%
%TO.N,D9*%
X75438000Y-70104000D03*
%TO.P,U3,18,B0*%
%TO.N,D8*%
X75438000Y-72644000D03*
%TO.P,U3,19,CE*%
%TO.N,Net-(U1-P=R)*%
X75438000Y-75184000D03*
%TO.P,U3,20,VCC*%
%TO.N,+5V*%
X75438000Y-77724000D03*
%TD*%
%TO.P,R15,1*%
%TO.N,Net-(D15-K)*%
X83312000Y-133858000D03*
%TO.P,R15,2*%
%TO.N,GND*%
X73152000Y-133858000D03*
%TD*%
%TO.P,R9,1*%
%TO.N,Net-(D5-K)*%
X83566000Y-117094000D03*
%TO.P,R9,2*%
%TO.N,GND*%
X83566000Y-106934000D03*
%TD*%
%TO.P,R3,1*%
%TO.N,Net-(D8-K)*%
X73914000Y-104648000D03*
%TO.P,R3,2*%
%TO.N,GND*%
X73914000Y-94488000D03*
%TD*%
D11*
%TO.P,D8,1,K*%
%TO.N,Net-(D8-K)*%
X69088000Y-96774000D03*
D12*
%TO.P,D8,2,A*%
%TO.N,D3*%
X69088000Y-94234000D03*
%TD*%
D10*
%TO.P,R16,1*%
%TO.N,Net-(D6-K)*%
X64262000Y-117094000D03*
%TO.P,R16,2*%
%TO.N,GND*%
X64262000Y-106934000D03*
%TD*%
%TO.P,R4,1*%
%TO.N,Net-(D9-K)*%
X64262000Y-104653000D03*
%TO.P,R4,2*%
%TO.N,GND*%
X64262000Y-94493000D03*
%TD*%
%TO.P,R2,1*%
%TO.N,Net-(U1-P=R)*%
X54610000Y-118618000D03*
%TO.P,R2,2*%
%TO.N,Net-(Q1-B)*%
X54610000Y-108458000D03*
%TD*%
D11*
%TO.P,D10,1,K*%
%TO.N,Net-(D10-K)*%
X59436000Y-119126000D03*
D12*
%TO.P,D10,2,A*%
%TO.N,D10*%
X59436000Y-116586000D03*
%TD*%
D10*
%TO.P,R12,1*%
%TO.N,Net-(D12-K)*%
X83566000Y-129540000D03*
%TO.P,R12,2*%
%TO.N,GND*%
X83566000Y-119380000D03*
%TD*%
D11*
%TO.P,D12,1,K*%
%TO.N,Net-(D12-K)*%
X78740000Y-119126000D03*
D12*
%TO.P,D12,2,A*%
%TO.N,D12*%
X78740000Y-116586000D03*
%TD*%
D11*
%TO.P,D9,1,K*%
%TO.N,Net-(D9-K)*%
X59436000Y-96779000D03*
D12*
%TO.P,D9,2,A*%
%TO.N,D4*%
X59436000Y-94239000D03*
%TD*%
D10*
%TO.P,R17,1*%
%TO.N,Net-(D7-K)*%
X83566000Y-104648000D03*
%TO.P,R17,2*%
%TO.N,GND*%
X83566000Y-94488000D03*
%TD*%
D11*
%TO.P,D1,1,K*%
%TO.N,Net-(D1-K)*%
X78740000Y-85598000D03*
D12*
%TO.P,D1,2,A*%
%TO.N,D5*%
X78740000Y-83058000D03*
%TD*%
D11*
%TO.P,D11,1,K*%
%TO.N,Net-(D11-K)*%
X69088000Y-119126000D03*
D12*
%TO.P,D11,2,A*%
%TO.N,D11*%
X69088000Y-116586000D03*
%TD*%
D11*
%TO.P,D15,1,K*%
%TO.N,Net-(D15-K)*%
X78740000Y-130307000D03*
D12*
%TO.P,D15,2,A*%
%TO.N,D15*%
X78740000Y-127767000D03*
%TD*%
D11*
%TO.P,D4,1,K*%
%TO.N,Net-(D4-K)*%
X69088000Y-107955000D03*
D12*
%TO.P,D4,2,A*%
%TO.N,D8*%
X69088000Y-105415000D03*
%TD*%
D15*
%TO.P,J2,1,Pin_1*%
%TO.N,Net-(J2-Pin_1)*%
X53594000Y-57404000D03*
D16*
%TO.P,J2,2,Pin_2*%
%TO.N,Net-(J2-Pin_2)*%
X53594000Y-59944000D03*
%TO.P,J2,3,Pin_3*%
%TO.N,Net-(J2-Pin_3)*%
X53594000Y-62484000D03*
%TO.P,J2,4,Pin_4*%
%TO.N,Net-(J2-Pin_4)*%
X53594000Y-65024000D03*
%TO.P,J2,5,Pin_5*%
%TO.N,Net-(J2-Pin_5)*%
X53594000Y-67564000D03*
%TO.P,J2,6,Pin_6*%
%TO.N,Net-(J2-Pin_6)*%
X53594000Y-70104000D03*
%TO.P,J2,7,Pin_7*%
%TO.N,Net-(J2-Pin_7)*%
X53594000Y-72644000D03*
%TO.P,J2,8,Pin_8*%
%TO.N,Net-(J2-Pin_8)*%
X53594000Y-75184000D03*
%TD*%
D11*
%TO.P,D14,1,K*%
%TO.N,Net-(D14-K)*%
X69088000Y-130307000D03*
D12*
%TO.P,D14,2,A*%
%TO.N,D14*%
X69088000Y-127767000D03*
%TD*%
D11*
%TO.P,D2,1,K*%
%TO.N,Net-(D2-K)*%
X69088000Y-85598000D03*
D12*
%TO.P,D2,2,A*%
%TO.N,D6*%
X69088000Y-83058000D03*
%TD*%
D10*
%TO.P,R13,1*%
%TO.N,Net-(D13-K)*%
X54864000Y-133858000D03*
%TO.P,R13,2*%
%TO.N,GND*%
X65024000Y-133858000D03*
%TD*%
D15*
%TO.P,J1,1,Pin_1*%
%TO.N,GND*%
X60956987Y-150618987D03*
D16*
%TO.P,J1,2,Pin_2*%
%TO.N,I0*%
X63496987Y-150618987D03*
%TO.P,J1,3,Pin_3*%
%TO.N,I1*%
X66036987Y-150618987D03*
%TO.P,J1,4,Pin_4*%
%TO.N,I2*%
X68576987Y-150618987D03*
%TO.P,J1,5,Pin_5*%
%TO.N,I3*%
X71116987Y-150618987D03*
%TO.P,J1,6,Pin_6*%
%TO.N,I4*%
X73656987Y-150618987D03*
%TO.P,J1,7,Pin_7*%
%TO.N,RESP*%
X76196987Y-150618987D03*
%TO.P,J1,8,Pin_8*%
%TO.N,+5V*%
X78736987Y-150618987D03*
%TD*%
D10*
%TO.P,R8,1*%
%TO.N,Net-(D4-K)*%
X73914000Y-117094000D03*
%TO.P,R8,2*%
%TO.N,GND*%
X73914000Y-106934000D03*
%TD*%
D11*
%TO.P,D13,1,K*%
%TO.N,Net-(D13-K)*%
X59436000Y-130307000D03*
D12*
%TO.P,D13,2,A*%
%TO.N,D13*%
X59436000Y-127767000D03*
%TD*%
D18*
%TO.P,U2,1,A->B*%
%TO.N,+5V*%
X56642000Y-54864000D03*
D10*
%TO.P,U2,2,A0*%
%TO.N,Net-(J2-Pin_1)*%
X56642000Y-57404000D03*
%TO.P,U2,3,A1*%
%TO.N,Net-(J2-Pin_2)*%
X56642000Y-59944000D03*
%TO.P,U2,4,A2*%
%TO.N,Net-(J2-Pin_3)*%
X56642000Y-62484000D03*
%TO.P,U2,5,A3*%
%TO.N,Net-(J2-Pin_4)*%
X56642000Y-65024000D03*
%TO.P,U2,6,A4*%
%TO.N,Net-(J2-Pin_5)*%
X56642000Y-67564000D03*
%TO.P,U2,7,A5*%
%TO.N,Net-(J2-Pin_6)*%
X56642000Y-70104000D03*
%TO.P,U2,8,A6*%
%TO.N,Net-(J2-Pin_7)*%
X56642000Y-72644000D03*
%TO.P,U2,9,A7*%
%TO.N,Net-(J2-Pin_8)*%
X56642000Y-75184000D03*
%TO.P,U2,10,GND*%
%TO.N,GND*%
X56642000Y-77724000D03*
%TO.P,U2,11,B7*%
%TO.N,D7*%
X64262000Y-77724000D03*
%TO.P,U2,12,B6*%
%TO.N,D6*%
X64262000Y-75184000D03*
%TO.P,U2,13,B5*%
%TO.N,D5*%
X64262000Y-72644000D03*
%TO.P,U2,14,B4*%
%TO.N,D4*%
X64262000Y-70104000D03*
%TO.P,U2,15,B3*%
%TO.N,D3*%
X64262000Y-67564000D03*
%TO.P,U2,16,B2*%
%TO.N,D2*%
X64262000Y-65024000D03*
%TO.P,U2,17,B1*%
%TO.N,D1*%
X64262000Y-62484000D03*
%TO.P,U2,18,B0*%
%TO.N,D0*%
X64262000Y-59944000D03*
%TO.P,U2,19,CE*%
%TO.N,Net-(U1-P=R)*%
X64262000Y-57404000D03*
%TO.P,U2,20,VCC*%
%TO.N,+5V*%
X64262000Y-54864000D03*
%TD*%
%TO.P,R5,1*%
%TO.N,Net-(D1-K)*%
X83566000Y-82042000D03*
%TO.P,R5,2*%
%TO.N,GND*%
X83566000Y-92202000D03*
%TD*%
D19*
%TO.P,U1,1,G*%
%TO.N,GND*%
X58416987Y-147316987D03*
D10*
%TO.P,U1,2,P0*%
%TO.N,I0*%
X60956987Y-147316987D03*
%TO.P,U1,3,R0*%
%TO.N,+5V*%
X63496987Y-147316987D03*
%TO.P,U1,4,P1*%
%TO.N,I1*%
X66036987Y-147316987D03*
%TO.P,U1,5,R1*%
%TO.N,GND*%
X68576987Y-147316987D03*
%TO.P,U1,6,P2*%
%TO.N,I2*%
X71116987Y-147316987D03*
%TO.P,U1,7,R2*%
%TO.N,GND*%
X73656987Y-147316987D03*
%TO.P,U1,8,P3*%
%TO.N,I3*%
X76196987Y-147316987D03*
%TO.P,U1,9,R3*%
%TO.N,GND*%
X78736987Y-147316987D03*
%TO.P,U1,10,GND*%
X81276987Y-147316987D03*
%TO.P,U1,11,P4*%
%TO.N,I4*%
X81276987Y-139696987D03*
%TO.P,U1,12,R4*%
%TO.N,GND*%
X78736987Y-139696987D03*
%TO.P,U1,13,P5*%
X76196987Y-139696987D03*
%TO.P,U1,14,R5*%
X73656987Y-139696987D03*
%TO.P,U1,15,P6*%
X71116987Y-139696987D03*
%TO.P,U1,16,R6*%
X68576987Y-139696987D03*
%TO.P,U1,17,P7*%
X66036987Y-139696987D03*
%TO.P,U1,18,R7*%
X63496987Y-139696987D03*
%TO.P,U1,19,P=R*%
%TO.N,Net-(U1-P=R)*%
X60956987Y-139696987D03*
%TO.P,U1,20,VCC*%
%TO.N,+5V*%
X58416987Y-139696987D03*
%TD*%
D20*
%TO.N,I1*%
X66036987Y-150618987D02*
X66036987Y-147316987D01*
%TO.N,I0*%
X60956987Y-148078987D02*
X60956987Y-147316987D01*
X63496987Y-150618987D02*
X60956987Y-148078987D01*
%TO.N,+5V*%
X63496987Y-144776987D02*
X58416987Y-139696987D01*
X83058000Y-77724000D02*
X75438000Y-77724000D01*
X56642000Y-54864000D02*
X64262000Y-54864000D01*
X63496987Y-147316987D02*
X63496987Y-144776987D01*
%TO.N,I4*%
X73656987Y-150618987D02*
X74807987Y-151769987D01*
X82546987Y-149602987D02*
X82546987Y-140966987D01*
X82546987Y-140966987D02*
X81276987Y-139696987D01*
X74807987Y-151769987D02*
X80379987Y-151769987D01*
X80379987Y-151769987D02*
X82546987Y-149602987D01*
%TO.N,I3*%
X75214037Y-147316987D02*
X76196987Y-147316987D01*
X71912037Y-150618987D02*
X75214037Y-147316987D01*
X71116987Y-150618987D02*
X71912037Y-150618987D01*
%TO.N,I2*%
X71116987Y-148078987D02*
X71116987Y-147316987D01*
X68576987Y-150618987D02*
X71116987Y-148078987D01*
%TO.N,Net-(J2-Pin_2)*%
X53594000Y-59944000D02*
X56642000Y-59944000D01*
%TO.N,GND*%
X60956987Y-150618987D02*
X58420000Y-150618987D01*
X65209000Y-120327000D02*
X72967000Y-120327000D01*
X75369000Y-93033000D02*
X73914000Y-94488000D01*
X74861000Y-120327000D02*
X82619000Y-120327000D01*
X74168000Y-139185974D02*
X73656987Y-139696987D01*
X53340000Y-133350000D02*
X53340000Y-81026000D01*
X73152000Y-133858000D02*
X73152000Y-135890000D01*
X74168000Y-136906000D02*
X74168000Y-139185974D01*
X83566000Y-94488000D02*
X82111000Y-93033000D01*
X84667000Y-118279000D02*
X83566000Y-119380000D01*
X64262000Y-119380000D02*
X65209000Y-120327000D01*
X53336987Y-145542000D02*
X53343013Y-145542000D01*
X82619000Y-120327000D02*
X83566000Y-119380000D01*
X84667000Y-105833000D02*
X83566000Y-106934000D01*
X53336987Y-133353013D02*
X53340000Y-133350000D01*
X85344000Y-134620000D02*
X83058000Y-136906000D01*
X53343013Y-145542000D02*
X58420000Y-150618987D01*
X73152000Y-135890000D02*
X74168000Y-136906000D01*
X83566000Y-94488000D02*
X84667000Y-95589000D01*
X84667000Y-108035000D02*
X84667000Y-118279000D01*
X73152000Y-133858000D02*
X65024000Y-133858000D01*
X83058000Y-136906000D02*
X74168000Y-136906000D01*
X53340000Y-133604000D02*
X53340000Y-133350000D01*
X84667000Y-95589000D02*
X84667000Y-105833000D01*
X85344000Y-121158000D02*
X85344000Y-134620000D01*
X83566000Y-106934000D02*
X84667000Y-108035000D01*
X53340000Y-81026000D02*
X56642000Y-77724000D01*
X83566000Y-94488000D02*
X83566000Y-92202000D01*
X72967000Y-120327000D02*
X73914000Y-119380000D01*
X83566000Y-119380000D02*
X85344000Y-121158000D01*
X53336987Y-145542000D02*
X53336987Y-133353013D01*
X73914000Y-119380000D02*
X74861000Y-120327000D01*
X82111000Y-93033000D02*
X75369000Y-93033000D01*
%TO.N,Net-(J2-Pin_3)*%
X53594000Y-62484000D02*
X56642000Y-62484000D01*
%TO.N,Net-(J2-Pin_7)*%
X53594000Y-72644000D02*
X56642000Y-72644000D01*
%TO.N,Net-(J2-Pin_1)*%
X53594000Y-57404000D02*
X56642000Y-57404000D01*
%TO.N,Net-(J2-Pin_6)*%
X53594000Y-70104000D02*
X56642000Y-70104000D01*
%TO.N,Net-(J2-Pin_8)*%
X53594000Y-75184000D02*
X56642000Y-75184000D01*
%TO.N,Net-(J2-Pin_5)*%
X53594000Y-67564000D02*
X56642000Y-67564000D01*
%TO.N,Net-(J2-Pin_4)*%
X53594000Y-65024000D02*
X56642000Y-65024000D01*
%TO.N,Net-(J3-Pin_6)*%
X83058000Y-62484000D02*
X86106000Y-62484000D01*
%TO.N,Net-(J3-Pin_3)*%
X86106000Y-70104000D02*
X83058000Y-70104000D01*
%TO.N,Net-(J3-Pin_1)*%
X86106000Y-75184000D02*
X83058000Y-75184000D01*
%TO.N,Net-(J3-Pin_4)*%
X83058000Y-67564000D02*
X86106000Y-67564000D01*
%TO.N,Net-(J3-Pin_8)*%
X86106000Y-57404000D02*
X83058000Y-57404000D01*
%TO.N,Net-(J3-Pin_7)*%
X86106000Y-59944000D02*
X83058000Y-59944000D01*
%TO.N,Net-(J3-Pin_5)*%
X86106000Y-65024000D02*
X83058000Y-65024000D01*
%TO.N,Net-(J3-Pin_2)*%
X83058000Y-72644000D02*
X86106000Y-72644000D01*
%TO.N,Net-(U1-P=R)*%
X77216000Y-55084950D02*
X75894050Y-53763000D01*
X75438000Y-75184000D02*
X77216000Y-73406000D01*
X77216000Y-73406000D02*
X77216000Y-55084950D01*
X67903000Y-53763000D02*
X64262000Y-57404000D01*
X75894050Y-53763000D02*
X67903000Y-53763000D01*
%TO.N,D8*%
X72136000Y-75946000D02*
X72136000Y-102367000D01*
X75438000Y-72644000D02*
X72136000Y-75946000D01*
X72136000Y-102367000D02*
X69088000Y-105415000D01*
%TO.N,D11*%
X62011950Y-117787000D02*
X62419950Y-118195000D01*
X67479000Y-118195000D02*
X69088000Y-116586000D01*
X67085000Y-73377000D02*
X67085000Y-107238529D01*
X62419950Y-118195000D02*
X67479000Y-118195000D01*
X58235000Y-116088529D02*
X58235000Y-117083471D01*
X58235000Y-117083471D02*
X58938529Y-117787000D01*
X75438000Y-65024000D02*
X67085000Y-73377000D01*
X58938529Y-117787000D02*
X62011950Y-117787000D01*
X67085000Y-107238529D02*
X58235000Y-116088529D01*
%TO.N,D13*%
X75438000Y-59944000D02*
X65363000Y-70019000D01*
X65363000Y-108393429D02*
X57834000Y-115922429D01*
X57834000Y-126165000D02*
X59436000Y-127767000D01*
X57834000Y-115922429D02*
X57834000Y-126165000D01*
X65363000Y-70019000D02*
X65363000Y-108393429D01*
%TO.N,D9*%
X75438000Y-70104000D02*
X67887000Y-77655000D01*
X67887000Y-77655000D02*
X67887000Y-105912471D01*
X71255950Y-105749000D02*
X78406000Y-105749000D01*
X70388950Y-106616000D02*
X71255950Y-105749000D01*
X67887000Y-105912471D02*
X68590529Y-106616000D01*
X68590529Y-106616000D02*
X70388950Y-106616000D01*
X78406000Y-105749000D02*
X78740000Y-105415000D01*
%TO.N,D12*%
X76539000Y-73100050D02*
X75894050Y-73745000D01*
X72537000Y-76112100D02*
X72537000Y-97513529D01*
X75894050Y-73745000D02*
X74904100Y-73745000D01*
X76539000Y-63585000D02*
X76539000Y-73100050D01*
X79941000Y-104917529D02*
X79941000Y-115385000D01*
X79941000Y-115385000D02*
X78740000Y-116586000D01*
X75438000Y-62484000D02*
X76539000Y-63585000D01*
X72537000Y-97513529D02*
X79941000Y-104917529D01*
X74904100Y-73745000D02*
X72537000Y-76112100D01*
%TO.N,D14*%
X64477950Y-127767000D02*
X69088000Y-127767000D01*
X64718050Y-69003000D02*
X63805950Y-69003000D01*
X75438000Y-58283050D02*
X64718050Y-69003000D01*
X57433000Y-115756329D02*
X57433000Y-127462471D01*
X75438000Y-57404000D02*
X75438000Y-58283050D01*
X63276950Y-128968000D02*
X64477950Y-127767000D01*
X63805950Y-69003000D02*
X63161000Y-69647950D01*
X63161000Y-69647950D02*
X63161000Y-110028329D01*
X57433000Y-127462471D02*
X58938529Y-128968000D01*
X58938529Y-128968000D02*
X63276950Y-128968000D01*
X63161000Y-110028329D02*
X57433000Y-115756329D01*
%TO.N,D10*%
X67486000Y-108536000D02*
X59436000Y-116586000D01*
X75438000Y-67564000D02*
X67486000Y-75516000D01*
X67486000Y-75516000D02*
X67486000Y-108536000D01*
%TO.N,Net-(D1-K)*%
X82296000Y-82042000D02*
X78740000Y-85598000D01*
X83566000Y-82042000D02*
X82296000Y-82042000D01*
%TO.N,RESP*%
X63040937Y-148417987D02*
X62395987Y-147773037D01*
X77297987Y-149517987D02*
X77297987Y-146860937D01*
X76653037Y-146215987D02*
X65242937Y-146215987D01*
X55767000Y-137732000D02*
X54941000Y-136906000D01*
X63953037Y-148417987D02*
X63040937Y-148417987D01*
X55767000Y-138604050D02*
X55767000Y-137732000D01*
X62395987Y-147773037D02*
X62395987Y-145233037D01*
X77297987Y-146860937D02*
X76653037Y-146215987D01*
X62395987Y-145233037D02*
X55767000Y-138604050D01*
X54941000Y-136906000D02*
X54716000Y-136906000D01*
X64597987Y-146860937D02*
X64597987Y-147773037D01*
X65242937Y-146215987D02*
X64597987Y-146860937D01*
X76196987Y-150618987D02*
X77297987Y-149517987D01*
X64597987Y-147773037D02*
X63953037Y-148417987D01*
%TO.N,D15*%
X75438000Y-55743050D02*
X64718050Y-66463000D01*
X58235000Y-131508000D02*
X74999000Y-131508000D01*
X63805950Y-66463000D02*
X62760000Y-67508950D01*
X62760000Y-67508950D02*
X62760000Y-109862229D01*
X75438000Y-54864000D02*
X75438000Y-55743050D01*
X62760000Y-109862229D02*
X57032000Y-115590229D01*
X74999000Y-131508000D02*
X78740000Y-127767000D01*
X64718050Y-66463000D02*
X63805950Y-66463000D01*
X57032000Y-115590229D02*
X57032000Y-130305000D01*
X57032000Y-130305000D02*
X58235000Y-131508000D01*
%TD*%
M02*
