M48
; DRILL file {KiCad 9.0.4-1.fc42} date 2025-09-26T16:11:01-0700
; FORMAT={-:-/ absolute / metric / decimal}
; #@! TF.CreationDate,2025-09-26T16:11:01-07:00
; #@! TF.GenerationSoftware,Kicad,Pcbnew,9.0.4-1.fc42
; #@! TF.FileFunction,Plated,1,2,PTH
FMAT,2
METRIC
; #@! TA.AperFunction,Plated,PTH,ComponentDrill
T1C0.750
; #@! TA.AperFunction,Plated,PTH,ComponentDrill
T2C0.800
; #@! TA.AperFunction,Plated,PTH,ComponentDrill
T3C0.900
; #@! TA.AperFunction,Plated,PTH,ComponentDrill
T4C1.000
%
G90
G05
T1
X54.716Y-136.906
X54.716Y-138.176
X54.716Y-139.446
T2
X54.61Y-108.458
X54.61Y-118.618
X54.61Y-120.904
X54.61Y-131.064
X54.864Y-133.858
X56.642Y-54.864
X56.642Y-57.404
X56.642Y-59.944
X56.642Y-62.484
X56.642Y-65.024
X56.642Y-67.564
X56.642Y-70.104
X56.642Y-72.644
X56.642Y-75.184
X56.642Y-77.724
X58.417Y-139.697
X58.417Y-147.317
X60.957Y-139.697
X60.957Y-147.317
X63.497Y-139.697
X63.497Y-147.317
X64.008Y-136.906
X64.262Y-54.864
X64.262Y-57.404
X64.262Y-59.944
X64.262Y-62.484
X64.262Y-65.024
X64.262Y-67.564
X64.262Y-70.104
X64.262Y-72.644
X64.262Y-75.184
X64.262Y-77.724
X64.262Y-82.042
X64.262Y-92.202
X64.262Y-94.493
X64.262Y-104.653
X64.262Y-106.934
X64.262Y-117.094
X64.262Y-119.38
X64.262Y-129.54
X65.024Y-133.858
X66.037Y-139.697
X66.037Y-147.317
X68.577Y-139.697
X68.577Y-147.317
X71.117Y-139.697
X71.117Y-147.317
X73.152Y-133.858
X73.657Y-139.697
X73.657Y-147.317
X73.914Y-82.042
X73.914Y-92.202
X73.914Y-94.488
X73.914Y-104.648
X73.914Y-106.934
X73.914Y-117.094
X73.914Y-119.38
X73.914Y-129.54
X74.168Y-136.906
X75.438Y-54.864
X75.438Y-57.404
X75.438Y-59.944
X75.438Y-62.484
X75.438Y-65.024
X75.438Y-67.564
X75.438Y-70.104
X75.438Y-72.644
X75.438Y-75.184
X75.438Y-77.724
X76.197Y-139.697
X76.197Y-147.317
X78.737Y-139.697
X78.737Y-147.317
X81.277Y-139.697
X81.277Y-147.317
X83.058Y-54.864
X83.058Y-57.404
X83.058Y-59.944
X83.058Y-62.484
X83.058Y-65.024
X83.058Y-67.564
X83.058Y-70.104
X83.058Y-72.644
X83.058Y-75.184
X83.058Y-77.724
X83.312Y-133.858
X83.566Y-82.042
X83.566Y-92.202
X83.566Y-94.488
X83.566Y-104.648
X83.566Y-106.934
X83.566Y-117.094
X83.566Y-119.38
X83.566Y-129.54
T3
X59.436Y-83.058
X59.436Y-85.598
X59.436Y-94.239
X59.436Y-96.779
X59.436Y-105.415
X59.436Y-107.955
X59.436Y-116.586
X59.436Y-119.126
X59.436Y-127.767
X59.436Y-130.307
X69.088Y-83.058
X69.088Y-85.598
X69.088Y-94.234
X69.088Y-96.774
X69.088Y-105.415
X69.088Y-107.955
X69.088Y-116.586
X69.088Y-119.126
X69.088Y-127.767
X69.088Y-130.307
X78.74Y-83.058
X78.74Y-85.598
X78.74Y-94.234
X78.74Y-96.774
X78.74Y-105.415
X78.74Y-107.955
X78.74Y-116.586
X78.74Y-119.126
X78.74Y-127.767
X78.74Y-130.307
T4
X53.594Y-57.404
X53.594Y-59.944
X53.594Y-62.484
X53.594Y-65.024
X53.594Y-67.564
X53.594Y-70.104
X53.594Y-72.644
X53.594Y-75.184
X60.957Y-150.619
X63.497Y-150.619
X66.037Y-150.619
X68.577Y-150.619
X71.117Y-150.619
X73.657Y-150.619
X76.197Y-150.619
X78.737Y-150.619
X86.106Y-57.404
X86.106Y-59.944
X86.106Y-62.484
X86.106Y-65.024
X86.106Y-67.564
X86.106Y-70.104
X86.106Y-72.644
X86.106Y-75.184
M30
