%TF.GenerationSoftware,KiCad,Pcbnew,9.0.4-1.fc42*%
%TF.CreationDate,2025-09-21T18:40:38-04:00*%
%TF.ProjectId,DummyHat,44756d6d-7948-4617-942e-6b696361645f,rev?*%
%TF.SameCoordinates,Original*%
%TF.FileFunction,Legend,Top*%
%TF.FilePolarity,Positive*%
%FSLAX46Y46*%
G04 Gerber Fmt 4.6, Leading zero omitted, Abs format (unit mm)*
G04 Created by KiCad (PCBNEW 9.0.4-1.fc42) date 2025-09-21 18:40:38*
%MOMM*%
%LPD*%
G01*
G04 APERTURE LIST*
%ADD10C,0.100000*%
%ADD11C,0.120000*%
G04 APERTURE END LIST*
D10*
X84663875Y-147489172D02*
X84663875Y-146917744D01*
X85663875Y-147203458D02*
X84663875Y-147203458D01*
X85568636Y-146584410D02*
X85616256Y-146536791D01*
X85616256Y-146536791D02*
X85663875Y-146584410D01*
X85663875Y-146584410D02*
X85616256Y-146632029D01*
X85616256Y-146632029D02*
X85568636Y-146584410D01*
X85568636Y-146584410D02*
X85663875Y-146584410D01*
X85378160Y-146155839D02*
X85378160Y-145679649D01*
X85663875Y-146251077D02*
X84663875Y-145917744D01*
X84663875Y-145917744D02*
X85663875Y-145584411D01*
X85568636Y-145251077D02*
X85616256Y-145203458D01*
X85616256Y-145203458D02*
X85663875Y-145251077D01*
X85663875Y-145251077D02*
X85616256Y-145298696D01*
X85616256Y-145298696D02*
X85568636Y-145251077D01*
X85568636Y-145251077D02*
X85663875Y-145251077D01*
X85568636Y-144203459D02*
X85616256Y-144251078D01*
X85616256Y-144251078D02*
X85663875Y-144393935D01*
X85663875Y-144393935D02*
X85663875Y-144489173D01*
X85663875Y-144489173D02*
X85616256Y-144632030D01*
X85616256Y-144632030D02*
X85521017Y-144727268D01*
X85521017Y-144727268D02*
X85425779Y-144774887D01*
X85425779Y-144774887D02*
X85235303Y-144822506D01*
X85235303Y-144822506D02*
X85092446Y-144822506D01*
X85092446Y-144822506D02*
X84901970Y-144774887D01*
X84901970Y-144774887D02*
X84806732Y-144727268D01*
X84806732Y-144727268D02*
X84711494Y-144632030D01*
X84711494Y-144632030D02*
X84663875Y-144489173D01*
X84663875Y-144489173D02*
X84663875Y-144393935D01*
X84663875Y-144393935D02*
X84711494Y-144251078D01*
X84711494Y-144251078D02*
X84759113Y-144203459D01*
X85568636Y-143774887D02*
X85616256Y-143727268D01*
X85616256Y-143727268D02*
X85663875Y-143774887D01*
X85663875Y-143774887D02*
X85616256Y-143822506D01*
X85616256Y-143822506D02*
X85568636Y-143774887D01*
X85568636Y-143774887D02*
X85663875Y-143774887D01*
X84663875Y-143108221D02*
X84663875Y-142917745D01*
X84663875Y-142917745D02*
X84711494Y-142822507D01*
X84711494Y-142822507D02*
X84806732Y-142727269D01*
X84806732Y-142727269D02*
X84997208Y-142679650D01*
X84997208Y-142679650D02*
X85330541Y-142679650D01*
X85330541Y-142679650D02*
X85521017Y-142727269D01*
X85521017Y-142727269D02*
X85616256Y-142822507D01*
X85616256Y-142822507D02*
X85663875Y-142917745D01*
X85663875Y-142917745D02*
X85663875Y-143108221D01*
X85663875Y-143108221D02*
X85616256Y-143203459D01*
X85616256Y-143203459D02*
X85521017Y-143298697D01*
X85521017Y-143298697D02*
X85330541Y-143346316D01*
X85330541Y-143346316D02*
X84997208Y-143346316D01*
X84997208Y-143346316D02*
X84806732Y-143298697D01*
X84806732Y-143298697D02*
X84711494Y-143203459D01*
X84711494Y-143203459D02*
X84663875Y-143108221D01*
X85568636Y-142251078D02*
X85616256Y-142203459D01*
X85616256Y-142203459D02*
X85663875Y-142251078D01*
X85663875Y-142251078D02*
X85616256Y-142298697D01*
X85616256Y-142298697D02*
X85568636Y-142251078D01*
X85568636Y-142251078D02*
X85663875Y-142251078D01*
X85616256Y-141822507D02*
X85663875Y-141679650D01*
X85663875Y-141679650D02*
X85663875Y-141441555D01*
X85663875Y-141441555D02*
X85616256Y-141346317D01*
X85616256Y-141346317D02*
X85568636Y-141298698D01*
X85568636Y-141298698D02*
X85473398Y-141251079D01*
X85473398Y-141251079D02*
X85378160Y-141251079D01*
X85378160Y-141251079D02*
X85282922Y-141298698D01*
X85282922Y-141298698D02*
X85235303Y-141346317D01*
X85235303Y-141346317D02*
X85187684Y-141441555D01*
X85187684Y-141441555D02*
X85140065Y-141632031D01*
X85140065Y-141632031D02*
X85092446Y-141727269D01*
X85092446Y-141727269D02*
X85044827Y-141774888D01*
X85044827Y-141774888D02*
X84949589Y-141822507D01*
X84949589Y-141822507D02*
X84854351Y-141822507D01*
X84854351Y-141822507D02*
X84759113Y-141774888D01*
X84759113Y-141774888D02*
X84711494Y-141727269D01*
X84711494Y-141727269D02*
X84663875Y-141632031D01*
X84663875Y-141632031D02*
X84663875Y-141393936D01*
X84663875Y-141393936D02*
X84711494Y-141251079D01*
X85663875Y-140060602D02*
X84663875Y-140060602D01*
X84663875Y-140060602D02*
X84663875Y-139822507D01*
X84663875Y-139822507D02*
X84711494Y-139679650D01*
X84711494Y-139679650D02*
X84806732Y-139584412D01*
X84806732Y-139584412D02*
X84901970Y-139536793D01*
X84901970Y-139536793D02*
X85092446Y-139489174D01*
X85092446Y-139489174D02*
X85235303Y-139489174D01*
X85235303Y-139489174D02*
X85425779Y-139536793D01*
X85425779Y-139536793D02*
X85521017Y-139584412D01*
X85521017Y-139584412D02*
X85616256Y-139679650D01*
X85616256Y-139679650D02*
X85663875Y-139822507D01*
X85663875Y-139822507D02*
X85663875Y-140060602D01*
X84997208Y-138632031D02*
X85663875Y-138632031D01*
X84997208Y-139060602D02*
X85521017Y-139060602D01*
X85521017Y-139060602D02*
X85616256Y-139012983D01*
X85616256Y-139012983D02*
X85663875Y-138917745D01*
X85663875Y-138917745D02*
X85663875Y-138774888D01*
X85663875Y-138774888D02*
X85616256Y-138679650D01*
X85616256Y-138679650D02*
X85568636Y-138632031D01*
X85663875Y-138155840D02*
X84997208Y-138155840D01*
X85092446Y-138155840D02*
X85044827Y-138108221D01*
X85044827Y-138108221D02*
X84997208Y-138012983D01*
X84997208Y-138012983D02*
X84997208Y-137870126D01*
X84997208Y-137870126D02*
X85044827Y-137774888D01*
X85044827Y-137774888D02*
X85140065Y-137727269D01*
X85140065Y-137727269D02*
X85663875Y-137727269D01*
X85140065Y-137727269D02*
X85044827Y-137679650D01*
X85044827Y-137679650D02*
X84997208Y-137584412D01*
X84997208Y-137584412D02*
X84997208Y-137441555D01*
X84997208Y-137441555D02*
X85044827Y-137346316D01*
X85044827Y-137346316D02*
X85140065Y-137298697D01*
X85140065Y-137298697D02*
X85663875Y-137298697D01*
X85663875Y-136822507D02*
X84997208Y-136822507D01*
X85092446Y-136822507D02*
X85044827Y-136774888D01*
X85044827Y-136774888D02*
X84997208Y-136679650D01*
X84997208Y-136679650D02*
X84997208Y-136536793D01*
X84997208Y-136536793D02*
X85044827Y-136441555D01*
X85044827Y-136441555D02*
X85140065Y-136393936D01*
X85140065Y-136393936D02*
X85663875Y-136393936D01*
X85140065Y-136393936D02*
X85044827Y-136346317D01*
X85044827Y-136346317D02*
X84997208Y-136251079D01*
X84997208Y-136251079D02*
X84997208Y-136108222D01*
X84997208Y-136108222D02*
X85044827Y-136012983D01*
X85044827Y-136012983D02*
X85140065Y-135965364D01*
X85140065Y-135965364D02*
X85663875Y-135965364D01*
X84997208Y-135584412D02*
X85663875Y-135346317D01*
X84997208Y-135108222D02*
X85663875Y-135346317D01*
X85663875Y-135346317D02*
X85901970Y-135441555D01*
X85901970Y-135441555D02*
X85949589Y-135489174D01*
X85949589Y-135489174D02*
X85997208Y-135584412D01*
X85663875Y-133965364D02*
X84663875Y-133965364D01*
X85140065Y-133965364D02*
X85140065Y-133393936D01*
X85663875Y-133393936D02*
X84663875Y-133393936D01*
X85663875Y-132489174D02*
X85140065Y-132489174D01*
X85140065Y-132489174D02*
X85044827Y-132536793D01*
X85044827Y-132536793D02*
X84997208Y-132632031D01*
X84997208Y-132632031D02*
X84997208Y-132822507D01*
X84997208Y-132822507D02*
X85044827Y-132917745D01*
X85616256Y-132489174D02*
X85663875Y-132584412D01*
X85663875Y-132584412D02*
X85663875Y-132822507D01*
X85663875Y-132822507D02*
X85616256Y-132917745D01*
X85616256Y-132917745D02*
X85521017Y-132965364D01*
X85521017Y-132965364D02*
X85425779Y-132965364D01*
X85425779Y-132965364D02*
X85330541Y-132917745D01*
X85330541Y-132917745D02*
X85282922Y-132822507D01*
X85282922Y-132822507D02*
X85282922Y-132584412D01*
X85282922Y-132584412D02*
X85235303Y-132489174D01*
X84997208Y-132155840D02*
X84997208Y-131774888D01*
X84663875Y-132012983D02*
X85521017Y-132012983D01*
X85521017Y-132012983D02*
X85616256Y-131965364D01*
X85616256Y-131965364D02*
X85663875Y-131870126D01*
X85663875Y-131870126D02*
X85663875Y-131774888D01*
X86273819Y-147155839D02*
X86273819Y-147060601D01*
X86273819Y-147060601D02*
X86321438Y-146965363D01*
X86321438Y-146965363D02*
X86369057Y-146917744D01*
X86369057Y-146917744D02*
X86464295Y-146870125D01*
X86464295Y-146870125D02*
X86654771Y-146822506D01*
X86654771Y-146822506D02*
X86892866Y-146822506D01*
X86892866Y-146822506D02*
X87083342Y-146870125D01*
X87083342Y-146870125D02*
X87178580Y-146917744D01*
X87178580Y-146917744D02*
X87226200Y-146965363D01*
X87226200Y-146965363D02*
X87273819Y-147060601D01*
X87273819Y-147060601D02*
X87273819Y-147155839D01*
X87273819Y-147155839D02*
X87226200Y-147251077D01*
X87226200Y-147251077D02*
X87178580Y-147298696D01*
X87178580Y-147298696D02*
X87083342Y-147346315D01*
X87083342Y-147346315D02*
X86892866Y-147393934D01*
X86892866Y-147393934D02*
X86654771Y-147393934D01*
X86654771Y-147393934D02*
X86464295Y-147346315D01*
X86464295Y-147346315D02*
X86369057Y-147298696D01*
X86369057Y-147298696D02*
X86321438Y-147251077D01*
X86321438Y-147251077D02*
X86273819Y-147155839D01*
X86273819Y-146203458D02*
X86273819Y-146108220D01*
X86273819Y-146108220D02*
X86321438Y-146012982D01*
X86321438Y-146012982D02*
X86369057Y-145965363D01*
X86369057Y-145965363D02*
X86464295Y-145917744D01*
X86464295Y-145917744D02*
X86654771Y-145870125D01*
X86654771Y-145870125D02*
X86892866Y-145870125D01*
X86892866Y-145870125D02*
X87083342Y-145917744D01*
X87083342Y-145917744D02*
X87178580Y-145965363D01*
X87178580Y-145965363D02*
X87226200Y-146012982D01*
X87226200Y-146012982D02*
X87273819Y-146108220D01*
X87273819Y-146108220D02*
X87273819Y-146203458D01*
X87273819Y-146203458D02*
X87226200Y-146298696D01*
X87226200Y-146298696D02*
X87178580Y-146346315D01*
X87178580Y-146346315D02*
X87083342Y-146393934D01*
X87083342Y-146393934D02*
X86892866Y-146441553D01*
X86892866Y-146441553D02*
X86654771Y-146441553D01*
X86654771Y-146441553D02*
X86464295Y-146393934D01*
X86464295Y-146393934D02*
X86369057Y-146346315D01*
X86369057Y-146346315D02*
X86321438Y-146298696D01*
X86321438Y-146298696D02*
X86273819Y-146203458D01*
X86273819Y-145251077D02*
X86273819Y-145155839D01*
X86273819Y-145155839D02*
X86321438Y-145060601D01*
X86321438Y-145060601D02*
X86369057Y-145012982D01*
X86369057Y-145012982D02*
X86464295Y-144965363D01*
X86464295Y-144965363D02*
X86654771Y-144917744D01*
X86654771Y-144917744D02*
X86892866Y-144917744D01*
X86892866Y-144917744D02*
X87083342Y-144965363D01*
X87083342Y-144965363D02*
X87178580Y-145012982D01*
X87178580Y-145012982D02*
X87226200Y-145060601D01*
X87226200Y-145060601D02*
X87273819Y-145155839D01*
X87273819Y-145155839D02*
X87273819Y-145251077D01*
X87273819Y-145251077D02*
X87226200Y-145346315D01*
X87226200Y-145346315D02*
X87178580Y-145393934D01*
X87178580Y-145393934D02*
X87083342Y-145441553D01*
X87083342Y-145441553D02*
X86892866Y-145489172D01*
X86892866Y-145489172D02*
X86654771Y-145489172D01*
X86654771Y-145489172D02*
X86464295Y-145441553D01*
X86464295Y-145441553D02*
X86369057Y-145393934D01*
X86369057Y-145393934D02*
X86321438Y-145346315D01*
X86321438Y-145346315D02*
X86273819Y-145251077D01*
X86273819Y-144298696D02*
X86273819Y-144203458D01*
X86273819Y-144203458D02*
X86321438Y-144108220D01*
X86321438Y-144108220D02*
X86369057Y-144060601D01*
X86369057Y-144060601D02*
X86464295Y-144012982D01*
X86464295Y-144012982D02*
X86654771Y-143965363D01*
X86654771Y-143965363D02*
X86892866Y-143965363D01*
X86892866Y-143965363D02*
X87083342Y-144012982D01*
X87083342Y-144012982D02*
X87178580Y-144060601D01*
X87178580Y-144060601D02*
X87226200Y-144108220D01*
X87226200Y-144108220D02*
X87273819Y-144203458D01*
X87273819Y-144203458D02*
X87273819Y-144298696D01*
X87273819Y-144298696D02*
X87226200Y-144393934D01*
X87226200Y-144393934D02*
X87178580Y-144441553D01*
X87178580Y-144441553D02*
X87083342Y-144489172D01*
X87083342Y-144489172D02*
X86892866Y-144536791D01*
X86892866Y-144536791D02*
X86654771Y-144536791D01*
X86654771Y-144536791D02*
X86464295Y-144489172D01*
X86464295Y-144489172D02*
X86369057Y-144441553D01*
X86369057Y-144441553D02*
X86321438Y-144393934D01*
X86321438Y-144393934D02*
X86273819Y-144298696D01*
X87273819Y-143012982D02*
X87273819Y-143584410D01*
X87273819Y-143298696D02*
X86273819Y-143298696D01*
X86273819Y-143298696D02*
X86416676Y-143393934D01*
X86416676Y-143393934D02*
X86511914Y-143489172D01*
X86511914Y-143489172D02*
X86559533Y-143584410D01*
X86892866Y-141822505D02*
X86892866Y-141060601D01*
X87273819Y-139298696D02*
X87273819Y-139870124D01*
X87273819Y-139584410D02*
X86273819Y-139584410D01*
X86273819Y-139584410D02*
X86416676Y-139679648D01*
X86416676Y-139679648D02*
X86511914Y-139774886D01*
X86511914Y-139774886D02*
X86559533Y-139870124D01*
D11*
%TO.C,R11*%
X73914000Y-120420000D02*
X73914000Y-121190000D01*
X73914000Y-128500000D02*
X73914000Y-127730000D01*
X72544000Y-127730000D02*
X75284000Y-127730000D01*
X75284000Y-121190000D01*
X72544000Y-121190000D01*
X72544000Y-127730000D01*
%TO.C,D7*%
X77195000Y-98064000D02*
X80285000Y-98064000D01*
X77195170Y-98064000D02*
G75*
G02*
X78740000Y-92514000I1544830J2560000D01*
G01*
X78740000Y-92514000D02*
G75*
G02*
X80284830Y-98064000I0J-2990000D01*
G01*
X81240000Y-95504000D02*
G75*
G02*
X76240000Y-95504000I-2500000J0D01*
G01*
X76240000Y-95504000D02*
G75*
G02*
X81240000Y-95504000I2500000J0D01*
G01*
%TO.C,Q1*%
X56566000Y-139976000D02*
X56566000Y-136376000D01*
X52116000Y-138176000D02*
G75*
G02*
X56554478Y-136337522I2600000J0D01*
G01*
X56554478Y-140014478D02*
G75*
G02*
X52115999Y-138176000I-1838478J1838478D01*
G01*
%TO.C,D6*%
X57891000Y-109245000D02*
X60981000Y-109245000D01*
X57891170Y-109245000D02*
G75*
G02*
X59436000Y-103695000I1544830J2560000D01*
G01*
X59436000Y-103695000D02*
G75*
G02*
X60980830Y-109245000I0J-2990000D01*
G01*
X61936000Y-106685000D02*
G75*
G02*
X56936000Y-106685000I-2500000J0D01*
G01*
X56936000Y-106685000D02*
G75*
G02*
X61936000Y-106685000I2500000J0D01*
G01*
%TO.C,R10*%
X64262000Y-120420000D02*
X64262000Y-121190000D01*
X64262000Y-128500000D02*
X64262000Y-127730000D01*
X62892000Y-127730000D02*
X65632000Y-127730000D01*
X65632000Y-121190000D01*
X62892000Y-121190000D01*
X62892000Y-127730000D01*
%TO.C,R6*%
X73914000Y-83082000D02*
X73914000Y-83852000D01*
X73914000Y-91162000D02*
X73914000Y-90392000D01*
X75284000Y-83852000D02*
X72544000Y-83852000D01*
X72544000Y-90392000D01*
X75284000Y-90392000D01*
X75284000Y-83852000D01*
%TO.C,J3*%
X84776000Y-73914000D02*
X84776000Y-56074000D01*
X84776000Y-76514000D02*
X84776000Y-75184000D01*
X86106000Y-76514000D02*
X84776000Y-76514000D01*
X87436000Y-56074000D02*
X84776000Y-56074000D01*
X87436000Y-73914000D02*
X84776000Y-73914000D01*
X87436000Y-73914000D02*
X87436000Y-56074000D01*
%TO.C,R1*%
X54610000Y-121944000D02*
X54610000Y-122714000D01*
X54610000Y-130024000D02*
X54610000Y-129254000D01*
X53240000Y-129254000D02*
X55980000Y-129254000D01*
X55980000Y-122714000D01*
X53240000Y-122714000D01*
X53240000Y-129254000D01*
%TO.C,D3*%
X57891000Y-86888000D02*
X60981000Y-86888000D01*
X57891170Y-86888000D02*
G75*
G02*
X59436000Y-81338000I1544830J2560000D01*
G01*
X59436000Y-81338000D02*
G75*
G02*
X60980830Y-86888000I0J-2990000D01*
G01*
X61936000Y-84328000D02*
G75*
G02*
X56936000Y-84328000I-2500000J0D01*
G01*
X56936000Y-84328000D02*
G75*
G02*
X61936000Y-84328000I2500000J0D01*
G01*
%TO.C,R14*%
X65048000Y-136906000D02*
X65818000Y-136906000D01*
X73128000Y-136906000D02*
X72358000Y-136906000D01*
X65818000Y-135536000D02*
X72358000Y-135536000D01*
X72358000Y-138276000D01*
X65818000Y-138276000D01*
X65818000Y-135536000D01*
%TO.C,R7*%
X64262000Y-83082000D02*
X64262000Y-83852000D01*
X64262000Y-91162000D02*
X64262000Y-90392000D01*
X65632000Y-83852000D02*
X62892000Y-83852000D01*
X62892000Y-90392000D01*
X65632000Y-90392000D01*
X65632000Y-83852000D01*
%TO.C,D5*%
X77195000Y-109245000D02*
X80285000Y-109245000D01*
X77195170Y-109245000D02*
G75*
G02*
X78740000Y-103695000I1544830J2560000D01*
G01*
X78740000Y-103695000D02*
G75*
G02*
X80284830Y-109245000I0J-2990000D01*
G01*
X81240000Y-106685000D02*
G75*
G02*
X76240000Y-106685000I-2500000J0D01*
G01*
X76240000Y-106685000D02*
G75*
G02*
X81240000Y-106685000I2500000J0D01*
G01*
%TO.C,U3*%
X76598000Y-53534000D02*
X76598000Y-79054000D01*
X76598000Y-79054000D02*
X78248000Y-79054000D01*
X80248000Y-79054000D02*
X81898000Y-79054000D01*
X81898000Y-53534000D02*
X76598000Y-53534000D01*
X81898000Y-79054000D02*
X81898000Y-53534000D01*
X78248000Y-79054000D02*
G75*
G02*
X80248000Y-79054000I1000000J0D01*
G01*
%TO.C,R15*%
X74192000Y-133858000D02*
X74962000Y-133858000D01*
X82272000Y-133858000D02*
X81502000Y-133858000D01*
X81502000Y-135228000D02*
X74962000Y-135228000D01*
X74962000Y-132488000D01*
X81502000Y-132488000D01*
X81502000Y-135228000D01*
%TO.C,R9*%
X83566000Y-107974000D02*
X83566000Y-108744000D01*
X83566000Y-116054000D02*
X83566000Y-115284000D01*
X82196000Y-115284000D02*
X84936000Y-115284000D01*
X84936000Y-108744000D01*
X82196000Y-108744000D01*
X82196000Y-115284000D01*
%TO.C,R3*%
X73914000Y-95528000D02*
X73914000Y-96298000D01*
X73914000Y-103608000D02*
X73914000Y-102838000D01*
X72544000Y-102838000D02*
X75284000Y-102838000D01*
X75284000Y-96298000D01*
X72544000Y-96298000D01*
X72544000Y-102838000D01*
%TO.C,D8*%
X67543000Y-98064000D02*
X70633000Y-98064000D01*
X67543170Y-98064000D02*
G75*
G02*
X69088000Y-92514000I1544830J2560000D01*
G01*
X69088000Y-92514000D02*
G75*
G02*
X70632830Y-98064000I0J-2990000D01*
G01*
X71588000Y-95504000D02*
G75*
G02*
X66588000Y-95504000I-2500000J0D01*
G01*
X66588000Y-95504000D02*
G75*
G02*
X71588000Y-95504000I2500000J0D01*
G01*
%TO.C,R16*%
X64262000Y-107974000D02*
X64262000Y-108744000D01*
X64262000Y-116054000D02*
X64262000Y-115284000D01*
X62892000Y-115284000D02*
X65632000Y-115284000D01*
X65632000Y-108744000D01*
X62892000Y-108744000D01*
X62892000Y-115284000D01*
%TO.C,R4*%
X64262000Y-95533000D02*
X64262000Y-96303000D01*
X64262000Y-103613000D02*
X64262000Y-102843000D01*
X62892000Y-102843000D02*
X65632000Y-102843000D01*
X65632000Y-96303000D01*
X62892000Y-96303000D01*
X62892000Y-102843000D01*
%TO.C,R2*%
X54610000Y-109498000D02*
X54610000Y-110268000D01*
X54610000Y-117578000D02*
X54610000Y-116808000D01*
X53240000Y-116808000D02*
X55980000Y-116808000D01*
X55980000Y-110268000D01*
X53240000Y-110268000D01*
X53240000Y-116808000D01*
%TO.C,D10*%
X57891000Y-120416000D02*
X60981000Y-120416000D01*
X57891170Y-120416000D02*
G75*
G02*
X59436000Y-114866000I1544830J2560000D01*
G01*
X59436000Y-114866000D02*
G75*
G02*
X60980830Y-120416000I0J-2990000D01*
G01*
X61936000Y-117856000D02*
G75*
G02*
X56936000Y-117856000I-2500000J0D01*
G01*
X56936000Y-117856000D02*
G75*
G02*
X61936000Y-117856000I2500000J0D01*
G01*
%TO.C,R12*%
X83566000Y-120420000D02*
X83566000Y-121190000D01*
X83566000Y-128500000D02*
X83566000Y-127730000D01*
X82196000Y-127730000D02*
X84936000Y-127730000D01*
X84936000Y-121190000D01*
X82196000Y-121190000D01*
X82196000Y-127730000D01*
%TO.C,D12*%
X77195000Y-120416000D02*
X80285000Y-120416000D01*
X77195170Y-120416000D02*
G75*
G02*
X78740000Y-114866000I1544830J2560000D01*
G01*
X78740000Y-114866000D02*
G75*
G02*
X80284830Y-120416000I0J-2990000D01*
G01*
X81240000Y-117856000D02*
G75*
G02*
X76240000Y-117856000I-2500000J0D01*
G01*
X76240000Y-117856000D02*
G75*
G02*
X81240000Y-117856000I2500000J0D01*
G01*
%TO.C,D9*%
X57891000Y-98069000D02*
X60981000Y-98069000D01*
X57891170Y-98069000D02*
G75*
G02*
X59436000Y-92519000I1544830J2560000D01*
G01*
X59436000Y-92519000D02*
G75*
G02*
X60980830Y-98069000I0J-2990000D01*
G01*
X61936000Y-95509000D02*
G75*
G02*
X56936000Y-95509000I-2500000J0D01*
G01*
X56936000Y-95509000D02*
G75*
G02*
X61936000Y-95509000I2500000J0D01*
G01*
%TO.C,R17*%
X83566000Y-95528000D02*
X83566000Y-96298000D01*
X83566000Y-103608000D02*
X83566000Y-102838000D01*
X82196000Y-102838000D02*
X84936000Y-102838000D01*
X84936000Y-96298000D01*
X82196000Y-96298000D01*
X82196000Y-102838000D01*
%TO.C,D1*%
X77195000Y-86888000D02*
X80285000Y-86888000D01*
X77195170Y-86888000D02*
G75*
G02*
X78740000Y-81338000I1544830J2560000D01*
G01*
X78740000Y-81338000D02*
G75*
G02*
X80284830Y-86888000I0J-2990000D01*
G01*
X81240000Y-84328000D02*
G75*
G02*
X76240000Y-84328000I-2500000J0D01*
G01*
X76240000Y-84328000D02*
G75*
G02*
X81240000Y-84328000I2500000J0D01*
G01*
%TO.C,D11*%
X67543000Y-120416000D02*
X70633000Y-120416000D01*
X67543170Y-120416000D02*
G75*
G02*
X69088000Y-114866000I1544830J2560000D01*
G01*
X69088000Y-114866000D02*
G75*
G02*
X70632830Y-120416000I0J-2990000D01*
G01*
X71588000Y-117856000D02*
G75*
G02*
X66588000Y-117856000I-2500000J0D01*
G01*
X66588000Y-117856000D02*
G75*
G02*
X71588000Y-117856000I2500000J0D01*
G01*
%TO.C,D15*%
X77195000Y-131597000D02*
X80285000Y-131597000D01*
X77195170Y-131597000D02*
G75*
G02*
X78740000Y-126047000I1544830J2560000D01*
G01*
X78740000Y-126047000D02*
G75*
G02*
X80284830Y-131597000I0J-2990000D01*
G01*
X81240000Y-129037000D02*
G75*
G02*
X76240000Y-129037000I-2500000J0D01*
G01*
X76240000Y-129037000D02*
G75*
G02*
X81240000Y-129037000I2500000J0D01*
G01*
%TO.C,D4*%
X67543000Y-109245000D02*
X70633000Y-109245000D01*
X67543170Y-109245000D02*
G75*
G02*
X69088000Y-103695000I1544830J2560000D01*
G01*
X69088000Y-103695000D02*
G75*
G02*
X70632830Y-109245000I0J-2990000D01*
G01*
X71588000Y-106685000D02*
G75*
G02*
X66588000Y-106685000I-2500000J0D01*
G01*
X66588000Y-106685000D02*
G75*
G02*
X71588000Y-106685000I2500000J0D01*
G01*
%TO.C,J2*%
X52264000Y-58674000D02*
X52264000Y-76514000D01*
X52264000Y-58674000D02*
X54924000Y-58674000D01*
X52264000Y-76514000D02*
X54924000Y-76514000D01*
X53594000Y-56074000D02*
X54924000Y-56074000D01*
X54924000Y-56074000D02*
X54924000Y-57404000D01*
X54924000Y-58674000D02*
X54924000Y-76514000D01*
%TO.C,D14*%
X67543000Y-131597000D02*
X70633000Y-131597000D01*
X67543170Y-131597000D02*
G75*
G02*
X69088000Y-126047000I1544830J2560000D01*
G01*
X69088000Y-126047000D02*
G75*
G02*
X70632830Y-131597000I0J-2990000D01*
G01*
X71588000Y-129037000D02*
G75*
G02*
X66588000Y-129037000I-2500000J0D01*
G01*
X66588000Y-129037000D02*
G75*
G02*
X71588000Y-129037000I2500000J0D01*
G01*
%TO.C,D2*%
X67543000Y-86888000D02*
X70633000Y-86888000D01*
X67543170Y-86888000D02*
G75*
G02*
X69088000Y-81338000I1544830J2560000D01*
G01*
X69088000Y-81338000D02*
G75*
G02*
X70632830Y-86888000I0J-2990000D01*
G01*
X71588000Y-84328000D02*
G75*
G02*
X66588000Y-84328000I-2500000J0D01*
G01*
X66588000Y-84328000D02*
G75*
G02*
X71588000Y-84328000I2500000J0D01*
G01*
%TO.C,R13*%
X55904000Y-133858000D02*
X56674000Y-133858000D01*
X63984000Y-133858000D02*
X63214000Y-133858000D01*
X56674000Y-132488000D02*
X63214000Y-132488000D01*
X63214000Y-135228000D01*
X56674000Y-135228000D01*
X56674000Y-132488000D01*
%TO.C,J1*%
X59626987Y-149288987D02*
X60956987Y-149288987D01*
X59626987Y-150618987D02*
X59626987Y-149288987D01*
X62226987Y-149288987D02*
X80066987Y-149288987D01*
X62226987Y-151948987D02*
X62226987Y-149288987D01*
X62226987Y-151948987D02*
X80066987Y-151948987D01*
X80066987Y-151948987D02*
X80066987Y-149288987D01*
%TO.C,R8*%
X73914000Y-107974000D02*
X73914000Y-108744000D01*
X73914000Y-116054000D02*
X73914000Y-115284000D01*
X72544000Y-115284000D02*
X75284000Y-115284000D01*
X75284000Y-108744000D01*
X72544000Y-108744000D01*
X72544000Y-115284000D01*
%TO.C,D13*%
X57891000Y-131597000D02*
X60981000Y-131597000D01*
X57891170Y-131597000D02*
G75*
G02*
X59436000Y-126047000I1544830J2560000D01*
G01*
X59436000Y-126047000D02*
G75*
G02*
X60980830Y-131597000I0J-2990000D01*
G01*
X61936000Y-129037000D02*
G75*
G02*
X56936000Y-129037000I-2500000J0D01*
G01*
X56936000Y-129037000D02*
G75*
G02*
X61936000Y-129037000I2500000J0D01*
G01*
%TO.C,U2*%
X57802000Y-53534000D02*
X57802000Y-79054000D01*
X57802000Y-79054000D02*
X63102000Y-79054000D01*
X59452000Y-53534000D02*
X57802000Y-53534000D01*
X63102000Y-53534000D02*
X61452000Y-53534000D01*
X63102000Y-79054000D02*
X63102000Y-53534000D01*
X61452000Y-53534000D02*
G75*
G02*
X59452000Y-53534000I-1000000J0D01*
G01*
%TO.C,R5*%
X83566000Y-83082000D02*
X83566000Y-83852000D01*
X83566000Y-91162000D02*
X83566000Y-90392000D01*
X84936000Y-83852000D02*
X82196000Y-83852000D01*
X82196000Y-90392000D01*
X84936000Y-90392000D01*
X84936000Y-83852000D01*
%TO.C,U1*%
X57086987Y-140856987D02*
X57086987Y-142506987D01*
X57086987Y-144506987D02*
X57086987Y-146156987D01*
X57086987Y-146156987D02*
X82606987Y-146156987D01*
X82606987Y-140856987D02*
X57086987Y-140856987D01*
X82606987Y-146156987D02*
X82606987Y-140856987D01*
X57086987Y-142506987D02*
G75*
G02*
X57086987Y-144506987I0J-1000000D01*
G01*
%TD*%
M02*
